<svg width="122" height="19" viewBox="0 0 122 19" fill="none" xmlns="http://www.w3.org/2000/svg">
<path d="M3.53692 -2.11e-05H8.15392C8.47792 -2.11e-05 8.82892 0.134979 9.04492 0.350979L11.3399 2.67298C11.5559 2.88898 11.6909 3.23998 11.6909 3.53698V18.441C11.6909 18.738 11.5019 18.954 11.1779 18.954H9.61192C9.28792 18.954 9.09892 18.738 9.09892 18.441V14.904H2.59192V18.441C2.59192 18.738 2.40292 18.954 2.07892 18.954H0.512918C0.188918 18.954 -8.19862e-05 18.738 -8.19862e-05 18.441V3.53698C-8.19862e-05 3.23998 0.134918 2.88898 0.350918 2.67298L2.64592 0.350979C2.86192 0.134979 3.21292 -2.11e-05 3.53692 -2.11e-05ZM2.59192 4.04998V12.366H9.09892V4.04998L7.58692 2.53798H4.07692L2.59192 4.04998ZM15.3193 18.441V0.512979C15.3193 0.188978 15.5083 -2.11e-05 15.8053 -2.11e-05H23.5003C23.7973 -2.11e-05 24.1483 0.134979 24.3643 0.350979L26.6593 2.64598C26.8753 2.86198 27.0103 3.21298 27.0103 3.50998L27.0373 7.20898C27.0373 7.50598 26.9023 7.85698 26.6863 8.07298L24.3913 10.395C24.1753 10.611 23.8243 10.746 23.5273 10.746H17.9113V18.441C17.9113 18.738 17.7223 18.954 17.4253 18.954H15.8053C15.5083 18.954 15.3193 18.738 15.3193 18.441ZM17.9113 2.53798V8.20798H22.9333L24.4183 6.69598V4.04998L22.9063 2.53798H17.9113ZM30.665 18.441V0.512979C30.665 0.188978 30.854 -2.11e-05 31.151 -2.11e-05H38.846C39.143 -2.11e-05 39.494 0.134979 39.71 0.350979L42.005 2.64598C42.221 2.86198 42.356 3.21298 42.356 3.50998L42.383 7.20898C42.383 7.50598 42.248 7.85698 42.032 8.07298L39.737 10.395C39.521 10.611 39.17 10.746 38.873 10.746H33.257V18.441C33.257 18.738 33.068 18.954 32.771 18.954H31.151C30.854 18.954 30.665 18.738 30.665 18.441ZM33.257 2.53798V8.20798H38.279L39.764 6.69598V4.04998L38.252 2.53798H33.257ZM46.0107 18.441V0.512979C46.0107 0.188978 46.1997 -2.11e-05 46.4967 -2.11e-05H48.1167C48.4137 -2.11e-05 48.6027 0.188978 48.6027 0.512979V16.416H57.2157C57.5127 16.416 57.7017 16.605 57.7017 16.902V18.441C57.7017 18.738 57.5127 18.954 57.2157 18.954H46.4967C46.1997 18.954 46.0107 18.738 46.0107 18.441ZM57.8609 -2.11e-05H59.4809C59.7779 -2.11e-05 59.9669 0.188978 59.9669 0.512979V3.40198L63.2069 7.55998L66.4469 3.40198V0.512979C66.4469 0.188978 66.6629 -2.11e-05 66.9599 -2.11e-05H68.5529C68.8499 -2.11e-05 69.0659 0.188978 69.0659 0.512979V3.50998C69.0659 3.80698 68.9309 4.18498 68.7419 4.42798L64.5029 9.88198V18.441C64.5029 18.738 64.3139 18.954 64.0169 18.954H62.3969C62.0999 18.954 61.9109 18.738 61.9109 18.441V9.85498L57.6719 4.42798C57.4829 4.18498 57.3749 3.80698 57.3749 3.50998V0.512979C57.3749 0.188978 57.5639 -2.11e-05 57.8609 -2.11e-05ZM79.4443 18.441V0.512979C79.4443 0.215979 79.6333 -2.11e-05 79.9573 -2.11e-05H81.5233C81.8473 -2.11e-05 82.0363 0.215979 82.0363 0.512979V0.998979L88.5433 12.744V0.512979C88.5433 0.215979 88.7323 -2.11e-05 89.0563 -2.11e-05H90.6223C90.9463 -2.11e-05 91.1353 0.215979 91.1353 0.512979V18.441C91.1353 18.738 90.9463 18.954 90.6223 18.954H89.0563C88.7323 18.954 88.5433 18.738 88.5433 18.441V17.955L82.0363 6.23698V18.441C82.0363 18.738 81.8473 18.954 81.5233 18.954H79.9573C79.6333 18.954 79.4443 18.738 79.4443 18.441ZM98.2736 -2.11e-05H102.945C103.242 -2.11e-05 103.593 0.134979 103.809 0.350979L106.104 2.67298C106.32 2.88898 106.455 3.21298 106.455 3.53698V15.417C106.455 15.714 106.32 16.065 106.104 16.281L103.809 18.603C103.593 18.819 103.242 18.954 102.945 18.954H98.2736C97.9766 18.954 97.6256 18.819 97.4096 18.603L95.1146 16.281C94.8986 16.065 94.7636 15.714 94.7636 15.417V3.53698C94.7636 3.21298 94.8986 2.88898 95.1146 2.67298L97.4096 0.350979C97.6256 0.134979 97.9766 -2.11e-05 98.2736 -2.11e-05ZM97.3556 14.904L98.8676 16.416H102.378L103.863 14.904V4.07698L102.378 2.53798H98.8676L97.3556 4.07698V14.904ZM115.132 10.341H116.725C117.022 10.341 117.238 10.53 117.238 10.854V15.201L118.21 16.713L119.182 15.201V0.512979C119.182 0.215979 119.371 -2.11e-05 119.668 -2.11e-05H121.261C121.585 -2.11e-05 121.774 0.215979 121.774 0.512979V15.228C121.774 15.525 121.666 15.903 121.504 16.173L119.992 18.522C119.803 18.792 119.506 18.954 119.182 18.954H117.184C117.022 18.954 116.887 18.873 116.779 18.738L115.915 17.469L115.051 18.738C114.97 18.873 114.808 18.954 114.673 18.954H112.648C112.351 18.954 112.027 18.792 111.865 18.522L110.353 16.173C110.191 15.903 110.083 15.525 110.083 15.228V0.512979C110.083 0.215979 110.272 -2.11e-05 110.596 -2.11e-05H112.162C112.486 -2.11e-05 112.675 0.215979 112.675 0.512979V15.201L113.647 16.713L114.619 15.201V10.854C114.619 10.53 114.835 10.341 115.132 10.341Z" fill="url(#paint0_linear_39_104)"/>
<path d="M3.53692 -2.11e-05H8.15392C8.47792 -2.11e-05 8.82892 0.134979 9.04492 0.350979L11.3399 2.67298C11.5559 2.88898 11.6909 3.23998 11.6909 3.53698V18.441C11.6909 18.738 11.5019 18.954 11.1779 18.954H9.61192C9.28792 18.954 9.09892 18.738 9.09892 18.441V14.904H2.59192V18.441C2.59192 18.738 2.40292 18.954 2.07892 18.954H0.512918C0.188918 18.954 -8.19862e-05 18.738 -8.19862e-05 18.441V3.53698C-8.19862e-05 3.23998 0.134918 2.88898 0.350918 2.67298L2.64592 0.350979C2.86192 0.134979 3.21292 -2.11e-05 3.53692 -2.11e-05ZM2.59192 4.04998V12.366H9.09892V4.04998L7.58692 2.53798H4.07692L2.59192 4.04998ZM15.3193 18.441V0.512979C15.3193 0.188978 15.5083 -2.11e-05 15.8053 -2.11e-05H23.5003C23.7973 -2.11e-05 24.1483 0.134979 24.3643 0.350979L26.6593 2.64598C26.8753 2.86198 27.0103 3.21298 27.0103 3.50998L27.0373 7.20898C27.0373 7.50598 26.9023 7.85698 26.6863 8.07298L24.3913 10.395C24.1753 10.611 23.8243 10.746 23.5273 10.746H17.9113V18.441C17.9113 18.738 17.7223 18.954 17.4253 18.954H15.8053C15.5083 18.954 15.3193 18.738 15.3193 18.441ZM17.9113 2.53798V8.20798H22.9333L24.4183 6.69598V4.04998L22.9063 2.53798H17.9113ZM30.665 18.441V0.512979C30.665 0.188978 30.854 -2.11e-05 31.151 -2.11e-05H38.846C39.143 -2.11e-05 39.494 0.134979 39.71 0.350979L42.005 2.64598C42.221 2.86198 42.356 3.21298 42.356 3.50998L42.383 7.20898C42.383 7.50598 42.248 7.85698 42.032 8.07298L39.737 10.395C39.521 10.611 39.17 10.746 38.873 10.746H33.257V18.441C33.257 18.738 33.068 18.954 32.771 18.954H31.151C30.854 18.954 30.665 18.738 30.665 18.441ZM33.257 2.53798V8.20798H38.279L39.764 6.69598V4.04998L38.252 2.53798H33.257ZM46.0107 18.441V0.512979C46.0107 0.188978 46.1997 -2.11e-05 46.4967 -2.11e-05H48.1167C48.4137 -2.11e-05 48.6027 0.188978 48.6027 0.512979V16.416H57.2157C57.5127 16.416 57.7017 16.605 57.7017 16.902V18.441C57.7017 18.738 57.5127 18.954 57.2157 18.954H46.4967C46.1997 18.954 46.0107 18.738 46.0107 18.441ZM57.8609 -2.11e-05H59.4809C59.7779 -2.11e-05 59.9669 0.188978 59.9669 0.512979V3.40198L63.2069 7.55998L66.4469 3.40198V0.512979C66.4469 0.188978 66.6629 -2.11e-05 66.9599 -2.11e-05H68.5529C68.8499 -2.11e-05 69.0659 0.188978 69.0659 0.512979V3.50998C69.0659 3.80698 68.9309 4.18498 68.7419 4.42798L64.5029 9.88198V18.441C64.5029 18.738 64.3139 18.954 64.0169 18.954H62.3969C62.0999 18.954 61.9109 18.738 61.9109 18.441V9.85498L57.6719 4.42798C57.4829 4.18498 57.3749 3.80698 57.3749 3.50998V0.512979C57.3749 0.188978 57.5639 -2.11e-05 57.8609 -2.11e-05ZM79.4443 18.441V0.512979C79.4443 0.215979 79.6333 -2.11e-05 79.9573 -2.11e-05H81.5233C81.8473 -2.11e-05 82.0363 0.215979 82.0363 0.512979V0.998979L88.5433 12.744V0.512979C88.5433 0.215979 88.7323 -2.11e-05 89.0563 -2.11e-05H90.6223C90.9463 -2.11e-05 91.1353 0.215979 91.1353 0.512979V18.441C91.1353 18.738 90.9463 18.954 90.6223 18.954H89.0563C88.7323 18.954 88.5433 18.738 88.5433 18.441V17.955L82.0363 6.23698V18.441C82.0363 18.738 81.8473 18.954 81.5233 18.954H79.9573C79.6333 18.954 79.4443 18.738 79.4443 18.441ZM98.2736 -2.11e-05H102.945C103.242 -2.11e-05 103.593 0.134979 103.809 0.350979L106.104 2.67298C106.32 2.88898 106.455 3.21298 106.455 3.53698V15.417C106.455 15.714 106.32 16.065 106.104 16.281L103.809 18.603C103.593 18.819 103.242 18.954 102.945 18.954H98.2736C97.9766 18.954 97.6256 18.819 97.4096 18.603L95.1146 16.281C94.8986 16.065 94.7636 15.714 94.7636 15.417V3.53698C94.7636 3.21298 94.8986 2.88898 95.1146 2.67298L97.4096 0.350979C97.6256 0.134979 97.9766 -2.11e-05 98.2736 -2.11e-05ZM97.3556 14.904L98.8676 16.416H102.378L103.863 14.904V4.07698L102.378 2.53798H98.8676L97.3556 4.07698V14.904ZM115.132 10.341H116.725C117.022 10.341 117.238 10.53 117.238 10.854V15.201L118.21 16.713L119.182 15.201V0.512979C119.182 0.215979 119.371 -2.11e-05 119.668 -2.11e-05H121.261C121.585 -2.11e-05 121.774 0.215979 121.774 0.512979V15.228C121.774 15.525 121.666 15.903 121.504 16.173L119.992 18.522C119.803 18.792 119.506 18.954 119.182 18.954H117.184C117.022 18.954 116.887 18.873 116.779 18.738L115.915 17.469L115.051 18.738C114.97 18.873 114.808 18.954 114.673 18.954H112.648C112.351 18.954 112.027 18.792 111.865 18.522L110.353 16.173C110.191 15.903 110.083 15.525 110.083 15.228V0.512979C110.083 0.215979 110.272 -2.11e-05 110.596 -2.11e-05H112.162C112.486 -2.11e-05 112.675 0.215979 112.675 0.512979V15.201L113.647 16.713L114.619 15.201V10.854C114.619 10.53 114.835 10.341 115.132 10.341Z" fill="url(#paint1_linear_39_104)"/>
<defs>
<linearGradient id="paint0_linear_39_104" x1="-23.6296" y1="38.895" x2="60.0309" y2="-18.9543" gradientUnits="userSpaceOnUse">
<stop stop-color="#FF8E2A"/>
<stop offset="1" stop-color="white" stop-opacity="0"/>
</linearGradient>
<linearGradient id="paint1_linear_39_104" x1="140.718" y1="-124.84" x2="20.4137" y2="-5.74139" gradientUnits="userSpaceOnUse">
<stop stop-color="#FF8E2A"/>
<stop offset="1" stop-color="white" stop-opacity="0.7"/>
</linearGradient>
</defs>
</svg>
