<svg width="281" height="75" viewBox="0 0 281 75" fill="none" xmlns="http://www.w3.org/2000/svg">
<mask id="path-1-inside-1_291_1560" fill="white">
<path d="M271.194 0C276.61 3.41451e-06 281 4.39013 281 9.80566V45.2716C281 47.8929 279.951 50.405 278.086 52.2473L257.92 72.1698C256.085 73.9831 253.609 75 251.029 75H9.80664C4.39107 75 0.000127633 70.6099 0 65.1943V29.1504C0 26.5291 1.04956 24.0168 2.91438 22.1746L22.4957 2.83003C24.3311 1.01681 26.8072 0 29.3872 0H271.194Z"/>
</mask>
<path d="M271.194 0C276.61 3.41451e-06 281 4.39013 281 9.80566V45.2716C281 47.8929 279.951 50.405 278.086 52.2473L257.92 72.1698C256.085 73.9831 253.609 75 251.029 75H9.80664C4.39107 75 0.000127633 70.6099 0 65.1943V29.1504C0 26.5291 1.04956 24.0168 2.91438 22.1746L22.4957 2.83003C24.3311 1.01681 26.8072 0 29.3872 0H271.194Z" fill="#898989" fill-opacity="0.05"/>
<path d="M271.194 0V-1.11691V0ZM281 9.80566H282.117V9.80564L281 9.80566ZM0 65.1943H-1.11691V65.1944L0 65.1943ZM2.91438 22.1746L2.12943 21.38L2.91438 22.1746ZM257.92 72.1698L258.705 72.9643L257.92 72.1698ZM278.086 52.2473L278.871 53.0418L278.086 52.2473ZM271.194 0V1.11691C275.993 1.11691 279.883 5.00696 279.883 9.80569L281 9.80566L282.117 9.80564C282.117 3.77329 277.227 -1.1169 271.194 -1.11691V0ZM281 9.80566H279.883V45.2716H281H282.117V9.80566H281ZM278.086 52.2473L277.301 51.4527L257.135 71.3753L257.92 72.1698L258.705 72.9643L278.871 53.0418L278.086 52.2473ZM251.029 75V73.8831H9.80664V75V76.1169H251.029V75ZM9.80664 75V73.8831C5.0078 73.8831 1.11702 69.9929 1.11691 65.1943L0 65.1943L-1.11691 65.1944C-1.11677 71.2269 3.77434 76.1169 9.80664 76.1169V75ZM0 65.1943H1.11691V29.1504H0H-1.11691V65.1943H0ZM2.91438 22.1746L3.69934 22.9691L23.2806 3.6246L22.4957 2.83003L21.7107 2.03547L2.12943 21.38L2.91438 22.1746ZM29.3872 0V1.11691H271.194V0V-1.11691H29.3872V0ZM0 29.1504H1.11691C1.11691 26.8276 2.04692 24.6016 3.69934 22.9691L2.91438 22.1746L2.12943 21.38C0.052202 23.4321 -1.11691 26.2305 -1.11691 29.1504H0ZM257.92 72.1698L257.135 71.3753C255.509 72.982 253.315 73.8831 251.029 73.8831V75V76.1169C253.903 76.1169 256.661 74.9842 258.705 72.9643L257.92 72.1698ZM22.4957 2.83003L23.2806 3.6246C24.907 2.0179 27.101 1.11691 29.3872 1.11691V0V-1.11691C26.5133 -1.11691 23.7552 0.0157195 21.7107 2.03547L22.4957 2.83003ZM281 45.2716H279.883C279.883 47.5943 278.953 49.8203 277.301 51.4527L278.086 52.2473L278.871 53.0418C280.948 50.9897 282.117 48.1914 282.117 45.2716H281Z" fill="white" fill-opacity="0.02" mask="url(#path-1-inside-1_291_1560)"/>
<path d="M271.194 0V-1.11691V0ZM281 9.80566H282.117V9.80564L281 9.80566ZM0 65.1943H-1.11691V65.1944L0 65.1943ZM2.91438 22.1746L2.12943 21.38L2.91438 22.1746ZM257.92 72.1698L258.705 72.9643L257.92 72.1698ZM278.086 52.2473L278.871 53.0418L278.086 52.2473ZM271.194 0V1.11691C275.993 1.11691 279.883 5.00696 279.883 9.80569L281 9.80566L282.117 9.80564C282.117 3.77329 277.227 -1.1169 271.194 -1.11691V0ZM281 9.80566H279.883V45.2716H281H282.117V9.80566H281ZM278.086 52.2473L277.301 51.4527L257.135 71.3753L257.92 72.1698L258.705 72.9643L278.871 53.0418L278.086 52.2473ZM251.029 75V73.8831H9.80664V75V76.1169H251.029V75ZM9.80664 75V73.8831C5.0078 73.8831 1.11702 69.9929 1.11691 65.1943L0 65.1943L-1.11691 65.1944C-1.11677 71.2269 3.77434 76.1169 9.80664 76.1169V75ZM0 65.1943H1.11691V29.1504H0H-1.11691V65.1943H0ZM2.91438 22.1746L3.69934 22.9691L23.2806 3.6246L22.4957 2.83003L21.7107 2.03547L2.12943 21.38L2.91438 22.1746ZM29.3872 0V1.11691H271.194V0V-1.11691H29.3872V0ZM0 29.1504H1.11691C1.11691 26.8276 2.04692 24.6016 3.69934 22.9691L2.91438 22.1746L2.12943 21.38C0.052202 23.4321 -1.11691 26.2305 -1.11691 29.1504H0ZM257.92 72.1698L257.135 71.3753C255.509 72.982 253.315 73.8831 251.029 73.8831V75V76.1169C253.903 76.1169 256.661 74.9842 258.705 72.9643L257.92 72.1698ZM22.4957 2.83003L23.2806 3.6246C24.907 2.0179 27.101 1.11691 29.3872 1.11691V0V-1.11691C26.5133 -1.11691 23.7552 0.0157195 21.7107 2.03547L22.4957 2.83003ZM281 45.2716H279.883C279.883 47.5943 278.953 49.8203 277.301 51.4527L278.086 52.2473L278.871 53.0418C280.948 50.9897 282.117 48.1914 282.117 45.2716H281Z" fill="url(#paint0_linear_291_1560)" fill-opacity="0.38" mask="url(#path-1-inside-1_291_1560)"/>
<path d="M271.194 0V-1.11691V0ZM281 9.80566H282.117V9.80564L281 9.80566ZM0 65.1943H-1.11691V65.1944L0 65.1943ZM2.91438 22.1746L2.12943 21.38L2.91438 22.1746ZM257.92 72.1698L258.705 72.9643L257.92 72.1698ZM278.086 52.2473L278.871 53.0418L278.086 52.2473ZM271.194 0V1.11691C275.993 1.11691 279.883 5.00696 279.883 9.80569L281 9.80566L282.117 9.80564C282.117 3.77329 277.227 -1.1169 271.194 -1.11691V0ZM281 9.80566H279.883V45.2716H281H282.117V9.80566H281ZM278.086 52.2473L277.301 51.4527L257.135 71.3753L257.92 72.1698L258.705 72.9643L278.871 53.0418L278.086 52.2473ZM251.029 75V73.8831H9.80664V75V76.1169H251.029V75ZM9.80664 75V73.8831C5.0078 73.8831 1.11702 69.9929 1.11691 65.1943L0 65.1943L-1.11691 65.1944C-1.11677 71.2269 3.77434 76.1169 9.80664 76.1169V75ZM0 65.1943H1.11691V29.1504H0H-1.11691V65.1943H0ZM2.91438 22.1746L3.69934 22.9691L23.2806 3.6246L22.4957 2.83003L21.7107 2.03547L2.12943 21.38L2.91438 22.1746ZM29.3872 0V1.11691H271.194V0V-1.11691H29.3872V0ZM0 29.1504H1.11691C1.11691 26.8276 2.04692 24.6016 3.69934 22.9691L2.91438 22.1746L2.12943 21.38C0.052202 23.4321 -1.11691 26.2305 -1.11691 29.1504H0ZM257.92 72.1698L257.135 71.3753C255.509 72.982 253.315 73.8831 251.029 73.8831V75V76.1169C253.903 76.1169 256.661 74.9842 258.705 72.9643L257.92 72.1698ZM22.4957 2.83003L23.2806 3.6246C24.907 2.0179 27.101 1.11691 29.3872 1.11691V0V-1.11691C26.5133 -1.11691 23.7552 0.0157195 21.7107 2.03547L22.4957 2.83003ZM281 45.2716H279.883C279.883 47.5943 278.953 49.8203 277.301 51.4527L278.086 52.2473L278.871 53.0418C280.948 50.9897 282.117 48.1914 282.117 45.2716H281Z" fill="url(#paint1_linear_291_1560)" fill-opacity="0.5" mask="url(#path-1-inside-1_291_1560)"/>
<path d="M271.194 0V-1.11691V0ZM281 9.80566H282.117V9.80564L281 9.80566ZM0 65.1943H-1.11691V65.1944L0 65.1943ZM2.91438 22.1746L2.12943 21.38L2.91438 22.1746ZM257.92 72.1698L258.705 72.9643L257.92 72.1698ZM278.086 52.2473L278.871 53.0418L278.086 52.2473ZM271.194 0V1.11691C275.993 1.11691 279.883 5.00696 279.883 9.80569L281 9.80566L282.117 9.80564C282.117 3.77329 277.227 -1.1169 271.194 -1.11691V0ZM281 9.80566H279.883V45.2716H281H282.117V9.80566H281ZM278.086 52.2473L277.301 51.4527L257.135 71.3753L257.92 72.1698L258.705 72.9643L278.871 53.0418L278.086 52.2473ZM251.029 75V73.8831H9.80664V75V76.1169H251.029V75ZM9.80664 75V73.8831C5.0078 73.8831 1.11702 69.9929 1.11691 65.1943L0 65.1943L-1.11691 65.1944C-1.11677 71.2269 3.77434 76.1169 9.80664 76.1169V75ZM0 65.1943H1.11691V29.1504H0H-1.11691V65.1943H0ZM2.91438 22.1746L3.69934 22.9691L23.2806 3.6246L22.4957 2.83003L21.7107 2.03547L2.12943 21.38L2.91438 22.1746ZM29.3872 0V1.11691H271.194V0V-1.11691H29.3872V0ZM0 29.1504H1.11691C1.11691 26.8276 2.04692 24.6016 3.69934 22.9691L2.91438 22.1746L2.12943 21.38C0.052202 23.4321 -1.11691 26.2305 -1.11691 29.1504H0ZM257.92 72.1698L257.135 71.3753C255.509 72.982 253.315 73.8831 251.029 73.8831V75V76.1169C253.903 76.1169 256.661 74.9842 258.705 72.9643L257.92 72.1698ZM22.4957 2.83003L23.2806 3.6246C24.907 2.0179 27.101 1.11691 29.3872 1.11691V0V-1.11691C26.5133 -1.11691 23.7552 0.0157195 21.7107 2.03547L22.4957 2.83003ZM281 45.2716H279.883C279.883 47.5943 278.953 49.8203 277.301 51.4527L278.086 52.2473L278.871 53.0418C280.948 50.9897 282.117 48.1914 282.117 45.2716H281Z" fill="url(#paint2_linear_291_1560)" fill-opacity="0.5" mask="url(#path-1-inside-1_291_1560)"/>
<defs>
<linearGradient id="paint0_linear_291_1560" x1="175.5" y1="50.5" x2="187.925" y2="76.4861" gradientUnits="userSpaceOnUse">
<stop stop-color="white" stop-opacity="0"/>
<stop offset="1" stop-color="#FF8E2A"/>
</linearGradient>
<linearGradient id="paint1_linear_291_1560" x1="56" y1="30" x2="54.2871" y2="-22.5153" gradientUnits="userSpaceOnUse">
<stop stop-color="white" stop-opacity="0"/>
<stop offset="1" stop-color="white"/>
</linearGradient>
<linearGradient id="paint2_linear_291_1560" x1="29.5" y1="87" x2="0.632793" y2="103.036" gradientUnits="userSpaceOnUse">
<stop stop-color="white" stop-opacity="0"/>
<stop offset="1" stop-color="white"/>
</linearGradient>
</defs>
</svg>
