<svg width="505" height="793" viewBox="0 0 505 793" fill="none" xmlns="http://www.w3.org/2000/svg">
<mask id="path-1-inside-1_2056_1866" fill="white">
<path d="M504.63 249.41C504.63 254.506 502.605 259.394 499.002 262.997L491.258 270.741C487.654 274.345 485.63 279.232 485.63 284.328V522.217C485.63 527.314 487.654 532.201 491.258 535.805L499.002 543.548C502.605 547.151 504.63 552.039 504.63 557.135V773.786C504.63 784.398 496.027 793.001 485.415 793.001H344.412C339.316 793.001 334.429 790.977 330.825 787.373L323.08 779.628C319.477 776.024 314.589 774 309.493 774H201.775C201.475 774 201.231 774.243 201.231 774.543C201.231 774.688 201.174 774.826 201.072 774.928L188.627 787.373C185.023 790.977 180.136 793.001 175.04 793.001H32.8448C22.2327 793.001 13.6299 784.398 13.6299 773.786V87.7053C13.6299 82.5687 15.6865 77.646 19.3406 74.036L75.5087 18.5466C79.1052 14.9935 83.9572 13.001 89.0128 13.001H485.415C496.027 13.001 504.63 21.6038 504.63 32.2159V249.41Z"/>
</mask>
<g filter="url(#filter0_i_2056_1866)">
<path d="M504.63 249.41C504.63 254.506 502.605 259.394 499.002 262.997L491.258 270.741C487.654 274.345 485.63 279.232 485.63 284.328V522.217C485.63 527.314 487.654 532.201 491.258 535.805L499.002 543.548C502.605 547.151 504.63 552.039 504.63 557.135V773.786C504.63 784.398 496.027 793.001 485.415 793.001H344.412C339.316 793.001 334.429 790.977 330.825 787.373L323.08 779.628C319.477 776.024 314.589 774 309.493 774H201.775C201.475 774 201.231 774.243 201.231 774.543C201.231 774.688 201.174 774.826 201.072 774.928L188.627 787.373C185.023 790.977 180.136 793.001 175.04 793.001H32.8448C22.2327 793.001 13.6299 784.398 13.6299 773.786V87.7053C13.6299 82.5687 15.6865 77.646 19.3406 74.036L75.5087 18.5466C79.1052 14.9935 83.9572 13.001 89.0128 13.001H485.415C496.027 13.001 504.63 21.6038 504.63 32.2159V249.41Z" fill="#898989" fill-opacity="0.05"/>
</g>
<path d="M75.5087 18.5466L76.5629 19.6137L75.5087 18.5466ZM19.3406 74.036L18.2864 72.9689L19.3406 74.036ZM188.627 787.373L189.688 788.434L188.627 787.373ZM201.072 774.928L200.012 773.867L201.072 774.928ZM323.08 779.628L324.141 778.567L323.08 779.628ZM330.825 787.373L329.765 788.434L330.825 787.373ZM491.258 535.805L490.198 536.865L491.258 535.805ZM491.258 270.741L492.318 271.802L491.258 270.741ZM499.002 262.997L497.941 261.936L499.002 262.997ZM499.002 262.997L497.941 261.936L490.197 269.681L491.258 270.741L492.318 271.802L500.063 264.058L499.002 262.997ZM485.63 284.328H484.13V522.217H485.63H487.13V284.328H485.63ZM491.258 535.805L490.198 536.865L497.941 544.609L499.002 543.548L500.062 542.487L492.319 534.744L491.258 535.805ZM504.63 557.135H503.13V773.786H504.63H506.13V557.135H504.63ZM485.415 793.001V791.501H344.412V793.001V794.501H485.415V793.001ZM330.825 787.373L331.886 786.312L324.141 778.567L323.08 779.628L322.019 780.689L329.765 788.434L330.825 787.373ZM309.493 774V772.5H201.775V774V775.5H309.493V774ZM201.072 774.928L200.012 773.867L187.566 786.312L188.627 787.373L189.688 788.434L202.133 775.988L201.072 774.928ZM175.04 793.001V791.501H32.8448V793.001V794.501H175.04V793.001ZM13.6299 773.786H15.1299V87.7053H13.6299H12.1299V773.786H13.6299ZM19.3406 74.036L20.3948 75.1031L76.5629 19.6137L75.5087 18.5466L74.4545 17.4795L18.2864 72.9689L19.3406 74.036ZM89.0128 13.001V14.501H485.415V13.001V11.501H89.0128V13.001ZM504.63 32.2159H503.13V249.41H504.63H506.13V32.2159H504.63ZM485.415 13.001V14.501C495.199 14.501 503.13 22.4322 503.13 32.2159H504.63H506.13C506.13 20.7754 496.856 11.501 485.415 11.501V13.001ZM75.5087 18.5466L76.5629 19.6137C79.8786 16.3379 84.3518 14.501 89.0128 14.501V13.001V11.501C83.5625 11.501 78.3318 13.649 74.4545 17.4795L75.5087 18.5466ZM13.6299 87.7053H15.1299C15.1299 82.9697 17.026 78.4312 20.3948 75.1031L19.3406 74.036L18.2864 72.9689C14.347 76.8607 12.1299 82.1677 12.1299 87.7053H13.6299ZM32.8448 793.001V791.501C23.0611 791.501 15.1299 783.57 15.1299 773.786H13.6299H12.1299C12.1299 785.227 21.4043 794.501 32.8448 794.501V793.001ZM188.627 787.373L187.566 786.312C184.244 789.635 179.738 791.501 175.04 791.501V793.001V794.501C180.534 794.501 185.803 792.319 189.688 788.434L188.627 787.373ZM201.231 774.543H199.731C199.731 774.29 199.832 774.046 200.012 773.867L201.072 774.928L202.133 775.988C202.516 775.605 202.731 775.085 202.731 774.543H201.231ZM201.775 774V772.5C200.646 772.5 199.731 773.415 199.731 774.543H201.231H202.731C202.731 775.072 202.303 775.5 201.775 775.5V774ZM323.08 779.628L324.141 778.567C320.256 774.682 314.987 772.5 309.493 772.5V774V775.5C314.191 775.5 318.697 777.366 322.019 780.689L323.08 779.628ZM344.412 793.001V791.501C339.714 791.501 335.208 789.635 331.886 786.312L330.825 787.373L329.765 788.434C333.649 792.319 338.918 794.501 344.412 794.501V793.001ZM504.63 773.786H503.13C503.13 783.57 495.199 791.501 485.415 791.501V793.001V794.501C496.855 794.501 506.13 785.227 506.13 773.786H504.63ZM499.002 543.548L497.941 544.609C501.263 547.931 503.13 552.437 503.13 557.135H504.63H506.13C506.13 551.641 503.947 546.372 500.062 542.487L499.002 543.548ZM485.63 522.217H484.13C484.13 527.711 486.312 532.981 490.198 536.865L491.258 535.805L492.319 534.744C488.996 531.422 487.13 526.916 487.13 522.217H485.63ZM491.258 270.741L490.197 269.681C486.312 273.565 484.13 278.834 484.13 284.328H485.63H487.13C487.13 279.63 488.996 275.124 492.318 271.802L491.258 270.741ZM499.002 262.997L500.063 264.058C503.947 260.173 506.13 254.904 506.13 249.41H504.63H503.13C503.13 254.108 501.263 258.614 497.941 261.936L499.002 262.997Z" fill="white" fill-opacity="0.01" mask="url(#path-1-inside-1_2056_1866)"/>
<path d="M75.5087 18.5466L76.5629 19.6137L75.5087 18.5466ZM19.3406 74.036L18.2864 72.9689L19.3406 74.036ZM188.627 787.373L189.688 788.434L188.627 787.373ZM201.072 774.928L200.012 773.867L201.072 774.928ZM323.08 779.628L324.141 778.567L323.08 779.628ZM330.825 787.373L329.765 788.434L330.825 787.373ZM491.258 535.805L490.198 536.865L491.258 535.805ZM491.258 270.741L492.318 271.802L491.258 270.741ZM499.002 262.997L497.941 261.936L499.002 262.997ZM499.002 262.997L497.941 261.936L490.197 269.681L491.258 270.741L492.318 271.802L500.063 264.058L499.002 262.997ZM485.63 284.328H484.13V522.217H485.63H487.13V284.328H485.63ZM491.258 535.805L490.198 536.865L497.941 544.609L499.002 543.548L500.062 542.487L492.319 534.744L491.258 535.805ZM504.63 557.135H503.13V773.786H504.63H506.13V557.135H504.63ZM485.415 793.001V791.501H344.412V793.001V794.501H485.415V793.001ZM330.825 787.373L331.886 786.312L324.141 778.567L323.08 779.628L322.019 780.689L329.765 788.434L330.825 787.373ZM309.493 774V772.5H201.775V774V775.5H309.493V774ZM201.072 774.928L200.012 773.867L187.566 786.312L188.627 787.373L189.688 788.434L202.133 775.988L201.072 774.928ZM175.04 793.001V791.501H32.8448V793.001V794.501H175.04V793.001ZM13.6299 773.786H15.1299V87.7053H13.6299H12.1299V773.786H13.6299ZM19.3406 74.036L20.3948 75.1031L76.5629 19.6137L75.5087 18.5466L74.4545 17.4795L18.2864 72.9689L19.3406 74.036ZM89.0128 13.001V14.501H485.415V13.001V11.501H89.0128V13.001ZM504.63 32.2159H503.13V249.41H504.63H506.13V32.2159H504.63ZM485.415 13.001V14.501C495.199 14.501 503.13 22.4322 503.13 32.2159H504.63H506.13C506.13 20.7754 496.856 11.501 485.415 11.501V13.001ZM75.5087 18.5466L76.5629 19.6137C79.8786 16.3379 84.3518 14.501 89.0128 14.501V13.001V11.501C83.5625 11.501 78.3318 13.649 74.4545 17.4795L75.5087 18.5466ZM13.6299 87.7053H15.1299C15.1299 82.9697 17.026 78.4312 20.3948 75.1031L19.3406 74.036L18.2864 72.9689C14.347 76.8607 12.1299 82.1677 12.1299 87.7053H13.6299ZM32.8448 793.001V791.501C23.0611 791.501 15.1299 783.57 15.1299 773.786H13.6299H12.1299C12.1299 785.227 21.4043 794.501 32.8448 794.501V793.001ZM188.627 787.373L187.566 786.312C184.244 789.635 179.738 791.501 175.04 791.501V793.001V794.501C180.534 794.501 185.803 792.319 189.688 788.434L188.627 787.373ZM201.231 774.543H199.731C199.731 774.29 199.832 774.046 200.012 773.867L201.072 774.928L202.133 775.988C202.516 775.605 202.731 775.085 202.731 774.543H201.231ZM201.775 774V772.5C200.646 772.5 199.731 773.415 199.731 774.543H201.231H202.731C202.731 775.072 202.303 775.5 201.775 775.5V774ZM323.08 779.628L324.141 778.567C320.256 774.682 314.987 772.5 309.493 772.5V774V775.5C314.191 775.5 318.697 777.366 322.019 780.689L323.08 779.628ZM344.412 793.001V791.501C339.714 791.501 335.208 789.635 331.886 786.312L330.825 787.373L329.765 788.434C333.649 792.319 338.918 794.501 344.412 794.501V793.001ZM504.63 773.786H503.13C503.13 783.57 495.199 791.501 485.415 791.501V793.001V794.501C496.855 794.501 506.13 785.227 506.13 773.786H504.63ZM499.002 543.548L497.941 544.609C501.263 547.931 503.13 552.437 503.13 557.135H504.63H506.13C506.13 551.641 503.947 546.372 500.062 542.487L499.002 543.548ZM485.63 522.217H484.13C484.13 527.711 486.312 532.981 490.198 536.865L491.258 535.805L492.319 534.744C488.996 531.422 487.13 526.916 487.13 522.217H485.63ZM491.258 270.741L490.197 269.681C486.312 273.565 484.13 278.834 484.13 284.328H485.63H487.13C487.13 279.63 488.996 275.124 492.318 271.802L491.258 270.741ZM499.002 262.997L500.063 264.058C503.947 260.173 506.13 254.904 506.13 249.41H504.63H503.13C503.13 254.108 501.263 258.614 497.941 261.936L499.002 262.997Z" fill="url(#paint0_linear_2056_1866)" fill-opacity="0.4" mask="url(#path-1-inside-1_2056_1866)"/>
<path d="M75.5087 18.5466L76.5629 19.6137L75.5087 18.5466ZM19.3406 74.036L18.2864 72.9689L19.3406 74.036ZM188.627 787.373L189.688 788.434L188.627 787.373ZM201.072 774.928L200.012 773.867L201.072 774.928ZM323.08 779.628L324.141 778.567L323.08 779.628ZM330.825 787.373L329.765 788.434L330.825 787.373ZM491.258 535.805L490.198 536.865L491.258 535.805ZM491.258 270.741L492.318 271.802L491.258 270.741ZM499.002 262.997L497.941 261.936L499.002 262.997ZM499.002 262.997L497.941 261.936L490.197 269.681L491.258 270.741L492.318 271.802L500.063 264.058L499.002 262.997ZM485.63 284.328H484.13V522.217H485.63H487.13V284.328H485.63ZM491.258 535.805L490.198 536.865L497.941 544.609L499.002 543.548L500.062 542.487L492.319 534.744L491.258 535.805ZM504.63 557.135H503.13V773.786H504.63H506.13V557.135H504.63ZM485.415 793.001V791.501H344.412V793.001V794.501H485.415V793.001ZM330.825 787.373L331.886 786.312L324.141 778.567L323.08 779.628L322.019 780.689L329.765 788.434L330.825 787.373ZM309.493 774V772.5H201.775V774V775.5H309.493V774ZM201.072 774.928L200.012 773.867L187.566 786.312L188.627 787.373L189.688 788.434L202.133 775.988L201.072 774.928ZM175.04 793.001V791.501H32.8448V793.001V794.501H175.04V793.001ZM13.6299 773.786H15.1299V87.7053H13.6299H12.1299V773.786H13.6299ZM19.3406 74.036L20.3948 75.1031L76.5629 19.6137L75.5087 18.5466L74.4545 17.4795L18.2864 72.9689L19.3406 74.036ZM89.0128 13.001V14.501H485.415V13.001V11.501H89.0128V13.001ZM504.63 32.2159H503.13V249.41H504.63H506.13V32.2159H504.63ZM485.415 13.001V14.501C495.199 14.501 503.13 22.4322 503.13 32.2159H504.63H506.13C506.13 20.7754 496.856 11.501 485.415 11.501V13.001ZM75.5087 18.5466L76.5629 19.6137C79.8786 16.3379 84.3518 14.501 89.0128 14.501V13.001V11.501C83.5625 11.501 78.3318 13.649 74.4545 17.4795L75.5087 18.5466ZM13.6299 87.7053H15.1299C15.1299 82.9697 17.026 78.4312 20.3948 75.1031L19.3406 74.036L18.2864 72.9689C14.347 76.8607 12.1299 82.1677 12.1299 87.7053H13.6299ZM32.8448 793.001V791.501C23.0611 791.501 15.1299 783.57 15.1299 773.786H13.6299H12.1299C12.1299 785.227 21.4043 794.501 32.8448 794.501V793.001ZM188.627 787.373L187.566 786.312C184.244 789.635 179.738 791.501 175.04 791.501V793.001V794.501C180.534 794.501 185.803 792.319 189.688 788.434L188.627 787.373ZM201.231 774.543H199.731C199.731 774.29 199.832 774.046 200.012 773.867L201.072 774.928L202.133 775.988C202.516 775.605 202.731 775.085 202.731 774.543H201.231ZM201.775 774V772.5C200.646 772.5 199.731 773.415 199.731 774.543H201.231H202.731C202.731 775.072 202.303 775.5 201.775 775.5V774ZM323.08 779.628L324.141 778.567C320.256 774.682 314.987 772.5 309.493 772.5V774V775.5C314.191 775.5 318.697 777.366 322.019 780.689L323.08 779.628ZM344.412 793.001V791.501C339.714 791.501 335.208 789.635 331.886 786.312L330.825 787.373L329.765 788.434C333.649 792.319 338.918 794.501 344.412 794.501V793.001ZM504.63 773.786H503.13C503.13 783.57 495.199 791.501 485.415 791.501V793.001V794.501C496.855 794.501 506.13 785.227 506.13 773.786H504.63ZM499.002 543.548L497.941 544.609C501.263 547.931 503.13 552.437 503.13 557.135H504.63H506.13C506.13 551.641 503.947 546.372 500.062 542.487L499.002 543.548ZM485.63 522.217H484.13C484.13 527.711 486.312 532.981 490.198 536.865L491.258 535.805L492.319 534.744C488.996 531.422 487.13 526.916 487.13 522.217H485.63ZM491.258 270.741L490.197 269.681C486.312 273.565 484.13 278.834 484.13 284.328H485.63H487.13C487.13 279.63 488.996 275.124 492.318 271.802L491.258 270.741ZM499.002 262.997L500.063 264.058C503.947 260.173 506.13 254.904 506.13 249.41H504.63H503.13C503.13 254.108 501.263 258.614 497.941 261.936L499.002 262.997Z" fill="url(#paint1_linear_2056_1866)" fill-opacity="0.3" mask="url(#path-1-inside-1_2056_1866)"/>
<path d="M75.5087 18.5466L76.5629 19.6137L75.5087 18.5466ZM19.3406 74.036L18.2864 72.9689L19.3406 74.036ZM188.627 787.373L189.688 788.434L188.627 787.373ZM201.072 774.928L200.012 773.867L201.072 774.928ZM323.08 779.628L324.141 778.567L323.08 779.628ZM330.825 787.373L329.765 788.434L330.825 787.373ZM491.258 535.805L490.198 536.865L491.258 535.805ZM491.258 270.741L492.318 271.802L491.258 270.741ZM499.002 262.997L497.941 261.936L499.002 262.997ZM499.002 262.997L497.941 261.936L490.197 269.681L491.258 270.741L492.318 271.802L500.063 264.058L499.002 262.997ZM485.63 284.328H484.13V522.217H485.63H487.13V284.328H485.63ZM491.258 535.805L490.198 536.865L497.941 544.609L499.002 543.548L500.062 542.487L492.319 534.744L491.258 535.805ZM504.63 557.135H503.13V773.786H504.63H506.13V557.135H504.63ZM485.415 793.001V791.501H344.412V793.001V794.501H485.415V793.001ZM330.825 787.373L331.886 786.312L324.141 778.567L323.08 779.628L322.019 780.689L329.765 788.434L330.825 787.373ZM309.493 774V772.5H201.775V774V775.5H309.493V774ZM201.072 774.928L200.012 773.867L187.566 786.312L188.627 787.373L189.688 788.434L202.133 775.988L201.072 774.928ZM175.04 793.001V791.501H32.8448V793.001V794.501H175.04V793.001ZM13.6299 773.786H15.1299V87.7053H13.6299H12.1299V773.786H13.6299ZM19.3406 74.036L20.3948 75.1031L76.5629 19.6137L75.5087 18.5466L74.4545 17.4795L18.2864 72.9689L19.3406 74.036ZM89.0128 13.001V14.501H485.415V13.001V11.501H89.0128V13.001ZM504.63 32.2159H503.13V249.41H504.63H506.13V32.2159H504.63ZM485.415 13.001V14.501C495.199 14.501 503.13 22.4322 503.13 32.2159H504.63H506.13C506.13 20.7754 496.856 11.501 485.415 11.501V13.001ZM75.5087 18.5466L76.5629 19.6137C79.8786 16.3379 84.3518 14.501 89.0128 14.501V13.001V11.501C83.5625 11.501 78.3318 13.649 74.4545 17.4795L75.5087 18.5466ZM13.6299 87.7053H15.1299C15.1299 82.9697 17.026 78.4312 20.3948 75.1031L19.3406 74.036L18.2864 72.9689C14.347 76.8607 12.1299 82.1677 12.1299 87.7053H13.6299ZM32.8448 793.001V791.501C23.0611 791.501 15.1299 783.57 15.1299 773.786H13.6299H12.1299C12.1299 785.227 21.4043 794.501 32.8448 794.501V793.001ZM188.627 787.373L187.566 786.312C184.244 789.635 179.738 791.501 175.04 791.501V793.001V794.501C180.534 794.501 185.803 792.319 189.688 788.434L188.627 787.373ZM201.231 774.543H199.731C199.731 774.29 199.832 774.046 200.012 773.867L201.072 774.928L202.133 775.988C202.516 775.605 202.731 775.085 202.731 774.543H201.231ZM201.775 774V772.5C200.646 772.5 199.731 773.415 199.731 774.543H201.231H202.731C202.731 775.072 202.303 775.5 201.775 775.5V774ZM323.08 779.628L324.141 778.567C320.256 774.682 314.987 772.5 309.493 772.5V774V775.5C314.191 775.5 318.697 777.366 322.019 780.689L323.08 779.628ZM344.412 793.001V791.501C339.714 791.501 335.208 789.635 331.886 786.312L330.825 787.373L329.765 788.434C333.649 792.319 338.918 794.501 344.412 794.501V793.001ZM504.63 773.786H503.13C503.13 783.57 495.199 791.501 485.415 791.501V793.001V794.501C496.855 794.501 506.13 785.227 506.13 773.786H504.63ZM499.002 543.548L497.941 544.609C501.263 547.931 503.13 552.437 503.13 557.135H504.63H506.13C506.13 551.641 503.947 546.372 500.062 542.487L499.002 543.548ZM485.63 522.217H484.13C484.13 527.711 486.312 532.981 490.198 536.865L491.258 535.805L492.319 534.744C488.996 531.422 487.13 526.916 487.13 522.217H485.63ZM491.258 270.741L490.197 269.681C486.312 273.565 484.13 278.834 484.13 284.328H485.63H487.13C487.13 279.63 488.996 275.124 492.318 271.802L491.258 270.741ZM499.002 262.997L500.063 264.058C503.947 260.173 506.13 254.904 506.13 249.41H504.63H503.13C503.13 254.108 501.263 258.614 497.941 261.936L499.002 262.997Z" fill="url(#paint2_linear_2056_1866)" fill-opacity="0.3" mask="url(#path-1-inside-1_2056_1866)"/>
<path d="M26.7512 430.07C27.3138 430.632 27.6299 431.395 27.6299 432.191V612.469C27.6299 613.265 27.3138 614.028 26.7512 614.591L14.8269 626.515C14.2643 627.078 13.9482 627.841 13.9482 628.636V681.626C13.9482 684.298 10.7168 685.637 8.82692 683.747L0.878681 675.799C0.316072 675.236 0 674.473 0 673.677V493.399C0 492.603 0.31607 491.84 0.87868 491.278L12.803 479.353C13.3656 478.791 13.6816 478.028 13.6816 477.232V424.243C13.6816 421.57 16.9131 420.232 18.803 422.122L26.7512 430.07Z" fill="#FF8E2A"/>
<path d="M75.6301 0.421916C75.6301 0.533815 75.5857 0.641131 75.5066 0.720256L1.2792 74.9476C1.24566 74.9812 1.20017 75 1.15273 75C1.05396 75 0.973886 75.0801 0.973886 75.1788V75.2477C0.973886 75.251 0.972543 75.2543 0.970163 75.2566C0.965204 75.2616 0.965204 75.2696 0.970163 75.2746C0.972543 75.277 0.973886 75.2802 0.973886 75.2836V139.195C0.973886 139.206 0.982172 139.214 0.992395 139.214C0.997415 139.214 1.00222 139.216 1.00572 139.22L9.79029 148.318C11.6644 150.259 14.9485 148.932 14.9485 146.234V139.227C14.9485 139.22 14.9542 139.214 14.9612 139.214C14.9682 139.214 14.9739 139.208 14.9739 139.201V82.2954C14.9739 81.4997 15.29 80.7367 15.8526 80.1741L81.1489 14.8777C81.7115 14.3151 82.4746 13.999 83.2702 13.999H142.787C142.794 13.999 142.8 13.9933 142.8 13.9863C142.8 13.9793 142.806 13.9736 142.813 13.9736H149.398C152.062 13.9736 153.404 10.7605 151.532 8.86535L142.805 0.0306491C142.802 0.0272801 142.8 0.0227351 142.8 0.0179995C142.8 0.00805866 142.792 0 142.782 0H76.052C75.819 0 75.6301 0.188898 75.6301 0.421916Z" fill="#FF8E2A"/>
<defs>
<filter id="filter0_i_2056_1866" x="13.6299" y="13.001" width="491" height="780" filterUnits="userSpaceOnUse" color-interpolation-filters="sRGB">
<feFlood flood-opacity="0" result="BackgroundImageFix"/>
<feBlend mode="normal" in="SourceGraphic" in2="BackgroundImageFix" result="shape"/>
<feColorMatrix in="SourceAlpha" type="matrix" values="0 0 0 0 0 0 0 0 0 0 0 0 0 0 0 0 0 0 127 0" result="hardAlpha"/>
<feOffset/>
<feGaussianBlur stdDeviation="42"/>
<feComposite in2="hardAlpha" operator="arithmetic" k2="-1" k3="1"/>
<feColorMatrix type="matrix" values="0 0 0 0 1 0 0 0 0 0.555539 0 0 0 0 0.166635 0 0 0 0.06 0"/>
<feBlend mode="normal" in2="shape" result="effect1_innerShadow_2056_1866"/>
</filter>
<linearGradient id="paint0_linear_2056_1866" x1="66.5583" y1="60.4321" x2="-154.011" y2="122.61" gradientUnits="userSpaceOnUse">
<stop stop-color="white" stop-opacity="0"/>
<stop offset="1" stop-color="#FF8E2A"/>
</linearGradient>
<linearGradient id="paint1_linear_2056_1866" x1="344.975" y1="94.5407" x2="410.565" y2="-154.703" gradientUnits="userSpaceOnUse">
<stop stop-color="white" stop-opacity="0"/>
<stop offset="1" stop-color="white"/>
</linearGradient>
<linearGradient id="paint2_linear_2056_1866" x1="350.831" y1="531.198" x2="390.807" y2="541.176" gradientUnits="userSpaceOnUse">
<stop stop-color="white" stop-opacity="0"/>
<stop offset="1" stop-color="white"/>
</linearGradient>
</defs>
</svg>
