<svg width="505" height="805" viewBox="0 0 505 805" fill="none" xmlns="http://www.w3.org/2000/svg">
<path fill-rule="evenodd" clip-rule="evenodd" d="M429.774 0.422607C429.774 0.534689 429.818 0.642181 429.898 0.721435L504.124 74.9474C504.157 74.9811 504.203 75 504.251 75C504.35 75 504.43 75.0804 504.43 75.1795V75.2491C504.43 75.2522 504.431 75.2551 504.434 75.2573C504.438 75.2619 504.438 75.2693 504.434 75.2739C504.431 75.2761 504.43 75.2791 504.43 75.2822V139.195C504.43 139.206 504.422 139.214 504.412 139.214C504.407 139.214 504.402 139.216 504.398 139.22L495.614 148.318C493.74 150.259 490.456 148.932 490.456 146.234V139.227C490.456 139.22 490.45 139.214 490.443 139.214C490.436 139.214 490.43 139.208 490.43 139.201V82.2964C490.43 81.5007 490.114 80.7376 489.551 80.175L424.254 14.8777C423.692 14.3151 422.928 13.999 422.133 13.999H362.617C362.61 13.999 362.604 13.9933 362.604 13.9863C362.604 13.9793 362.598 13.9736 362.591 13.9736H356.006C353.342 13.9736 352 10.7605 353.872 8.86535L362.599 0.0306491C362.602 0.0272801 362.604 0.0227351 362.604 0.0179995C362.604 0.00805866 362.612 0 362.622 0H429.351C429.585 0 429.774 0.189207 429.774 0.422607Z" fill="#FF8E2A"/>
<mask id="path-2-inside-1_2056_1868" fill="white">
<path d="M0 249.41C0 254.506 2.02441 259.394 5.62793 262.997L13.3721 270.741C16.9756 274.345 19 279.232 19 284.328V522.217C19 527.314 16.9754 532.201 13.3717 535.805L5.62827 543.548C2.02457 547.151 0 552.039 0 557.135V773.786C0 784.398 8.60281 793.001 19.2149 793.001H160.218C165.314 793.001 170.201 790.977 173.805 787.373L181.55 779.628C185.153 776.024 190.041 774 195.137 774H302.855C303.155 774 303.398 774.243 303.398 774.543C303.398 774.688 303.456 774.826 303.558 774.928L316.003 787.373C319.606 790.977 324.494 793.001 329.59 793.001H471.785C482.397 793.001 491 784.398 491 773.786V87.7053C491 82.5687 488.943 77.646 485.289 74.036L429.121 18.5466C425.525 14.9935 420.673 13.001 415.617 13.001H19.2149C8.60278 13.001 0 21.6038 0 32.2159V249.41Z"/>
</mask>
<g filter="url(#filter0_i_2056_1868)">
<path d="M0 249.41C0 254.506 2.02441 259.394 5.62793 262.997L13.3721 270.741C16.9756 274.345 19 279.232 19 284.328V522.217C19 527.314 16.9754 532.201 13.3717 535.805L5.62827 543.548C2.02457 547.151 0 552.039 0 557.135V773.786C0 784.398 8.60281 793.001 19.2149 793.001H160.218C165.314 793.001 170.201 790.977 173.805 787.373L181.55 779.628C185.153 776.024 190.041 774 195.137 774H302.855C303.155 774 303.398 774.243 303.398 774.543C303.398 774.688 303.456 774.826 303.558 774.928L316.003 787.373C319.606 790.977 324.494 793.001 329.59 793.001H471.785C482.397 793.001 491 784.398 491 773.786V87.7053C491 82.5687 488.943 77.646 485.289 74.036L429.121 18.5466C425.525 14.9935 420.673 13.001 415.617 13.001H19.2149C8.60278 13.001 0 21.6038 0 32.2159V249.41Z" fill="#898989" fill-opacity="0.05"/>
</g>
<path d="M429.121 18.5466L428.067 19.6137L429.121 18.5466ZM485.289 74.036L486.343 72.9689L485.289 74.036ZM316.003 787.373L314.942 788.434L316.003 787.373ZM303.558 774.928L304.618 773.867L303.558 774.928ZM181.55 779.628L180.489 778.567L181.55 779.628ZM173.805 787.373L174.865 788.434L173.805 787.373ZM13.3717 535.805L14.4324 536.865L13.3717 535.805ZM13.3721 270.741L12.3114 271.802L13.3721 270.741ZM5.62793 262.997L6.68857 261.936L5.62793 262.997ZM5.62793 262.997L6.68857 261.936L14.4327 269.681L13.3721 270.741L12.3114 271.802L4.56726 264.058L5.62793 262.997ZM19 284.328H20.5V522.217H19H17.5V284.328H19ZM13.3717 535.805L14.4324 536.865L6.6889 544.609L5.62827 543.548L4.56763 542.487L12.3111 534.744L13.3717 535.805ZM0 557.135H1.5V773.786H0H-1.5V557.135H0ZM19.2149 793.001V791.501H160.218V793.001V794.501H19.2149V793.001ZM173.805 787.373L172.744 786.312L180.489 778.567L181.55 779.628L182.61 780.689L174.865 788.434L173.805 787.373ZM195.137 774V772.5H302.855V774V775.5H195.137V774ZM303.558 774.928L304.618 773.867L317.064 786.312L316.003 787.373L314.942 788.434L302.497 775.988L303.558 774.928ZM329.59 793.001V791.501H471.785V793.001V794.501H329.59V793.001ZM491 773.786H489.5V87.7053H491H492.5V773.786H491ZM485.289 74.036L484.235 75.1031L428.067 19.6137L429.121 18.5466L430.175 17.4795L486.343 72.9689L485.289 74.036ZM415.617 13.001V14.501H19.2149V13.001V11.501H415.617V13.001ZM0 32.2159H1.5V249.41H0H-1.5V32.2159H0ZM19.2149 13.001V14.501C9.43121 14.501 1.5 22.4322 1.5 32.2159H0H-1.5C-1.5 20.7754 7.77435 11.501 19.2149 11.501V13.001ZM429.121 18.5466L428.067 19.6137C424.751 16.3379 420.278 14.501 415.617 14.501V13.001V11.501C421.067 11.501 426.298 13.649 430.175 17.4795L429.121 18.5466ZM491 87.7053H489.5C489.5 82.9697 487.604 78.4312 484.235 75.1031L485.289 74.036L486.343 72.9689C490.283 76.8607 492.5 82.1677 492.5 87.7053H491ZM471.785 793.001V791.501C481.569 791.501 489.5 783.57 489.5 773.786H491H492.5C492.5 785.227 483.226 794.501 471.785 794.501V793.001ZM316.003 787.373L317.064 786.312C320.386 789.635 324.892 791.501 329.59 791.501V793.001V794.501C324.096 794.501 318.827 792.319 314.942 788.434L316.003 787.373ZM303.398 774.543H304.898C304.898 774.29 304.798 774.046 304.618 773.867L303.558 774.928L302.497 775.988C302.114 775.605 301.898 775.085 301.898 774.543H303.398ZM302.855 774V772.5C303.984 772.5 304.898 773.415 304.898 774.543H303.398H301.898C301.898 775.072 302.327 775.5 302.855 775.5V774ZM181.55 779.628L180.489 778.567C184.374 774.682 189.643 772.5 195.137 772.5V774V775.5C190.439 775.5 185.933 777.366 182.61 780.689L181.55 779.628ZM160.218 793.001V791.501C164.916 791.501 169.422 789.635 172.744 786.312L173.805 787.373L174.865 788.434C170.981 792.319 165.712 794.501 160.218 794.501V793.001ZM0 773.786H1.5C1.5 783.57 9.43124 791.501 19.2149 791.501V793.001V794.501C7.77438 794.501 -1.5 785.227 -1.5 773.786H0ZM5.62827 543.548L6.6889 544.609C3.36652 547.931 1.5 552.437 1.5 557.135H0H-1.5C-1.5 551.641 0.682587 546.372 4.56763 542.487L5.62827 543.548ZM19 522.217H20.5C20.5 527.711 18.3174 532.981 14.4324 536.865L13.3717 535.805L12.3111 534.744C15.6335 531.422 17.5 526.916 17.5 522.217H19ZM13.3721 270.741L14.4327 269.681C18.3175 273.565 20.5 278.834 20.5 284.328H19H17.5C17.5 279.63 15.6336 275.124 12.3114 271.802L13.3721 270.741ZM5.62793 262.997L4.56726 264.058C0.682465 260.173 -1.5 254.904 -1.5 249.41H0H1.5C1.5 254.108 3.36639 258.614 6.68857 261.936L5.62793 262.997Z" fill="white" fill-opacity="0.01" mask="url(#path-2-inside-1_2056_1868)"/>
<path d="M429.121 18.5466L428.067 19.6137L429.121 18.5466ZM485.289 74.036L486.343 72.9689L485.289 74.036ZM316.003 787.373L314.942 788.434L316.003 787.373ZM303.558 774.928L304.618 773.867L303.558 774.928ZM181.55 779.628L180.489 778.567L181.55 779.628ZM173.805 787.373L174.865 788.434L173.805 787.373ZM13.3717 535.805L14.4324 536.865L13.3717 535.805ZM13.3721 270.741L12.3114 271.802L13.3721 270.741ZM5.62793 262.997L6.68857 261.936L5.62793 262.997ZM5.62793 262.997L6.68857 261.936L14.4327 269.681L13.3721 270.741L12.3114 271.802L4.56726 264.058L5.62793 262.997ZM19 284.328H20.5V522.217H19H17.5V284.328H19ZM13.3717 535.805L14.4324 536.865L6.6889 544.609L5.62827 543.548L4.56763 542.487L12.3111 534.744L13.3717 535.805ZM0 557.135H1.5V773.786H0H-1.5V557.135H0ZM19.2149 793.001V791.501H160.218V793.001V794.501H19.2149V793.001ZM173.805 787.373L172.744 786.312L180.489 778.567L181.55 779.628L182.61 780.689L174.865 788.434L173.805 787.373ZM195.137 774V772.5H302.855V774V775.5H195.137V774ZM303.558 774.928L304.618 773.867L317.064 786.312L316.003 787.373L314.942 788.434L302.497 775.988L303.558 774.928ZM329.59 793.001V791.501H471.785V793.001V794.501H329.59V793.001ZM491 773.786H489.5V87.7053H491H492.5V773.786H491ZM485.289 74.036L484.235 75.1031L428.067 19.6137L429.121 18.5466L430.175 17.4795L486.343 72.9689L485.289 74.036ZM415.617 13.001V14.501H19.2149V13.001V11.501H415.617V13.001ZM0 32.2159H1.5V249.41H0H-1.5V32.2159H0ZM19.2149 13.001V14.501C9.43121 14.501 1.5 22.4322 1.5 32.2159H0H-1.5C-1.5 20.7754 7.77435 11.501 19.2149 11.501V13.001ZM429.121 18.5466L428.067 19.6137C424.751 16.3379 420.278 14.501 415.617 14.501V13.001V11.501C421.067 11.501 426.298 13.649 430.175 17.4795L429.121 18.5466ZM491 87.7053H489.5C489.5 82.9697 487.604 78.4312 484.235 75.1031L485.289 74.036L486.343 72.9689C490.283 76.8607 492.5 82.1677 492.5 87.7053H491ZM471.785 793.001V791.501C481.569 791.501 489.5 783.57 489.5 773.786H491H492.5C492.5 785.227 483.226 794.501 471.785 794.501V793.001ZM316.003 787.373L317.064 786.312C320.386 789.635 324.892 791.501 329.59 791.501V793.001V794.501C324.096 794.501 318.827 792.319 314.942 788.434L316.003 787.373ZM303.398 774.543H304.898C304.898 774.29 304.798 774.046 304.618 773.867L303.558 774.928L302.497 775.988C302.114 775.605 301.898 775.085 301.898 774.543H303.398ZM302.855 774V772.5C303.984 772.5 304.898 773.415 304.898 774.543H303.398H301.898C301.898 775.072 302.327 775.5 302.855 775.5V774ZM181.55 779.628L180.489 778.567C184.374 774.682 189.643 772.5 195.137 772.5V774V775.5C190.439 775.5 185.933 777.366 182.61 780.689L181.55 779.628ZM160.218 793.001V791.501C164.916 791.501 169.422 789.635 172.744 786.312L173.805 787.373L174.865 788.434C170.981 792.319 165.712 794.501 160.218 794.501V793.001ZM0 773.786H1.5C1.5 783.57 9.43124 791.501 19.2149 791.501V793.001V794.501C7.77438 794.501 -1.5 785.227 -1.5 773.786H0ZM5.62827 543.548L6.6889 544.609C3.36652 547.931 1.5 552.437 1.5 557.135H0H-1.5C-1.5 551.641 0.682587 546.372 4.56763 542.487L5.62827 543.548ZM19 522.217H20.5C20.5 527.711 18.3174 532.981 14.4324 536.865L13.3717 535.805L12.3111 534.744C15.6335 531.422 17.5 526.916 17.5 522.217H19ZM13.3721 270.741L14.4327 269.681C18.3175 273.565 20.5 278.834 20.5 284.328H19H17.5C17.5 279.63 15.6336 275.124 12.3114 271.802L13.3721 270.741ZM5.62793 262.997L4.56726 264.058C0.682465 260.173 -1.5 254.904 -1.5 249.41H0H1.5C1.5 254.108 3.36639 258.614 6.68857 261.936L5.62793 262.997Z" fill="url(#paint0_linear_2056_1868)" fill-opacity="0.4" mask="url(#path-2-inside-1_2056_1868)"/>
<path d="M429.121 18.5466L428.067 19.6137L429.121 18.5466ZM485.289 74.036L486.343 72.9689L485.289 74.036ZM316.003 787.373L314.942 788.434L316.003 787.373ZM303.558 774.928L304.618 773.867L303.558 774.928ZM181.55 779.628L180.489 778.567L181.55 779.628ZM173.805 787.373L174.865 788.434L173.805 787.373ZM13.3717 535.805L14.4324 536.865L13.3717 535.805ZM13.3721 270.741L12.3114 271.802L13.3721 270.741ZM5.62793 262.997L6.68857 261.936L5.62793 262.997ZM5.62793 262.997L6.68857 261.936L14.4327 269.681L13.3721 270.741L12.3114 271.802L4.56726 264.058L5.62793 262.997ZM19 284.328H20.5V522.217H19H17.5V284.328H19ZM13.3717 535.805L14.4324 536.865L6.6889 544.609L5.62827 543.548L4.56763 542.487L12.3111 534.744L13.3717 535.805ZM0 557.135H1.5V773.786H0H-1.5V557.135H0ZM19.2149 793.001V791.501H160.218V793.001V794.501H19.2149V793.001ZM173.805 787.373L172.744 786.312L180.489 778.567L181.55 779.628L182.61 780.689L174.865 788.434L173.805 787.373ZM195.137 774V772.5H302.855V774V775.5H195.137V774ZM303.558 774.928L304.618 773.867L317.064 786.312L316.003 787.373L314.942 788.434L302.497 775.988L303.558 774.928ZM329.59 793.001V791.501H471.785V793.001V794.501H329.59V793.001ZM491 773.786H489.5V87.7053H491H492.5V773.786H491ZM485.289 74.036L484.235 75.1031L428.067 19.6137L429.121 18.5466L430.175 17.4795L486.343 72.9689L485.289 74.036ZM415.617 13.001V14.501H19.2149V13.001V11.501H415.617V13.001ZM0 32.2159H1.5V249.41H0H-1.5V32.2159H0ZM19.2149 13.001V14.501C9.43121 14.501 1.5 22.4322 1.5 32.2159H0H-1.5C-1.5 20.7754 7.77435 11.501 19.2149 11.501V13.001ZM429.121 18.5466L428.067 19.6137C424.751 16.3379 420.278 14.501 415.617 14.501V13.001V11.501C421.067 11.501 426.298 13.649 430.175 17.4795L429.121 18.5466ZM491 87.7053H489.5C489.5 82.9697 487.604 78.4312 484.235 75.1031L485.289 74.036L486.343 72.9689C490.283 76.8607 492.5 82.1677 492.5 87.7053H491ZM471.785 793.001V791.501C481.569 791.501 489.5 783.57 489.5 773.786H491H492.5C492.5 785.227 483.226 794.501 471.785 794.501V793.001ZM316.003 787.373L317.064 786.312C320.386 789.635 324.892 791.501 329.59 791.501V793.001V794.501C324.096 794.501 318.827 792.319 314.942 788.434L316.003 787.373ZM303.398 774.543H304.898C304.898 774.29 304.798 774.046 304.618 773.867L303.558 774.928L302.497 775.988C302.114 775.605 301.898 775.085 301.898 774.543H303.398ZM302.855 774V772.5C303.984 772.5 304.898 773.415 304.898 774.543H303.398H301.898C301.898 775.072 302.327 775.5 302.855 775.5V774ZM181.55 779.628L180.489 778.567C184.374 774.682 189.643 772.5 195.137 772.5V774V775.5C190.439 775.5 185.933 777.366 182.61 780.689L181.55 779.628ZM160.218 793.001V791.501C164.916 791.501 169.422 789.635 172.744 786.312L173.805 787.373L174.865 788.434C170.981 792.319 165.712 794.501 160.218 794.501V793.001ZM0 773.786H1.5C1.5 783.57 9.43124 791.501 19.2149 791.501V793.001V794.501C7.77438 794.501 -1.5 785.227 -1.5 773.786H0ZM5.62827 543.548L6.6889 544.609C3.36652 547.931 1.5 552.437 1.5 557.135H0H-1.5C-1.5 551.641 0.682587 546.372 4.56763 542.487L5.62827 543.548ZM19 522.217H20.5C20.5 527.711 18.3174 532.981 14.4324 536.865L13.3717 535.805L12.3111 534.744C15.6335 531.422 17.5 526.916 17.5 522.217H19ZM13.3721 270.741L14.4327 269.681C18.3175 273.565 20.5 278.834 20.5 284.328H19H17.5C17.5 279.63 15.6336 275.124 12.3114 271.802L13.3721 270.741ZM5.62793 262.997L4.56726 264.058C0.682465 260.173 -1.5 254.904 -1.5 249.41H0H1.5C1.5 254.108 3.36639 258.614 6.68857 261.936L5.62793 262.997Z" fill="url(#paint1_linear_2056_1868)" fill-opacity="0.3" mask="url(#path-2-inside-1_2056_1868)"/>
<path d="M429.121 18.5466L428.067 19.6137L429.121 18.5466ZM485.289 74.036L486.343 72.9689L485.289 74.036ZM316.003 787.373L314.942 788.434L316.003 787.373ZM303.558 774.928L304.618 773.867L303.558 774.928ZM181.55 779.628L180.489 778.567L181.55 779.628ZM173.805 787.373L174.865 788.434L173.805 787.373ZM13.3717 535.805L14.4324 536.865L13.3717 535.805ZM13.3721 270.741L12.3114 271.802L13.3721 270.741ZM5.62793 262.997L6.68857 261.936L5.62793 262.997ZM5.62793 262.997L6.68857 261.936L14.4327 269.681L13.3721 270.741L12.3114 271.802L4.56726 264.058L5.62793 262.997ZM19 284.328H20.5V522.217H19H17.5V284.328H19ZM13.3717 535.805L14.4324 536.865L6.6889 544.609L5.62827 543.548L4.56763 542.487L12.3111 534.744L13.3717 535.805ZM0 557.135H1.5V773.786H0H-1.5V557.135H0ZM19.2149 793.001V791.501H160.218V793.001V794.501H19.2149V793.001ZM173.805 787.373L172.744 786.312L180.489 778.567L181.55 779.628L182.61 780.689L174.865 788.434L173.805 787.373ZM195.137 774V772.5H302.855V774V775.5H195.137V774ZM303.558 774.928L304.618 773.867L317.064 786.312L316.003 787.373L314.942 788.434L302.497 775.988L303.558 774.928ZM329.59 793.001V791.501H471.785V793.001V794.501H329.59V793.001ZM491 773.786H489.5V87.7053H491H492.5V773.786H491ZM485.289 74.036L484.235 75.1031L428.067 19.6137L429.121 18.5466L430.175 17.4795L486.343 72.9689L485.289 74.036ZM415.617 13.001V14.501H19.2149V13.001V11.501H415.617V13.001ZM0 32.2159H1.5V249.41H0H-1.5V32.2159H0ZM19.2149 13.001V14.501C9.43121 14.501 1.5 22.4322 1.5 32.2159H0H-1.5C-1.5 20.7754 7.77435 11.501 19.2149 11.501V13.001ZM429.121 18.5466L428.067 19.6137C424.751 16.3379 420.278 14.501 415.617 14.501V13.001V11.501C421.067 11.501 426.298 13.649 430.175 17.4795L429.121 18.5466ZM491 87.7053H489.5C489.5 82.9697 487.604 78.4312 484.235 75.1031L485.289 74.036L486.343 72.9689C490.283 76.8607 492.5 82.1677 492.5 87.7053H491ZM471.785 793.001V791.501C481.569 791.501 489.5 783.57 489.5 773.786H491H492.5C492.5 785.227 483.226 794.501 471.785 794.501V793.001ZM316.003 787.373L317.064 786.312C320.386 789.635 324.892 791.501 329.59 791.501V793.001V794.501C324.096 794.501 318.827 792.319 314.942 788.434L316.003 787.373ZM303.398 774.543H304.898C304.898 774.29 304.798 774.046 304.618 773.867L303.558 774.928L302.497 775.988C302.114 775.605 301.898 775.085 301.898 774.543H303.398ZM302.855 774V772.5C303.984 772.5 304.898 773.415 304.898 774.543H303.398H301.898C301.898 775.072 302.327 775.5 302.855 775.5V774ZM181.55 779.628L180.489 778.567C184.374 774.682 189.643 772.5 195.137 772.5V774V775.5C190.439 775.5 185.933 777.366 182.61 780.689L181.55 779.628ZM160.218 793.001V791.501C164.916 791.501 169.422 789.635 172.744 786.312L173.805 787.373L174.865 788.434C170.981 792.319 165.712 794.501 160.218 794.501V793.001ZM0 773.786H1.5C1.5 783.57 9.43124 791.501 19.2149 791.501V793.001V794.501C7.77438 794.501 -1.5 785.227 -1.5 773.786H0ZM5.62827 543.548L6.6889 544.609C3.36652 547.931 1.5 552.437 1.5 557.135H0H-1.5C-1.5 551.641 0.682587 546.372 4.56763 542.487L5.62827 543.548ZM19 522.217H20.5C20.5 527.711 18.3174 532.981 14.4324 536.865L13.3717 535.805L12.3111 534.744C15.6335 531.422 17.5 526.916 17.5 522.217H19ZM13.3721 270.741L14.4327 269.681C18.3175 273.565 20.5 278.834 20.5 284.328H19H17.5C17.5 279.63 15.6336 275.124 12.3114 271.802L13.3721 270.741ZM5.62793 262.997L4.56726 264.058C0.682465 260.173 -1.5 254.904 -1.5 249.41H0H1.5C1.5 254.108 3.36639 258.614 6.68857 261.936L5.62793 262.997Z" fill="url(#paint2_linear_2056_1868)" fill-opacity="0.3" mask="url(#path-2-inside-1_2056_1868)"/>
<path d="M501.975 673.886C502.595 674.454 502.948 675.256 502.948 676.098V779.971C502.948 779.987 502.935 780 502.919 780C502.893 780 502.879 780.032 502.898 780.05L502.92 780.072C502.936 780.088 502.936 780.115 502.92 780.131L478.096 804.955C478.084 804.967 478.065 804.967 478.053 804.955L478.023 804.925C478.015 804.917 478 804.923 478 804.935C478 804.942 477.994 804.948 477.987 804.948H374.098C373.256 804.948 372.454 804.595 371.886 803.975L364.605 796.026C362.842 794.102 364.207 791 366.817 791H471.007C471.803 791 472.566 790.684 473.129 790.121L488.122 775.128C488.685 774.565 489.001 773.802 489.001 773.006V668.817C489.001 666.207 492.103 664.842 494.028 666.605L501.975 673.886Z" fill="#FF8E2A"/>
<defs>
<filter id="filter0_i_2056_1868" x="0" y="13.001" width="491" height="780" filterUnits="userSpaceOnUse" color-interpolation-filters="sRGB">
<feFlood flood-opacity="0" result="BackgroundImageFix"/>
<feBlend mode="normal" in="SourceGraphic" in2="BackgroundImageFix" result="shape"/>
<feColorMatrix in="SourceAlpha" type="matrix" values="0 0 0 0 0 0 0 0 0 0 0 0 0 0 0 0 0 0 127 0" result="hardAlpha"/>
<feOffset/>
<feGaussianBlur stdDeviation="42"/>
<feComposite in2="hardAlpha" operator="arithmetic" k2="-1" k3="1"/>
<feColorMatrix type="matrix" values="0 0 0 0 1 0 0 0 0 0.555539 0 0 0 0 0.166635 0 0 0 0.06 0"/>
<feBlend mode="normal" in2="shape" result="effect1_innerShadow_2056_1868"/>
</filter>
<linearGradient id="paint0_linear_2056_1868" x1="438.072" y1="60.4321" x2="658.64" y2="122.61" gradientUnits="userSpaceOnUse">
<stop stop-color="white" stop-opacity="0"/>
<stop offset="1" stop-color="#FF8E2A"/>
</linearGradient>
<linearGradient id="paint1_linear_2056_1868" x1="159.655" y1="94.5407" x2="94.0652" y2="-154.703" gradientUnits="userSpaceOnUse">
<stop stop-color="white" stop-opacity="0"/>
<stop offset="1" stop-color="white"/>
</linearGradient>
<linearGradient id="paint2_linear_2056_1868" x1="153.799" y1="531.198" x2="113.823" y2="541.176" gradientUnits="userSpaceOnUse">
<stop stop-color="white" stop-opacity="0"/>
<stop offset="1" stop-color="white"/>
</linearGradient>
</defs>
</svg>
