<svg width="491" height="794" viewBox="0 0 491 794" fill="none" xmlns="http://www.w3.org/2000/svg">
<mask id="path-1-inside-1_2056_1867" fill="white">
<path d="M5.71072 75.035C2.05661 78.645 0 83.5677 0 88.7043V250.409C0 255.505 2.02441 260.393 5.62793 263.996L13.3721 271.74C16.9756 275.344 19 280.231 19 285.327V523.216C19 528.313 16.9754 533.2 13.3717 536.804L5.62827 544.547C2.02457 548.15 0 553.038 0 558.134V774.785C0 785.397 8.60281 794 19.2149 794H160.218C165.314 794 170.201 791.976 173.805 788.372L181.55 780.627C185.153 777.023 190.041 774.999 195.137 774.999H303.329C303.367 774.999 303.398 775.03 303.398 775.069C303.398 775.087 303.406 775.105 303.419 775.118L316.673 788.372C320.276 791.976 325.164 794 330.26 794H471.785C482.397 794 491 785.397 491 774.785V558.134C491 553.038 488.975 548.15 485.372 544.547L477.628 536.804C474.025 533.2 472 528.313 472 523.216V285.327C472 280.231 474.024 275.344 477.628 271.74L485.372 263.996C488.976 260.393 491 255.505 491 250.409V88.7043C491 83.5677 488.943 78.645 485.289 75.035L429.12 19.5446C425.524 15.9915 420.672 13.999 415.616 13.999H75.3839C70.3282 13.999 65.4763 15.9915 61.8798 19.5446L5.71072 75.035Z"/>
</mask>
<g filter="url(#filter0_i_2056_1867)">
<path d="M5.71072 75.035C2.05661 78.645 0 83.5677 0 88.7043V250.409C0 255.505 2.02441 260.393 5.62793 263.996L13.3721 271.74C16.9756 275.344 19 280.231 19 285.327V523.216C19 528.313 16.9754 533.2 13.3717 536.804L5.62827 544.547C2.02457 548.15 0 553.038 0 558.134V774.785C0 785.397 8.60281 794 19.2149 794H160.218C165.314 794 170.201 791.976 173.805 788.372L181.55 780.627C185.153 777.023 190.041 774.999 195.137 774.999H303.329C303.367 774.999 303.398 775.03 303.398 775.069C303.398 775.087 303.406 775.105 303.419 775.118L316.673 788.372C320.276 791.976 325.164 794 330.26 794H471.785C482.397 794 491 785.397 491 774.785V558.134C491 553.038 488.975 548.15 485.372 544.547L477.628 536.804C474.025 533.2 472 528.313 472 523.216V285.327C472 280.231 474.024 275.344 477.628 271.74L485.372 263.996C488.976 260.393 491 255.505 491 250.409V88.7043C491 83.5677 488.943 78.645 485.289 75.035L429.12 19.5446C425.524 15.9915 420.672 13.999 415.616 13.999H75.3839C70.3282 13.999 65.4763 15.9915 61.8798 19.5446L5.71072 75.035Z" fill="#898989" fill-opacity="0.05"/>
</g>
<path d="M61.8798 19.5446L62.9339 20.6117L61.8798 19.5446ZM485.372 263.996L486.433 265.057L485.372 263.996ZM477.628 271.74L476.567 270.68L477.628 271.74ZM477.628 536.804L478.689 535.743L477.628 536.804ZM485.372 544.547L484.311 545.608L485.372 544.547ZM316.673 788.372L315.612 789.433L316.673 788.372ZM303.419 775.118L302.358 776.179L303.419 775.118ZM181.55 780.627L180.489 779.566L181.55 780.627ZM173.805 788.372L174.865 789.433L173.805 788.372ZM13.3717 536.804L14.4324 537.864L13.3717 536.804ZM13.3721 271.74L12.3114 272.801L13.3721 271.74ZM5.62793 263.996L6.68857 262.935L5.62793 263.996ZM5.71072 75.035L6.76492 76.1021L5.71072 75.035ZM0 88.7043H1.5V250.409H0H-1.5V88.7043H0ZM5.62793 263.996L6.68857 262.935L14.4327 270.68L13.3721 271.74L12.3114 272.801L4.56726 265.057L5.62793 263.996ZM19 285.327H20.5V523.216H19H17.5V285.327H19ZM13.3717 536.804L14.4324 537.864L6.6889 545.608L5.62827 544.547L4.56763 543.486L12.3111 535.743L13.3717 536.804ZM0 558.134H1.5V774.785H0H-1.5V558.134H0ZM19.2149 794V792.5H160.218V794V795.5H19.2149V794ZM173.805 788.372L172.744 787.311L180.489 779.566L181.55 780.627L182.61 781.688L174.865 789.433L173.805 788.372ZM195.137 774.999V773.499H303.329V774.999V776.499H195.137V774.999ZM303.419 775.118L304.48 774.057L317.734 787.311L316.673 788.372L315.612 789.433L302.358 776.179L303.419 775.118ZM330.26 794V792.5H471.785V794V795.5H330.26V794ZM491 774.785H489.5V558.134H491H492.5V774.785H491ZM485.372 544.547L484.311 545.608L476.568 537.864L477.628 536.804L478.689 535.743L486.432 543.486L485.372 544.547ZM472 523.216H470.5V285.327H472H473.5V523.216H472ZM477.628 271.74L476.567 270.68L484.311 262.935L485.372 263.996L486.433 265.057L478.689 272.801L477.628 271.74ZM491 250.409H489.5V88.7043H491H492.5V250.409H491ZM485.289 75.035L484.235 76.1021L428.066 20.6117L429.12 19.5446L430.174 18.4775L486.343 73.9679L485.289 75.035ZM415.616 13.999V15.499H75.3839V13.999V12.499H415.616V13.999ZM61.8798 19.5446L62.9339 20.6117L6.76492 76.1021L5.71072 75.035L4.65656 73.9679L60.8256 18.4775L61.8798 19.5446ZM75.3839 13.999V15.499C70.7229 15.499 66.2497 17.336 62.9339 20.6117L61.8798 19.5446L60.8256 18.4775C64.7029 14.6471 69.9336 12.499 75.3839 12.499V13.999ZM429.12 19.5446L428.066 20.6117C424.75 17.336 420.277 15.499 415.616 15.499V13.999V12.499C421.066 12.499 426.297 14.6471 430.174 18.4775L429.12 19.5446ZM491 88.7043H489.5C489.5 83.9687 487.604 79.4303 484.235 76.1021L485.289 75.035L486.343 73.9679C490.283 77.8597 492.5 83.1668 492.5 88.7043H491ZM485.372 263.996L484.311 262.935C487.634 259.613 489.5 255.107 489.5 250.409H491H492.5C492.5 255.903 490.318 261.172 486.433 265.057L485.372 263.996ZM472 285.327H470.5C470.5 279.833 472.682 274.564 476.567 270.68L477.628 271.74L478.689 272.801C475.366 276.123 473.5 280.629 473.5 285.327H472ZM477.628 536.804L476.568 537.864C472.683 533.98 470.5 528.711 470.5 523.216H472H473.5C473.5 527.915 475.367 532.421 478.689 535.743L477.628 536.804ZM491 558.134H489.5C489.5 553.436 487.633 548.93 484.311 545.608L485.372 544.547L486.432 543.486C490.317 547.371 492.5 552.64 492.5 558.134H491ZM471.785 794V792.5C481.569 792.5 489.5 784.569 489.5 774.785H491H492.5C492.5 786.226 483.226 795.5 471.785 795.5V794ZM316.673 788.372L317.734 787.311C321.056 790.634 325.562 792.5 330.26 792.5V794V795.5C324.766 795.5 319.497 793.318 315.612 789.433L316.673 788.372ZM303.398 775.069H304.898C304.898 774.689 304.748 774.326 304.48 774.057L303.419 775.118L302.358 776.179C302.064 775.884 301.898 775.485 301.898 775.069H303.398ZM303.329 774.999V773.499C304.196 773.499 304.898 774.202 304.898 775.069H303.398H301.898C301.898 775.858 302.539 776.499 303.329 776.499V774.999ZM181.55 780.627L180.489 779.566C184.374 775.681 189.643 773.499 195.137 773.499V774.999V776.499C190.439 776.499 185.933 778.365 182.61 781.688L181.55 780.627ZM160.218 794V792.5C164.916 792.5 169.422 790.634 172.744 787.311L173.805 788.372L174.865 789.433C170.981 793.318 165.712 795.5 160.218 795.5V794ZM0 774.785H1.5C1.5 784.569 9.43124 792.5 19.2149 792.5V794V795.5C7.77438 795.5 -1.5 786.226 -1.5 774.785H0ZM5.62827 544.547L6.6889 545.608C3.36652 548.93 1.5 553.436 1.5 558.134H0H-1.5C-1.5 552.64 0.682587 547.371 4.56763 543.486L5.62827 544.547ZM19 523.216H20.5C20.5 528.711 18.3174 533.98 14.4324 537.864L13.3717 536.804L12.3111 535.743C15.6335 532.421 17.5 527.915 17.5 523.216H19ZM13.3721 271.74L14.4327 270.68C18.3175 274.564 20.5 279.833 20.5 285.327H19H17.5C17.5 280.629 15.6336 276.123 12.3114 272.801L13.3721 271.74ZM0 250.409H1.5C1.5 255.107 3.36639 259.613 6.68857 262.935L5.62793 263.996L4.56726 265.057C0.682465 261.172 -1.5 255.903 -1.5 250.409H0ZM0 88.7043H-1.5C-1.5 83.1668 0.717163 77.8597 4.65656 73.9679L5.71072 75.035L6.76492 76.1021C3.39606 79.4303 1.5 83.9687 1.5 88.7043H0Z" fill="white" fill-opacity="0.01" mask="url(#path-1-inside-1_2056_1867)"/>
<path d="M61.8798 19.5446L62.9339 20.6117L61.8798 19.5446ZM485.372 263.996L486.433 265.057L485.372 263.996ZM477.628 271.74L476.567 270.68L477.628 271.74ZM477.628 536.804L478.689 535.743L477.628 536.804ZM485.372 544.547L484.311 545.608L485.372 544.547ZM316.673 788.372L315.612 789.433L316.673 788.372ZM303.419 775.118L302.358 776.179L303.419 775.118ZM181.55 780.627L180.489 779.566L181.55 780.627ZM173.805 788.372L174.865 789.433L173.805 788.372ZM13.3717 536.804L14.4324 537.864L13.3717 536.804ZM13.3721 271.74L12.3114 272.801L13.3721 271.74ZM5.62793 263.996L6.68857 262.935L5.62793 263.996ZM5.71072 75.035L6.76492 76.1021L5.71072 75.035ZM0 88.7043H1.5V250.409H0H-1.5V88.7043H0ZM5.62793 263.996L6.68857 262.935L14.4327 270.68L13.3721 271.74L12.3114 272.801L4.56726 265.057L5.62793 263.996ZM19 285.327H20.5V523.216H19H17.5V285.327H19ZM13.3717 536.804L14.4324 537.864L6.6889 545.608L5.62827 544.547L4.56763 543.486L12.3111 535.743L13.3717 536.804ZM0 558.134H1.5V774.785H0H-1.5V558.134H0ZM19.2149 794V792.5H160.218V794V795.5H19.2149V794ZM173.805 788.372L172.744 787.311L180.489 779.566L181.55 780.627L182.61 781.688L174.865 789.433L173.805 788.372ZM195.137 774.999V773.499H303.329V774.999V776.499H195.137V774.999ZM303.419 775.118L304.48 774.057L317.734 787.311L316.673 788.372L315.612 789.433L302.358 776.179L303.419 775.118ZM330.26 794V792.5H471.785V794V795.5H330.26V794ZM491 774.785H489.5V558.134H491H492.5V774.785H491ZM485.372 544.547L484.311 545.608L476.568 537.864L477.628 536.804L478.689 535.743L486.432 543.486L485.372 544.547ZM472 523.216H470.5V285.327H472H473.5V523.216H472ZM477.628 271.74L476.567 270.68L484.311 262.935L485.372 263.996L486.433 265.057L478.689 272.801L477.628 271.74ZM491 250.409H489.5V88.7043H491H492.5V250.409H491ZM485.289 75.035L484.235 76.1021L428.066 20.6117L429.12 19.5446L430.174 18.4775L486.343 73.9679L485.289 75.035ZM415.616 13.999V15.499H75.3839V13.999V12.499H415.616V13.999ZM61.8798 19.5446L62.9339 20.6117L6.76492 76.1021L5.71072 75.035L4.65656 73.9679L60.8256 18.4775L61.8798 19.5446ZM75.3839 13.999V15.499C70.7229 15.499 66.2497 17.336 62.9339 20.6117L61.8798 19.5446L60.8256 18.4775C64.7029 14.6471 69.9336 12.499 75.3839 12.499V13.999ZM429.12 19.5446L428.066 20.6117C424.75 17.336 420.277 15.499 415.616 15.499V13.999V12.499C421.066 12.499 426.297 14.6471 430.174 18.4775L429.12 19.5446ZM491 88.7043H489.5C489.5 83.9687 487.604 79.4303 484.235 76.1021L485.289 75.035L486.343 73.9679C490.283 77.8597 492.5 83.1668 492.5 88.7043H491ZM485.372 263.996L484.311 262.935C487.634 259.613 489.5 255.107 489.5 250.409H491H492.5C492.5 255.903 490.318 261.172 486.433 265.057L485.372 263.996ZM472 285.327H470.5C470.5 279.833 472.682 274.564 476.567 270.68L477.628 271.74L478.689 272.801C475.366 276.123 473.5 280.629 473.5 285.327H472ZM477.628 536.804L476.568 537.864C472.683 533.98 470.5 528.711 470.5 523.216H472H473.5C473.5 527.915 475.367 532.421 478.689 535.743L477.628 536.804ZM491 558.134H489.5C489.5 553.436 487.633 548.93 484.311 545.608L485.372 544.547L486.432 543.486C490.317 547.371 492.5 552.64 492.5 558.134H491ZM471.785 794V792.5C481.569 792.5 489.5 784.569 489.5 774.785H491H492.5C492.5 786.226 483.226 795.5 471.785 795.5V794ZM316.673 788.372L317.734 787.311C321.056 790.634 325.562 792.5 330.26 792.5V794V795.5C324.766 795.5 319.497 793.318 315.612 789.433L316.673 788.372ZM303.398 775.069H304.898C304.898 774.689 304.748 774.326 304.48 774.057L303.419 775.118L302.358 776.179C302.064 775.884 301.898 775.485 301.898 775.069H303.398ZM303.329 774.999V773.499C304.196 773.499 304.898 774.202 304.898 775.069H303.398H301.898C301.898 775.858 302.539 776.499 303.329 776.499V774.999ZM181.55 780.627L180.489 779.566C184.374 775.681 189.643 773.499 195.137 773.499V774.999V776.499C190.439 776.499 185.933 778.365 182.61 781.688L181.55 780.627ZM160.218 794V792.5C164.916 792.5 169.422 790.634 172.744 787.311L173.805 788.372L174.865 789.433C170.981 793.318 165.712 795.5 160.218 795.5V794ZM0 774.785H1.5C1.5 784.569 9.43124 792.5 19.2149 792.5V794V795.5C7.77438 795.5 -1.5 786.226 -1.5 774.785H0ZM5.62827 544.547L6.6889 545.608C3.36652 548.93 1.5 553.436 1.5 558.134H0H-1.5C-1.5 552.64 0.682587 547.371 4.56763 543.486L5.62827 544.547ZM19 523.216H20.5C20.5 528.711 18.3174 533.98 14.4324 537.864L13.3717 536.804L12.3111 535.743C15.6335 532.421 17.5 527.915 17.5 523.216H19ZM13.3721 271.74L14.4327 270.68C18.3175 274.564 20.5 279.833 20.5 285.327H19H17.5C17.5 280.629 15.6336 276.123 12.3114 272.801L13.3721 271.74ZM0 250.409H1.5C1.5 255.107 3.36639 259.613 6.68857 262.935L5.62793 263.996L4.56726 265.057C0.682465 261.172 -1.5 255.903 -1.5 250.409H0ZM0 88.7043H-1.5C-1.5 83.1668 0.717163 77.8597 4.65656 73.9679L5.71072 75.035L6.76492 76.1021C3.39606 79.4303 1.5 83.9687 1.5 88.7043H0Z" fill="url(#paint0_linear_2056_1867)" fill-opacity="0.2" mask="url(#path-1-inside-1_2056_1867)"/>
<path d="M61.8798 19.5446L62.9339 20.6117L61.8798 19.5446ZM485.372 263.996L486.433 265.057L485.372 263.996ZM477.628 271.74L476.567 270.68L477.628 271.74ZM477.628 536.804L478.689 535.743L477.628 536.804ZM485.372 544.547L484.311 545.608L485.372 544.547ZM316.673 788.372L315.612 789.433L316.673 788.372ZM303.419 775.118L302.358 776.179L303.419 775.118ZM181.55 780.627L180.489 779.566L181.55 780.627ZM173.805 788.372L174.865 789.433L173.805 788.372ZM13.3717 536.804L14.4324 537.864L13.3717 536.804ZM13.3721 271.74L12.3114 272.801L13.3721 271.74ZM5.62793 263.996L6.68857 262.935L5.62793 263.996ZM5.71072 75.035L6.76492 76.1021L5.71072 75.035ZM0 88.7043H1.5V250.409H0H-1.5V88.7043H0ZM5.62793 263.996L6.68857 262.935L14.4327 270.68L13.3721 271.74L12.3114 272.801L4.56726 265.057L5.62793 263.996ZM19 285.327H20.5V523.216H19H17.5V285.327H19ZM13.3717 536.804L14.4324 537.864L6.6889 545.608L5.62827 544.547L4.56763 543.486L12.3111 535.743L13.3717 536.804ZM0 558.134H1.5V774.785H0H-1.5V558.134H0ZM19.2149 794V792.5H160.218V794V795.5H19.2149V794ZM173.805 788.372L172.744 787.311L180.489 779.566L181.55 780.627L182.61 781.688L174.865 789.433L173.805 788.372ZM195.137 774.999V773.499H303.329V774.999V776.499H195.137V774.999ZM303.419 775.118L304.48 774.057L317.734 787.311L316.673 788.372L315.612 789.433L302.358 776.179L303.419 775.118ZM330.26 794V792.5H471.785V794V795.5H330.26V794ZM491 774.785H489.5V558.134H491H492.5V774.785H491ZM485.372 544.547L484.311 545.608L476.568 537.864L477.628 536.804L478.689 535.743L486.432 543.486L485.372 544.547ZM472 523.216H470.5V285.327H472H473.5V523.216H472ZM477.628 271.74L476.567 270.68L484.311 262.935L485.372 263.996L486.433 265.057L478.689 272.801L477.628 271.74ZM491 250.409H489.5V88.7043H491H492.5V250.409H491ZM485.289 75.035L484.235 76.1021L428.066 20.6117L429.12 19.5446L430.174 18.4775L486.343 73.9679L485.289 75.035ZM415.616 13.999V15.499H75.3839V13.999V12.499H415.616V13.999ZM61.8798 19.5446L62.9339 20.6117L6.76492 76.1021L5.71072 75.035L4.65656 73.9679L60.8256 18.4775L61.8798 19.5446ZM75.3839 13.999V15.499C70.7229 15.499 66.2497 17.336 62.9339 20.6117L61.8798 19.5446L60.8256 18.4775C64.7029 14.6471 69.9336 12.499 75.3839 12.499V13.999ZM429.12 19.5446L428.066 20.6117C424.75 17.336 420.277 15.499 415.616 15.499V13.999V12.499C421.066 12.499 426.297 14.6471 430.174 18.4775L429.12 19.5446ZM491 88.7043H489.5C489.5 83.9687 487.604 79.4303 484.235 76.1021L485.289 75.035L486.343 73.9679C490.283 77.8597 492.5 83.1668 492.5 88.7043H491ZM485.372 263.996L484.311 262.935C487.634 259.613 489.5 255.107 489.5 250.409H491H492.5C492.5 255.903 490.318 261.172 486.433 265.057L485.372 263.996ZM472 285.327H470.5C470.5 279.833 472.682 274.564 476.567 270.68L477.628 271.74L478.689 272.801C475.366 276.123 473.5 280.629 473.5 285.327H472ZM477.628 536.804L476.568 537.864C472.683 533.98 470.5 528.711 470.5 523.216H472H473.5C473.5 527.915 475.367 532.421 478.689 535.743L477.628 536.804ZM491 558.134H489.5C489.5 553.436 487.633 548.93 484.311 545.608L485.372 544.547L486.432 543.486C490.317 547.371 492.5 552.64 492.5 558.134H491ZM471.785 794V792.5C481.569 792.5 489.5 784.569 489.5 774.785H491H492.5C492.5 786.226 483.226 795.5 471.785 795.5V794ZM316.673 788.372L317.734 787.311C321.056 790.634 325.562 792.5 330.26 792.5V794V795.5C324.766 795.5 319.497 793.318 315.612 789.433L316.673 788.372ZM303.398 775.069H304.898C304.898 774.689 304.748 774.326 304.48 774.057L303.419 775.118L302.358 776.179C302.064 775.884 301.898 775.485 301.898 775.069H303.398ZM303.329 774.999V773.499C304.196 773.499 304.898 774.202 304.898 775.069H303.398H301.898C301.898 775.858 302.539 776.499 303.329 776.499V774.999ZM181.55 780.627L180.489 779.566C184.374 775.681 189.643 773.499 195.137 773.499V774.999V776.499C190.439 776.499 185.933 778.365 182.61 781.688L181.55 780.627ZM160.218 794V792.5C164.916 792.5 169.422 790.634 172.744 787.311L173.805 788.372L174.865 789.433C170.981 793.318 165.712 795.5 160.218 795.5V794ZM0 774.785H1.5C1.5 784.569 9.43124 792.5 19.2149 792.5V794V795.5C7.77438 795.5 -1.5 786.226 -1.5 774.785H0ZM5.62827 544.547L6.6889 545.608C3.36652 548.93 1.5 553.436 1.5 558.134H0H-1.5C-1.5 552.64 0.682587 547.371 4.56763 543.486L5.62827 544.547ZM19 523.216H20.5C20.5 528.711 18.3174 533.98 14.4324 537.864L13.3717 536.804L12.3111 535.743C15.6335 532.421 17.5 527.915 17.5 523.216H19ZM13.3721 271.74L14.4327 270.68C18.3175 274.564 20.5 279.833 20.5 285.327H19H17.5C17.5 280.629 15.6336 276.123 12.3114 272.801L13.3721 271.74ZM0 250.409H1.5C1.5 255.107 3.36639 259.613 6.68857 262.935L5.62793 263.996L4.56726 265.057C0.682465 261.172 -1.5 255.903 -1.5 250.409H0ZM0 88.7043H-1.5C-1.5 83.1668 0.717163 77.8597 4.65656 73.9679L5.71072 75.035L6.76492 76.1021C3.39606 79.4303 1.5 83.9687 1.5 88.7043H0Z" fill="url(#paint1_linear_2056_1867)" fill-opacity="0.3" mask="url(#path-1-inside-1_2056_1867)"/>
<path d="M61.8798 19.5446L62.9339 20.6117L61.8798 19.5446ZM485.372 263.996L486.433 265.057L485.372 263.996ZM477.628 271.74L476.567 270.68L477.628 271.74ZM477.628 536.804L478.689 535.743L477.628 536.804ZM485.372 544.547L484.311 545.608L485.372 544.547ZM316.673 788.372L315.612 789.433L316.673 788.372ZM303.419 775.118L302.358 776.179L303.419 775.118ZM181.55 780.627L180.489 779.566L181.55 780.627ZM173.805 788.372L174.865 789.433L173.805 788.372ZM13.3717 536.804L14.4324 537.864L13.3717 536.804ZM13.3721 271.74L12.3114 272.801L13.3721 271.74ZM5.62793 263.996L6.68857 262.935L5.62793 263.996ZM5.71072 75.035L6.76492 76.1021L5.71072 75.035ZM0 88.7043H1.5V250.409H0H-1.5V88.7043H0ZM5.62793 263.996L6.68857 262.935L14.4327 270.68L13.3721 271.74L12.3114 272.801L4.56726 265.057L5.62793 263.996ZM19 285.327H20.5V523.216H19H17.5V285.327H19ZM13.3717 536.804L14.4324 537.864L6.6889 545.608L5.62827 544.547L4.56763 543.486L12.3111 535.743L13.3717 536.804ZM0 558.134H1.5V774.785H0H-1.5V558.134H0ZM19.2149 794V792.5H160.218V794V795.5H19.2149V794ZM173.805 788.372L172.744 787.311L180.489 779.566L181.55 780.627L182.61 781.688L174.865 789.433L173.805 788.372ZM195.137 774.999V773.499H303.329V774.999V776.499H195.137V774.999ZM303.419 775.118L304.48 774.057L317.734 787.311L316.673 788.372L315.612 789.433L302.358 776.179L303.419 775.118ZM330.26 794V792.5H471.785V794V795.5H330.26V794ZM491 774.785H489.5V558.134H491H492.5V774.785H491ZM485.372 544.547L484.311 545.608L476.568 537.864L477.628 536.804L478.689 535.743L486.432 543.486L485.372 544.547ZM472 523.216H470.5V285.327H472H473.5V523.216H472ZM477.628 271.74L476.567 270.68L484.311 262.935L485.372 263.996L486.433 265.057L478.689 272.801L477.628 271.74ZM491 250.409H489.5V88.7043H491H492.5V250.409H491ZM485.289 75.035L484.235 76.1021L428.066 20.6117L429.12 19.5446L430.174 18.4775L486.343 73.9679L485.289 75.035ZM415.616 13.999V15.499H75.3839V13.999V12.499H415.616V13.999ZM61.8798 19.5446L62.9339 20.6117L6.76492 76.1021L5.71072 75.035L4.65656 73.9679L60.8256 18.4775L61.8798 19.5446ZM75.3839 13.999V15.499C70.7229 15.499 66.2497 17.336 62.9339 20.6117L61.8798 19.5446L60.8256 18.4775C64.7029 14.6471 69.9336 12.499 75.3839 12.499V13.999ZM429.12 19.5446L428.066 20.6117C424.75 17.336 420.277 15.499 415.616 15.499V13.999V12.499C421.066 12.499 426.297 14.6471 430.174 18.4775L429.12 19.5446ZM491 88.7043H489.5C489.5 83.9687 487.604 79.4303 484.235 76.1021L485.289 75.035L486.343 73.9679C490.283 77.8597 492.5 83.1668 492.5 88.7043H491ZM485.372 263.996L484.311 262.935C487.634 259.613 489.5 255.107 489.5 250.409H491H492.5C492.5 255.903 490.318 261.172 486.433 265.057L485.372 263.996ZM472 285.327H470.5C470.5 279.833 472.682 274.564 476.567 270.68L477.628 271.74L478.689 272.801C475.366 276.123 473.5 280.629 473.5 285.327H472ZM477.628 536.804L476.568 537.864C472.683 533.98 470.5 528.711 470.5 523.216H472H473.5C473.5 527.915 475.367 532.421 478.689 535.743L477.628 536.804ZM491 558.134H489.5C489.5 553.436 487.633 548.93 484.311 545.608L485.372 544.547L486.432 543.486C490.317 547.371 492.5 552.64 492.5 558.134H491ZM471.785 794V792.5C481.569 792.5 489.5 784.569 489.5 774.785H491H492.5C492.5 786.226 483.226 795.5 471.785 795.5V794ZM316.673 788.372L317.734 787.311C321.056 790.634 325.562 792.5 330.26 792.5V794V795.5C324.766 795.5 319.497 793.318 315.612 789.433L316.673 788.372ZM303.398 775.069H304.898C304.898 774.689 304.748 774.326 304.48 774.057L303.419 775.118L302.358 776.179C302.064 775.884 301.898 775.485 301.898 775.069H303.398ZM303.329 774.999V773.499C304.196 773.499 304.898 774.202 304.898 775.069H303.398H301.898C301.898 775.858 302.539 776.499 303.329 776.499V774.999ZM181.55 780.627L180.489 779.566C184.374 775.681 189.643 773.499 195.137 773.499V774.999V776.499C190.439 776.499 185.933 778.365 182.61 781.688L181.55 780.627ZM160.218 794V792.5C164.916 792.5 169.422 790.634 172.744 787.311L173.805 788.372L174.865 789.433C170.981 793.318 165.712 795.5 160.218 795.5V794ZM0 774.785H1.5C1.5 784.569 9.43124 792.5 19.2149 792.5V794V795.5C7.77438 795.5 -1.5 786.226 -1.5 774.785H0ZM5.62827 544.547L6.6889 545.608C3.36652 548.93 1.5 553.436 1.5 558.134H0H-1.5C-1.5 552.64 0.682587 547.371 4.56763 543.486L5.62827 544.547ZM19 523.216H20.5C20.5 528.711 18.3174 533.98 14.4324 537.864L13.3717 536.804L12.3111 535.743C15.6335 532.421 17.5 527.915 17.5 523.216H19ZM13.3721 271.74L14.4327 270.68C18.3175 274.564 20.5 279.833 20.5 285.327H19H17.5C17.5 280.629 15.6336 276.123 12.3114 272.801L13.3721 271.74ZM0 250.409H1.5C1.5 255.107 3.36639 259.613 6.68857 262.935L5.62793 263.996L4.56726 265.057C0.682465 261.172 -1.5 255.903 -1.5 250.409H0ZM0 88.7043H-1.5C-1.5 83.1668 0.717163 77.8597 4.65656 73.9679L5.71072 75.035L6.76492 76.1021C3.39606 79.4303 1.5 83.9687 1.5 88.7043H0Z" fill="url(#paint2_linear_2056_1867)" fill-opacity="0.3" mask="url(#path-1-inside-1_2056_1867)"/>
<path d="M337.712 0H154.948L141 13.9482H351.66L337.712 0Z" fill="#FF8E2A"/>
<defs>
<filter id="filter0_i_2056_1867" x="0" y="13.999" width="491" height="780.001" filterUnits="userSpaceOnUse" color-interpolation-filters="sRGB">
<feFlood flood-opacity="0" result="BackgroundImageFix"/>
<feBlend mode="normal" in="SourceGraphic" in2="BackgroundImageFix" result="shape"/>
<feColorMatrix in="SourceAlpha" type="matrix" values="0 0 0 0 0 0 0 0 0 0 0 0 0 0 0 0 0 0 127 0" result="hardAlpha"/>
<feOffset/>
<feGaussianBlur stdDeviation="42"/>
<feComposite in2="hardAlpha" operator="arithmetic" k2="-1" k3="1"/>
<feColorMatrix type="matrix" values="0 0 0 0 1 0 0 0 0 0.555539 0 0 0 0 0.166635 0 0 0 0.06 0"/>
<feBlend mode="normal" in2="shape" result="effect1_innerShadow_2056_1867"/>
</filter>
<linearGradient id="paint0_linear_2056_1867" x1="438.072" y1="61.4302" x2="658.641" y2="123.608" gradientUnits="userSpaceOnUse">
<stop stop-color="white" stop-opacity="0"/>
<stop offset="1" stop-color="#FF8E2A"/>
</linearGradient>
<linearGradient id="paint1_linear_2056_1867" x1="159.655" y1="95.5388" x2="94.0651" y2="-153.705" gradientUnits="userSpaceOnUse">
<stop stop-color="white" stop-opacity="0"/>
<stop offset="1" stop-color="white"/>
</linearGradient>
<linearGradient id="paint2_linear_2056_1867" x1="153.799" y1="532.197" x2="113.823" y2="542.175" gradientUnits="userSpaceOnUse">
<stop stop-color="white" stop-opacity="0"/>
<stop offset="1" stop-color="white"/>
</linearGradient>
</defs>
</svg>
