<svg width="525" height="645" viewBox="0 0 525 645" fill="none" xmlns="http://www.w3.org/2000/svg">
<mask id="path-1-inside-1_39_123" fill="white">
<path d="M499.65 0C513.65 3.81072e-05 525 11.3496 525 25.3496V573.287C525 580.063 522.287 586.557 517.466 591.32L470.536 637.684C465.792 642.371 459.391 645 452.721 645H72.2782C65.6084 645 59.2074 642.371 54.4626 637.684L7.53369 591.321C2.71312 586.558 0 580.064 0 573.288V25.3496C1.6752e-06 11.3497 11.3487 7.21495e-05 25.3486 0H499.65Z"/>
</mask>
<path d="M499.65 0C513.65 3.81072e-05 525 11.3496 525 25.3496V573.287C525 580.063 522.287 586.557 517.466 591.32L470.536 637.684C465.792 642.371 459.391 645 452.721 645H72.2782C65.6084 645 59.2074 642.371 54.4626 637.684L7.53369 591.321C2.71312 586.558 0 580.064 0 573.288V25.3496C1.6752e-06 11.3497 11.3487 7.21495e-05 25.3486 0H499.65Z" fill="#898989" fill-opacity="0.05"/>
<path d="M499.65 0V-2.88732V0ZM0 25.3496H-2.88732H0ZM25.3486 0V-2.88732H25.3486L25.3486 0ZM7.53369 591.321L5.50447 593.375L7.53369 591.321ZM54.4626 637.684L56.4919 635.63L54.4626 637.684ZM470.536 637.684L468.507 635.63L470.536 637.684ZM499.65 0V2.88732C512.056 2.88735 522.113 12.9443 522.113 25.3496H525H527.887C527.887 9.75502 515.245 -2.88727 499.65 -2.88732V0ZM525 25.3496H522.113V573.287H525H527.887V25.3496H525ZM517.466 591.32L515.437 589.266L468.507 635.63L470.536 637.684L472.566 639.738L519.496 593.374L517.466 591.32ZM452.721 645V642.113H72.2782V645V647.887H452.721V645ZM54.4626 637.684L56.4919 635.63L9.56291 589.267L7.53369 591.321L5.50447 593.375L52.4334 639.738L54.4626 637.684ZM0 573.288H2.88732V25.3496H0H-2.88732V573.288H0ZM0 25.3496H2.88732C2.88732 12.9442 12.9435 2.88738 25.3486 2.88732L25.3486 0L25.3486 -2.88732C9.75395 -2.88724 -2.88731 9.75518 -2.88732 25.3496H0ZM25.3486 0V2.88732H499.65V0V-2.88732H25.3486V0ZM7.53369 591.321L9.56291 589.267C5.2914 585.047 2.88732 579.292 2.88732 573.288H0H-2.88732C-2.88732 580.836 0.134829 588.07 5.50447 593.375L7.53369 591.321ZM72.2782 645V642.113C66.3681 642.113 60.6962 639.783 56.4919 635.63L54.4626 637.684L52.4334 639.738C57.7186 644.959 64.8487 647.887 72.2782 647.887V645ZM470.536 637.684L468.507 635.63C464.303 639.783 458.631 642.113 452.721 642.113V645V647.887C460.15 647.887 467.28 644.959 472.566 639.738L470.536 637.684ZM525 573.287H522.113C522.113 579.291 519.709 585.046 515.437 589.266L517.466 591.32L519.496 593.374C524.865 588.069 527.887 580.835 527.887 573.287H525Z" fill="white" fill-opacity="0.02" mask="url(#path-1-inside-1_39_123)"/>
<path d="M499.65 0V-2.88732V0ZM0 25.3496H-2.88732H0ZM25.3486 0V-2.88732H25.3486L25.3486 0ZM7.53369 591.321L5.50447 593.375L7.53369 591.321ZM54.4626 637.684L56.4919 635.63L54.4626 637.684ZM470.536 637.684L468.507 635.63L470.536 637.684ZM499.65 0V2.88732C512.056 2.88735 522.113 12.9443 522.113 25.3496H525H527.887C527.887 9.75502 515.245 -2.88727 499.65 -2.88732V0ZM525 25.3496H522.113V573.287H525H527.887V25.3496H525ZM517.466 591.32L515.437 589.266L468.507 635.63L470.536 637.684L472.566 639.738L519.496 593.374L517.466 591.32ZM452.721 645V642.113H72.2782V645V647.887H452.721V645ZM54.4626 637.684L56.4919 635.63L9.56291 589.267L7.53369 591.321L5.50447 593.375L52.4334 639.738L54.4626 637.684ZM0 573.288H2.88732V25.3496H0H-2.88732V573.288H0ZM0 25.3496H2.88732C2.88732 12.9442 12.9435 2.88738 25.3486 2.88732L25.3486 0L25.3486 -2.88732C9.75395 -2.88724 -2.88731 9.75518 -2.88732 25.3496H0ZM25.3486 0V2.88732H499.65V0V-2.88732H25.3486V0ZM7.53369 591.321L9.56291 589.267C5.2914 585.047 2.88732 579.292 2.88732 573.288H0H-2.88732C-2.88732 580.836 0.134829 588.07 5.50447 593.375L7.53369 591.321ZM72.2782 645V642.113C66.3681 642.113 60.6962 639.783 56.4919 635.63L54.4626 637.684L52.4334 639.738C57.7186 644.959 64.8487 647.887 72.2782 647.887V645ZM470.536 637.684L468.507 635.63C464.303 639.783 458.631 642.113 452.721 642.113V645V647.887C460.15 647.887 467.28 644.959 472.566 639.738L470.536 637.684ZM525 573.287H522.113C522.113 579.291 519.709 585.046 515.437 589.266L517.466 591.32L519.496 593.374C524.865 588.069 527.887 580.835 527.887 573.287H525Z" fill="url(#paint0_linear_39_123)" fill-opacity="0.3" mask="url(#path-1-inside-1_39_123)"/>
<path d="M499.65 0V-2.88732V0ZM0 25.3496H-2.88732H0ZM25.3486 0V-2.88732H25.3486L25.3486 0ZM7.53369 591.321L5.50447 593.375L7.53369 591.321ZM54.4626 637.684L56.4919 635.63L54.4626 637.684ZM470.536 637.684L468.507 635.63L470.536 637.684ZM499.65 0V2.88732C512.056 2.88735 522.113 12.9443 522.113 25.3496H525H527.887C527.887 9.75502 515.245 -2.88727 499.65 -2.88732V0ZM525 25.3496H522.113V573.287H525H527.887V25.3496H525ZM517.466 591.32L515.437 589.266L468.507 635.63L470.536 637.684L472.566 639.738L519.496 593.374L517.466 591.32ZM452.721 645V642.113H72.2782V645V647.887H452.721V645ZM54.4626 637.684L56.4919 635.63L9.56291 589.267L7.53369 591.321L5.50447 593.375L52.4334 639.738L54.4626 637.684ZM0 573.288H2.88732V25.3496H0H-2.88732V573.288H0ZM0 25.3496H2.88732C2.88732 12.9442 12.9435 2.88738 25.3486 2.88732L25.3486 0L25.3486 -2.88732C9.75395 -2.88724 -2.88731 9.75518 -2.88732 25.3496H0ZM25.3486 0V2.88732H499.65V0V-2.88732H25.3486V0ZM7.53369 591.321L9.56291 589.267C5.2914 585.047 2.88732 579.292 2.88732 573.288H0H-2.88732C-2.88732 580.836 0.134829 588.07 5.50447 593.375L7.53369 591.321ZM72.2782 645V642.113C66.3681 642.113 60.6962 639.783 56.4919 635.63L54.4626 637.684L52.4334 639.738C57.7186 644.959 64.8487 647.887 72.2782 647.887V645ZM470.536 637.684L468.507 635.63C464.303 639.783 458.631 642.113 452.721 642.113V645V647.887C460.15 647.887 467.28 644.959 472.566 639.738L470.536 637.684ZM525 573.287H522.113C522.113 579.291 519.709 585.046 515.437 589.266L517.466 591.32L519.496 593.374C524.865 588.069 527.887 580.835 527.887 573.287H525Z" fill="url(#paint1_linear_39_123)" fill-opacity="0.4" mask="url(#path-1-inside-1_39_123)"/>
<path d="M499.65 0V-2.88732V0ZM0 25.3496H-2.88732H0ZM25.3486 0V-2.88732H25.3486L25.3486 0ZM7.53369 591.321L5.50447 593.375L7.53369 591.321ZM54.4626 637.684L56.4919 635.63L54.4626 637.684ZM470.536 637.684L468.507 635.63L470.536 637.684ZM499.65 0V2.88732C512.056 2.88735 522.113 12.9443 522.113 25.3496H525H527.887C527.887 9.75502 515.245 -2.88727 499.65 -2.88732V0ZM525 25.3496H522.113V573.287H525H527.887V25.3496H525ZM517.466 591.32L515.437 589.266L468.507 635.63L470.536 637.684L472.566 639.738L519.496 593.374L517.466 591.32ZM452.721 645V642.113H72.2782V645V647.887H452.721V645ZM54.4626 637.684L56.4919 635.63L9.56291 589.267L7.53369 591.321L5.50447 593.375L52.4334 639.738L54.4626 637.684ZM0 573.288H2.88732V25.3496H0H-2.88732V573.288H0ZM0 25.3496H2.88732C2.88732 12.9442 12.9435 2.88738 25.3486 2.88732L25.3486 0L25.3486 -2.88732C9.75395 -2.88724 -2.88731 9.75518 -2.88732 25.3496H0ZM25.3486 0V2.88732H499.65V0V-2.88732H25.3486V0ZM7.53369 591.321L9.56291 589.267C5.2914 585.047 2.88732 579.292 2.88732 573.288H0H-2.88732C-2.88732 580.836 0.134829 588.07 5.50447 593.375L7.53369 591.321ZM72.2782 645V642.113C66.3681 642.113 60.6962 639.783 56.4919 635.63L54.4626 637.684L52.4334 639.738C57.7186 644.959 64.8487 647.887 72.2782 647.887V645ZM470.536 637.684L468.507 635.63C464.303 639.783 458.631 642.113 452.721 642.113V645V647.887C460.15 647.887 467.28 644.959 472.566 639.738L470.536 637.684ZM525 573.287H522.113C522.113 579.291 519.709 585.046 515.437 589.266L517.466 591.32L519.496 593.374C524.865 588.069 527.887 580.835 527.887 573.287H525Z" fill="url(#paint2_linear_39_123)" fill-opacity="0.4" mask="url(#path-1-inside-1_39_123)"/>
<defs>
<linearGradient id="paint0_linear_39_123" x1="78.2901" y1="50.7556" x2="-227.47" y2="169.899" gradientUnits="userSpaceOnUse">
<stop stop-color="white" stop-opacity="0"/>
<stop offset="1" stop-color="#FF8E2A"/>
</linearGradient>
<linearGradient id="paint1_linear_39_123" x1="490.116" y1="87.255" x2="542.509" y2="-187.954" gradientUnits="userSpaceOnUse">
<stop stop-color="white" stop-opacity="0"/>
<stop offset="1" stop-color="white"/>
</linearGradient>
<linearGradient id="paint2_linear_39_123" x1="498.778" y1="554.519" x2="554.911" y2="573.886" gradientUnits="userSpaceOnUse">
<stop stop-color="white" stop-opacity="0"/>
<stop offset="1" stop-color="white"/>
</linearGradient>
</defs>
</svg>
