<svg width="236" height="66" viewBox="0 0 236 66" fill="none" xmlns="http://www.w3.org/2000/svg">
<rect opacity="0.07" x="4" y="4" width="228" height="58" fill="#FFD9B8"/>
<rect width="4" height="12" fill="#FF8E2A"/>
<rect y="4" width="4" height="30" transform="rotate(-90 0 4)" fill="#FF8E2A"/>
<rect width="4" height="12" transform="matrix(-1 0 0 1 236 0)" fill="#FF8E2A"/>
<rect width="4" height="30" transform="matrix(4.37114e-08 -1 -1 -4.37114e-08 236 4)" fill="#FF8E2A"/>
<rect width="4" height="12" transform="matrix(1 0 0 -1 0 66)" fill="#FF8E2A"/>
<rect width="4" height="30" transform="matrix(-4.37114e-08 1 1 4.37114e-08 0 62)" fill="#FF8E2A"/>
<rect x="236" y="66" width="4" height="12" transform="rotate(180 236 66)" fill="#FF8E2A"/>
<rect x="236" y="62" width="4" height="30" transform="rotate(90 236 62)" fill="#FF8E2A"/>
<path d="M78.2104 33.1554V31.8167C78.2104 31.5348 78.3748 31.3704 78.6332 31.3704H82.2971C82.579 31.3704 82.7434 31.5348 82.7434 31.8167V37.9232C82.7434 38.1816 82.6259 38.4869 82.438 38.6748L80.4417 40.6947C80.2538 40.8826 79.9484 41 79.6666 41H75.6504C75.3685 41 75.0632 40.8826 74.8753 40.6947L72.8789 38.6748C72.691 38.4869 72.5736 38.1816 72.5736 37.9232V27.5891C72.5736 27.3307 72.691 27.0254 72.8789 26.8375L74.8753 24.8176C75.0632 24.6297 75.3685 24.5123 75.6504 24.5123H79.6666C79.9484 24.5123 80.2538 24.6297 80.4417 24.8176L82.438 26.8375C82.6259 27.0254 82.7434 27.3307 82.7434 27.5891V29.3271C82.7434 29.5854 82.579 29.7733 82.2971 29.7733H80.9349C80.653 29.7733 80.4886 29.5854 80.4886 29.3271V28.0353L79.1969 26.7201H76.1436L74.8283 28.0353V37.477L76.1436 38.7922H79.1969L80.4886 37.477V33.6017H78.6332C78.3748 33.6017 78.2104 33.4138 78.2104 33.1554ZM85.8996 40.5538V24.9586C85.8996 24.7002 86.064 24.5123 86.3458 24.5123H95.6231C95.9049 24.5123 96.0693 24.7002 96.0693 24.9586V26.2973C96.0693 26.5557 95.9049 26.7201 95.6231 26.7201H88.1543V31.4879H93.7441C94.0025 31.4879 94.1904 31.6523 94.1904 31.9106V33.2494C94.1904 33.5077 94.0025 33.6956 93.7441 33.6956H88.1543V38.7922H95.6231C95.9049 38.7922 96.0693 38.9567 96.0693 39.215V40.5538C96.0693 40.8121 95.9049 41 95.6231 41H86.3458C86.064 41 85.8996 40.8121 85.8996 40.5538ZM99.2255 40.5538V24.9586C99.2255 24.7002 99.39 24.5123 99.6718 24.5123H101.034C101.316 24.5123 101.48 24.7002 101.48 24.9586V25.3813L107.141 35.5981V24.9586C107.141 24.7002 107.305 24.5123 107.587 24.5123H108.949C109.231 24.5123 109.395 24.7002 109.395 24.9586V40.5538C109.395 40.8121 109.231 41 108.949 41H107.587C107.305 41 107.141 40.8121 107.141 40.5538V40.131L101.48 29.9377V40.5538C101.48 40.8121 101.316 41 101.034 41H99.6718C99.39 41 99.2255 40.8121 99.2255 40.5538ZM112.552 40.5538V24.9586C112.552 24.7002 112.716 24.5123 112.998 24.5123H122.275C122.557 24.5123 122.721 24.7002 122.721 24.9586V26.2973C122.721 26.5557 122.557 26.7201 122.275 26.7201H114.806V31.4879H120.396C120.654 31.4879 120.842 31.6523 120.842 31.9106V33.2494C120.842 33.5077 120.654 33.6956 120.396 33.6956H114.806V38.7922H122.275C122.557 38.7922 122.721 38.9567 122.721 39.215V40.5538C122.721 40.8121 122.557 41 122.275 41H112.998C112.716 41 112.552 40.8121 112.552 40.5538ZM125.877 40.5538V24.9586C125.877 24.7002 126.042 24.5123 126.324 24.5123H132.97C133.229 24.5123 133.534 24.6297 133.722 24.8176L135.718 26.7905C135.906 26.9784 136.047 27.2837 136.047 27.5656V30.7833C136.047 31.0416 135.93 31.347 135.742 31.5348L133.628 33.6721L135.859 37.9937C135.977 38.2286 136.047 38.5809 136.047 38.8392V40.5538C136.047 40.8121 135.883 41 135.624 41H134.239C133.957 41 133.793 40.8121 133.793 40.5538V38.7688L131.232 33.86H128.132V40.5538C128.132 40.8121 127.968 41 127.686 41H126.324C126.042 41 125.877 40.8121 125.877 40.5538ZM128.132 31.6523H132.454L133.769 30.2901V28.0588L132.43 26.7436H128.132V31.6523ZM142.28 24.5123H146.296C146.578 24.5123 146.884 24.6297 147.072 24.8176L149.068 26.8375C149.256 27.0254 149.373 27.3307 149.373 27.5891V40.5538C149.373 40.8121 149.209 41 148.927 41H147.565C147.283 41 147.118 40.8121 147.118 40.5538V37.477H141.458V40.5538C141.458 40.8121 141.294 41 141.012 41H139.65C139.368 41 139.203 40.8121 139.203 40.5538V27.5891C139.203 27.3307 139.321 27.0254 139.509 26.8375L141.505 24.8176C141.693 24.6297 141.998 24.5123 142.28 24.5123ZM141.458 28.0353V35.2692H147.118V28.0353L145.803 26.7201H142.75L141.458 28.0353ZM152.529 40.5538V24.9586C152.529 24.7002 152.694 24.5123 152.976 24.5123H154.338C154.62 24.5123 154.784 24.7002 154.784 24.9586V38.7922H162.253C162.535 38.7922 162.699 38.9567 162.699 39.215V40.5538C162.699 40.8121 162.535 41 162.253 41H152.976C152.694 41 152.529 40.8121 152.529 40.5538Z" fill="white"/>
</svg>
