<svg width="40" height="40" viewBox="0 0 40 40" fill="none" xmlns="http://www.w3.org/2000/svg">
<path d="M28.2 5H11.3C11.1343 5 11 5.13431 11 5.3V12.3757C11 12.4553 11.0316 12.5316 11.0879 12.5879L18.2879 19.7879C18.405 19.905 18.405 20.095 18.2879 20.2121L11.0879 27.4121C11.0316 27.4684 11 27.5447 11 27.6243V34.7C11 34.8657 11.1343 35 11.3 35H28.2C28.3657 35 28.5 34.8657 28.5 34.7V27.6243C28.5 27.5447 28.4684 27.4684 28.4121 27.4121L21.2121 20.2121C21.095 20.095 21.095 19.905 21.2121 19.7879L28.4121 12.5879C28.4684 12.5316 28.5 12.4553 28.5 12.3757V5.3C28.5 5.13431 28.3657 5 28.2 5Z" stroke="#FF8E2A" stroke-width="4"/>
</svg>

