<svg width="21" height="41" viewBox="0 0 21 41" fill="none" xmlns="http://www.w3.org/2000/svg">
<path d="M7.89155 39.9744V36.7802H5.91866C5.4959 36.7802 5.07314 36.5923 4.7913 36.3104L0.46974 32.0359C0.187899 31.707 5.17865e-06 31.2843 5.17865e-06 30.8615V26.9627C5.17865e-06 26.5869 0.281846 26.3051 0.704607 26.3051H3.85183C4.27459 26.3051 4.55643 26.5869 4.55643 26.9627V29.6402L7.13997 32.3647H13.2465L15.8301 29.6402L15.7831 27.4794L0.563687 16.3467C0.187899 16.1119 5.17865e-06 15.6891 5.17865e-06 15.3133V9.81741C5.17865e-06 9.39464 0.187899 8.97188 0.46974 8.64307L4.7913 4.36848C5.07314 4.08664 5.4959 3.89875 5.91866 3.89875H7.89155V0.657581C7.89155 0.281793 8.17339 -4.69417e-05 8.59615 -4.69417e-05H11.7434C12.1661 -4.69417e-05 12.448 0.281793 12.448 0.657581V3.89875H14.4209C14.8436 3.89875 15.2664 4.08664 15.5952 4.36848L19.8698 8.64307C20.1516 8.97188 20.3395 9.39464 20.3395 9.81741L20.2925 13.7162C20.2925 14.092 20.0577 14.3738 19.6349 14.3738H16.4407C16.018 14.3738 15.7831 14.092 15.7831 13.7162V11.0387L13.2465 8.31426H7.13997L4.50946 11.0387L4.55643 13.2465L19.7758 24.3792C20.1516 24.614 20.3395 25.0368 20.3395 25.4126V30.8615C20.3395 31.2843 20.1516 31.707 19.8698 32.0359L15.5952 36.3104C15.2664 36.5923 14.8436 36.7802 14.4209 36.7802H12.448V39.9744C12.448 40.3502 12.1661 40.632 11.7434 40.632H8.59615C8.17339 40.632 7.89155 40.3502 7.89155 39.9744Z" fill="#FF8E2A"/>
</svg>

