<svg width="41" height="41" viewBox="0 0 41 41" fill="none" xmlns="http://www.w3.org/2000/svg">
<path d="M20.2246 2.17969C20.3948 2.08144 20.6052 2.08144 20.7754 2.17969L36.2285 11.1016C36.3987 11.1998 36.5039 11.3816 36.5039 11.5781V29.4219C36.5039 29.6184 36.3987 29.8002 36.2285 29.8984L20.7754 38.8203C20.6052 38.9186 20.3948 38.9186 20.2246 38.8203L4.77148 29.8984C4.60132 29.8002 4.49609 29.6184 4.49609 29.4219V11.5781C4.49609 11.3816 4.60131 11.1998 4.77148 11.1016L20.2246 2.17969Z" stroke="#FF8E2A" stroke-width="3.5"/>
<path d="M21.5 5.0459L23.4684 8.98567C23.4892 9.02731 23.5 9.07321 23.5 9.11975V13.8367C23.5 13.9658 23.4174 14.0804 23.2949 14.1212L19.2051 15.4856C19.0826 15.5264 19 15.6411 19 15.7702V21.9348C19 22.0143 19.0316 22.0906 19.0878 22.1469L20.9121 23.9726C20.9684 24.0289 21.0447 24.0605 21.1243 24.0605H25.8757C25.9553 24.0605 26.0316 24.0922 26.0879 24.1485L27.9122 25.9742C27.9684 26.0305 28 26.1068 28 26.1863V30.4214C28 30.5125 27.9586 30.5987 27.8875 30.6556L25.6125 32.477C25.5414 32.534 25.5 32.6201 25.5 32.7112V37.5709" stroke="#FF8E2A" stroke-width="3.5"/>
<path d="M34.5 12.5518L29.1099 16.9652C29.0404 17.0222 29 17.1074 29 17.1973V19.4095C29 19.5026 29.0432 19.5904 29.117 19.6472L35.383 24.4709C35.4568 24.5277 35.5 24.6156 35.5 24.7087V29.9945C35.5 30.041 35.4892 30.0869 35.4684 30.1286L34 33.0676" stroke="#FF8E2A" stroke-width="3.5"/>
<path d="M4.5 18.5563H7.87567C7.95527 18.5563 8.03161 18.5879 8.08788 18.6442L14.4122 24.9734C14.4684 25.0297 14.5 25.106 14.5 25.1855V29.3985C14.5 29.5019 14.5532 29.5981 14.6409 29.6529L18.3591 31.9785C18.4468 32.0334 18.5 32.1295 18.5 32.2329V39.0721" stroke="#FF8E2A" stroke-width="3.5"/>
</svg>

