<svg width="36" height="36" viewBox="0 0 36 36" fill="none" xmlns="http://www.w3.org/2000/svg">
<path d="M29.8757 33H6.12426C6.0447 33 5.96839 32.9684 5.91213 32.9121L4.08787 31.0879C4.03161 31.0316 4 30.9553 4 30.8757V29.1243C4 29.0447 4.03161 28.9684 4.08787 28.9121L9.41213 23.5879C9.46839 23.5316 9.5447 23.5 9.62426 23.5H26.3757C26.4553 23.5 26.5316 23.5316 26.5879 23.5879L31.9121 28.9121C31.9684 28.9684 32 29.0447 32 29.1243V30.8757C32 30.9553 31.9684 31.0316 31.9121 31.0879L30.0879 32.9121C30.0316 32.9684 29.9553 33 29.8757 33Z" stroke="#FF8E2A" stroke-width="4"/>
<path d="M23.7939 6.6543V13.3447L18 16.6904L12.2061 13.3447V6.6543L18 3.30859L23.7939 6.6543Z" stroke="#FF8E2A" stroke-width="4"/>
</svg>

