<svg width="236" height="66" viewBox="0 0 236 66" fill="none" xmlns="http://www.w3.org/2000/svg">
<rect opacity="0.07" x="4" y="4" width="228" height="58" fill="#FFD9B8"/>
<rect width="4" height="12" fill="#FF8E2A"/>
<rect y="4" width="4" height="30" transform="rotate(-90 0 4)" fill="#FF8E2A"/>
<rect width="4" height="12" transform="matrix(-1 0 0 1 236 0)" fill="#FF8E2A"/>
<rect width="4" height="30" transform="matrix(4.37114e-08 -1 -1 -4.37114e-08 236 4)" fill="#FF8E2A"/>
<rect width="4" height="12" transform="matrix(1 0 0 -1 0 66)" fill="#FF8E2A"/>
<rect width="4" height="30" transform="matrix(-4.37114e-08 1 1 4.37114e-08 0 62)" fill="#FF8E2A"/>
<rect x="236" y="66" width="4" height="12" transform="rotate(180 236 66)" fill="#FF8E2A"/>
<rect x="236" y="62" width="4" height="30" transform="rotate(90 236 62)" fill="#FF8E2A"/>
<path d="M38.863 40.5538V29.2801L36.2794 32.8971C36.1385 33.1085 35.9271 33.1085 35.7862 32.8971L33.2027 29.2801V40.5538C33.2027 40.8121 33.0383 41 32.7799 41H31.3707C31.1124 41 30.948 40.8121 30.948 40.5538V24.9586C30.948 24.6767 31.1124 24.5123 31.3707 24.5123H32.7799C33.0383 24.5123 33.2027 24.6767 33.2027 24.9586V25.1699L35.8097 29.0687C35.9506 29.2801 36.115 29.2801 36.256 29.0687L38.863 25.1699V24.9586C38.863 24.6767 39.0274 24.5123 39.2857 24.5123H40.6949C40.9533 24.5123 41.1177 24.6767 41.1177 24.9586V40.5538C41.1177 40.8121 40.9533 41 40.6949 41H39.2857C39.0274 41 38.863 40.8121 38.863 40.5538ZM44.2739 26.2973V24.9586C44.2739 24.7002 44.4383 24.5123 44.7202 24.5123H53.058C53.3398 24.5123 53.5042 24.7002 53.5042 24.9586V26.2973C53.5042 26.5557 53.3398 26.7201 53.058 26.7201H50.0282V38.7922H53.058C53.3398 38.7922 53.5042 38.9567 53.5042 39.215V40.5538C53.5042 40.8121 53.3398 41 53.058 41H44.7202C44.4383 41 44.2739 40.8121 44.2739 40.5538V39.215C44.2739 38.9567 44.4383 38.7922 44.7202 38.7922H47.7734V26.7201H44.7202C44.4383 26.7201 44.2739 26.5557 44.2739 26.2973ZM59.7363 24.5358H63.7525C64.0108 24.5358 64.3162 24.6532 64.5041 24.8411L66.5004 26.8375C66.6883 27.0254 66.8293 27.3307 66.8293 27.6126V29.3271C66.8058 29.6089 66.6414 29.7733 66.3595 29.7733H64.9973C64.7155 29.7733 64.551 29.6089 64.551 29.3271V28.1058L63.2828 26.7436H60.206L58.9142 28.1058L58.9377 30.5484L66.4065 33.1319C66.6649 33.2259 66.8293 33.4608 66.8293 33.7191V37.9232C66.8293 38.1816 66.6883 38.4869 66.5004 38.6748L64.5041 40.6712C64.3162 40.8591 64.0108 40.9765 63.7525 40.9765H59.7363C59.4544 40.9765 59.1491 40.8591 58.9612 40.6712L56.9648 38.6748C56.7769 38.4869 56.6595 38.1816 56.6595 37.9232V36.1852C56.6595 35.9269 56.8474 35.739 57.1058 35.739H58.4915C58.7498 35.739 58.9377 35.9269 58.9377 36.1852V37.4065L60.2295 38.7688H63.2593L64.551 37.4065V34.9874L57.0823 32.4039C56.8239 32.3099 56.6595 32.075 56.6595 31.8167V27.6126C56.6595 27.3307 56.7769 27.0254 56.9648 26.8375L58.9612 24.8411C59.1491 24.6532 59.4544 24.5358 59.7363 24.5358ZM73.0393 24.5123H77.0555C77.3374 24.5123 77.6427 24.6297 77.8306 24.8176L79.827 26.8375C80.0149 27.0254 80.1323 27.3307 80.1323 27.5891V29.3271C80.1323 29.5854 79.9679 29.7733 79.686 29.7733H78.3238C78.042 29.7733 77.8776 29.5854 77.8776 29.3271V28.1058L76.5858 26.814H73.5325L72.2173 28.1058V37.43L73.5325 38.7218H76.5858L77.8776 37.43V36.1852C77.8776 35.9269 78.042 35.739 78.3238 35.739H79.686C79.9679 35.739 80.1323 35.9269 80.1323 36.1852V37.9232C80.1323 38.1816 80.0149 38.4869 79.827 38.6748L77.8306 40.6947C77.6427 40.8826 77.3374 41 77.0555 41H73.0393C72.7575 41 72.4521 40.8826 72.2642 40.6947L70.2679 38.6748C70.08 38.4869 69.9625 38.1816 69.9625 37.9232V27.5891C69.9625 27.3307 70.08 27.0254 70.2679 26.8375L72.2642 24.8176C72.4521 24.6297 72.7575 24.5123 73.0393 24.5123ZM83.2885 40.5538V24.9586C83.2885 24.7002 83.4529 24.5123 83.7347 24.5123H93.012C93.2938 24.5123 93.4583 24.7002 93.4583 24.9586V26.2973C93.4583 26.5557 93.2938 26.7201 93.012 26.7201H85.5432V31.4879H91.1331C91.3914 31.4879 91.5793 31.6523 91.5793 31.9106V33.2494C91.5793 33.5077 91.3914 33.6956 91.1331 33.6956H85.5432V38.7922H93.012C93.2938 38.7922 93.4583 38.9567 93.4583 39.215V40.5538C93.4583 40.8121 93.2938 41 93.012 41H83.7347C83.4529 41 83.2885 40.8121 83.2885 40.5538ZM96.6145 40.5538V24.9586C96.6145 24.7002 96.7789 24.5123 97.0607 24.5123H98.4229C98.7048 24.5123 98.8692 24.7002 98.8692 24.9586V38.7922H106.338C106.62 38.7922 106.784 38.9567 106.784 39.215V40.5538C106.784 40.8121 106.62 41 106.338 41H97.0607C96.7789 41 96.6145 40.8121 96.6145 40.5538ZM109.94 40.5538V24.9586C109.94 24.7002 110.105 24.5123 110.387 24.5123H111.749C112.031 24.5123 112.195 24.7002 112.195 24.9586V38.7922H119.664C119.946 38.7922 120.11 38.9567 120.11 39.215V40.5538C120.11 40.8121 119.946 41 119.664 41H110.387C110.105 41 109.94 40.8121 109.94 40.5538ZM126.343 24.5123H130.359C130.641 24.5123 130.947 24.6297 131.134 24.8176L133.131 26.8375C133.319 27.0254 133.436 27.3307 133.436 27.5891V40.5538C133.436 40.8121 133.272 41 132.99 41H131.628C131.346 41 131.181 40.8121 131.181 40.5538V37.477H125.521V40.5538C125.521 40.8121 125.357 41 125.075 41H123.713C123.431 41 123.266 40.8121 123.266 40.5538V27.5891C123.266 27.3307 123.384 27.0254 123.572 26.8375L125.568 24.8176C125.756 24.6297 126.061 24.5123 126.343 24.5123ZM125.521 28.0353V35.2692H131.181V28.0353L129.866 26.7201H126.813L125.521 28.0353ZM136.592 40.5538V24.9586C136.592 24.7002 136.757 24.5123 137.039 24.5123H138.401C138.683 24.5123 138.847 24.7002 138.847 24.9586V25.3813L144.507 35.5981V24.9586C144.507 24.7002 144.672 24.5123 144.954 24.5123H146.316C146.598 24.5123 146.762 24.7002 146.762 24.9586V40.5538C146.762 40.8121 146.598 41 146.316 41H144.954C144.672 41 144.507 40.8121 144.507 40.5538V40.131L138.847 29.9377V40.5538C138.847 40.8121 138.683 41 138.401 41H137.039C136.757 41 136.592 40.8121 136.592 40.5538ZM149.918 40.5538V24.9586C149.918 24.7002 150.083 24.5123 150.365 24.5123H159.642C159.924 24.5123 160.088 24.7002 160.088 24.9586V26.2973C160.088 26.5557 159.924 26.7201 159.642 26.7201H152.173V31.4879H157.763C158.021 31.4879 158.209 31.6523 158.209 31.9106V33.2494C158.209 33.5077 158.021 33.6956 157.763 33.6956H152.173V38.7922H159.642C159.924 38.7922 160.088 38.9567 160.088 39.215V40.5538C160.088 40.8121 159.924 41 159.642 41H150.365C150.083 41 149.918 40.8121 149.918 40.5538ZM166.321 24.5123H170.337C170.619 24.5123 170.924 24.6297 171.112 24.8176L173.109 26.8375C173.297 27.0254 173.414 27.3307 173.414 27.5891V37.9232C173.414 38.1816 173.297 38.4869 173.109 38.6748L171.112 40.6947C170.924 40.8826 170.619 41 170.337 41H166.321C166.039 41 165.734 40.8826 165.546 40.6947L163.55 38.6748C163.362 38.4869 163.244 38.1816 163.244 37.9232V27.5891C163.244 27.3307 163.362 27.0254 163.55 26.8375L165.546 24.8176C165.734 24.6297 166.039 24.5123 166.321 24.5123ZM165.499 37.477L166.814 38.7922H169.868L171.159 37.477V28.0588L169.868 26.7201H166.814L165.499 28.0588V37.477ZM184.908 24.5123H186.317C186.576 24.5123 186.74 24.6767 186.74 24.9586V37.9232C186.74 38.1816 186.623 38.4869 186.435 38.6748L184.438 40.6947C184.25 40.8826 183.945 41 183.687 41H179.624C179.365 41 179.06 40.8826 178.872 40.6947L176.876 38.6748C176.688 38.4869 176.57 38.1816 176.57 37.9232V24.9586C176.57 24.6767 176.735 24.5123 176.993 24.5123H178.402C178.661 24.5123 178.825 24.6767 178.825 24.9586V37.477L180.117 38.7922H183.194L184.485 37.477V24.9586C184.485 24.6767 184.65 24.5123 184.908 24.5123ZM192.973 24.5358H196.989C197.248 24.5358 197.553 24.6532 197.741 24.8411L199.737 26.8375C199.925 27.0254 200.066 27.3307 200.066 27.6126V29.3271C200.042 29.6089 199.878 29.7733 199.596 29.7733H198.234C197.952 29.7733 197.788 29.6089 197.788 29.3271V28.1058L196.519 26.7436H193.443L192.151 28.1058L192.174 30.5484L199.643 33.1319C199.902 33.2259 200.066 33.4608 200.066 33.7191V37.9232C200.066 38.1816 199.925 38.4869 199.737 38.6748L197.741 40.6712C197.553 40.8591 197.248 40.9765 196.989 40.9765H192.973C192.691 40.9765 192.386 40.8591 192.198 40.6712L190.202 38.6748C190.014 38.4869 189.896 38.1816 189.896 37.9232V36.1852C189.896 35.9269 190.084 35.739 190.342 35.739H191.728C191.987 35.739 192.174 35.9269 192.174 36.1852V37.4065L193.466 38.7688H196.496L197.788 37.4065V34.9874L190.319 32.4039C190.061 32.3099 189.896 32.075 189.896 31.8167V27.6126C189.896 27.3307 190.014 27.0254 190.202 26.8375L192.198 24.8411C192.386 24.6532 192.691 24.5358 192.973 24.5358Z" fill="white"/>
</svg>
