<svg width="243" height="102" viewBox="0 0 243 102" fill="none" xmlns="http://www.w3.org/2000/svg">
<mask id="path-1-inside-1_291_3044" fill="white">
<path d="M233.194 0C238.61 6.44248e-07 243 4.39012 243 9.80566V74.2589C243 76.8802 241.951 79.3923 240.086 81.2346L221.932 99.1698C220.097 100.983 217.62 102 215.04 102H9.80664C4.39107 102 0.000127778 97.6099 0 92.1943V29.1504C0 26.5291 1.04956 24.0168 2.91438 22.1746L22.4957 2.83003C24.3311 1.01681 26.8072 0 29.3872 0H233.194Z"/>
</mask>
<path d="M233.194 0C238.61 6.44248e-07 243 4.39012 243 9.80566V74.2589C243 76.8802 241.951 79.3923 240.086 81.2346L221.932 99.1698C220.097 100.983 217.62 102 215.04 102H9.80664C4.39107 102 0.000127778 97.6099 0 92.1943V29.1504C0 26.5291 1.04956 24.0168 2.91438 22.1746L22.4957 2.83003C24.3311 1.01681 26.8072 0 29.3872 0H233.194Z" fill="#898989" fill-opacity="0.05"/>
<path d="M233.194 0V-1.11691V0ZM243 9.80566H244.117V9.80564L243 9.80566ZM0 92.1943H-1.11691V92.1944L0 92.1943ZM2.91438 22.1746L2.12943 21.38L2.91438 22.1746ZM221.932 99.1698L221.147 98.3752L221.932 99.1698ZM240.086 81.2346L239.301 80.44L240.086 81.2346ZM233.194 0V1.11691C237.993 1.11691 241.883 5.00695 241.883 9.80569L243 9.80566L244.117 9.80564C244.117 3.77329 239.227 -1.11691 233.194 -1.11691V0ZM243 9.80566H241.883V74.2589H243H244.117V9.80566H243ZM240.086 81.2346L239.301 80.44L221.147 98.3752L221.932 99.1698L222.717 99.9643L240.871 82.0291L240.086 81.2346ZM215.04 102V100.883H9.80664V102V103.117H215.04V102ZM9.80664 102V100.883C5.0078 100.883 1.11702 96.9929 1.11691 92.1943L0 92.1943L-1.11691 92.1944C-1.11677 98.2269 3.77434 103.117 9.80664 103.117V102ZM0 92.1943H1.11691V29.1504H0H-1.11691V92.1943H0ZM2.91438 22.1746L3.69934 22.9691L23.2806 3.6246L22.4957 2.83003L21.7107 2.03547L2.12943 21.38L2.91438 22.1746ZM29.3872 0V1.11691H233.194V0V-1.11691H29.3872V0ZM0 29.1504H1.11691C1.11691 26.8276 2.04692 24.6016 3.69934 22.9691L2.91438 22.1746L2.12943 21.38C0.0522019 23.4321 -1.11691 26.2305 -1.11691 29.1504H0ZM221.932 99.1698L221.147 98.3752C219.521 99.982 217.327 100.883 215.04 100.883V102V103.117C217.914 103.117 220.673 101.984 222.717 99.9643L221.932 99.1698ZM22.4957 2.83003L23.2806 3.6246C24.907 2.0179 27.101 1.11691 29.3872 1.11691V0V-1.11691C26.5133 -1.11691 23.7552 0.0157195 21.7107 2.03547L22.4957 2.83003ZM243 74.2589H241.883C241.883 76.5816 240.953 78.8076 239.301 80.44L240.086 81.2346L240.871 82.0291C242.948 79.977 244.117 77.1787 244.117 74.2589H243Z" fill="white" fill-opacity="0.02" mask="url(#path-1-inside-1_291_3044)"/>
<path d="M233.194 0V-1.11691V0ZM243 9.80566H244.117V9.80564L243 9.80566ZM0 92.1943H-1.11691V92.1944L0 92.1943ZM2.91438 22.1746L2.12943 21.38L2.91438 22.1746ZM221.932 99.1698L221.147 98.3752L221.932 99.1698ZM240.086 81.2346L239.301 80.44L240.086 81.2346ZM233.194 0V1.11691C237.993 1.11691 241.883 5.00695 241.883 9.80569L243 9.80566L244.117 9.80564C244.117 3.77329 239.227 -1.11691 233.194 -1.11691V0ZM243 9.80566H241.883V74.2589H243H244.117V9.80566H243ZM240.086 81.2346L239.301 80.44L221.147 98.3752L221.932 99.1698L222.717 99.9643L240.871 82.0291L240.086 81.2346ZM215.04 102V100.883H9.80664V102V103.117H215.04V102ZM9.80664 102V100.883C5.0078 100.883 1.11702 96.9929 1.11691 92.1943L0 92.1943L-1.11691 92.1944C-1.11677 98.2269 3.77434 103.117 9.80664 103.117V102ZM0 92.1943H1.11691V29.1504H0H-1.11691V92.1943H0ZM2.91438 22.1746L3.69934 22.9691L23.2806 3.6246L22.4957 2.83003L21.7107 2.03547L2.12943 21.38L2.91438 22.1746ZM29.3872 0V1.11691H233.194V0V-1.11691H29.3872V0ZM0 29.1504H1.11691C1.11691 26.8276 2.04692 24.6016 3.69934 22.9691L2.91438 22.1746L2.12943 21.38C0.0522019 23.4321 -1.11691 26.2305 -1.11691 29.1504H0ZM221.932 99.1698L221.147 98.3752C219.521 99.982 217.327 100.883 215.04 100.883V102V103.117C217.914 103.117 220.673 101.984 222.717 99.9643L221.932 99.1698ZM22.4957 2.83003L23.2806 3.6246C24.907 2.0179 27.101 1.11691 29.3872 1.11691V0V-1.11691C26.5133 -1.11691 23.7552 0.0157195 21.7107 2.03547L22.4957 2.83003ZM243 74.2589H241.883C241.883 76.5816 240.953 78.8076 239.301 80.44L240.086 81.2346L240.871 82.0291C242.948 79.977 244.117 77.1787 244.117 74.2589H243Z" fill="url(#paint0_linear_291_3044)" fill-opacity="0.35" mask="url(#path-1-inside-1_291_3044)"/>
<path d="M233.194 0V-1.11691V0ZM243 9.80566H244.117V9.80564L243 9.80566ZM0 92.1943H-1.11691V92.1944L0 92.1943ZM2.91438 22.1746L2.12943 21.38L2.91438 22.1746ZM221.932 99.1698L221.147 98.3752L221.932 99.1698ZM240.086 81.2346L239.301 80.44L240.086 81.2346ZM233.194 0V1.11691C237.993 1.11691 241.883 5.00695 241.883 9.80569L243 9.80566L244.117 9.80564C244.117 3.77329 239.227 -1.11691 233.194 -1.11691V0ZM243 9.80566H241.883V74.2589H243H244.117V9.80566H243ZM240.086 81.2346L239.301 80.44L221.147 98.3752L221.932 99.1698L222.717 99.9643L240.871 82.0291L240.086 81.2346ZM215.04 102V100.883H9.80664V102V103.117H215.04V102ZM9.80664 102V100.883C5.0078 100.883 1.11702 96.9929 1.11691 92.1943L0 92.1943L-1.11691 92.1944C-1.11677 98.2269 3.77434 103.117 9.80664 103.117V102ZM0 92.1943H1.11691V29.1504H0H-1.11691V92.1943H0ZM2.91438 22.1746L3.69934 22.9691L23.2806 3.6246L22.4957 2.83003L21.7107 2.03547L2.12943 21.38L2.91438 22.1746ZM29.3872 0V1.11691H233.194V0V-1.11691H29.3872V0ZM0 29.1504H1.11691C1.11691 26.8276 2.04692 24.6016 3.69934 22.9691L2.91438 22.1746L2.12943 21.38C0.0522019 23.4321 -1.11691 26.2305 -1.11691 29.1504H0ZM221.932 99.1698L221.147 98.3752C219.521 99.982 217.327 100.883 215.04 100.883V102V103.117C217.914 103.117 220.673 101.984 222.717 99.9643L221.932 99.1698ZM22.4957 2.83003L23.2806 3.6246C24.907 2.0179 27.101 1.11691 29.3872 1.11691V0V-1.11691C26.5133 -1.11691 23.7552 0.0157195 21.7107 2.03547L22.4957 2.83003ZM243 74.2589H241.883C241.883 76.5816 240.953 78.8076 239.301 80.44L240.086 81.2346L240.871 82.0291C242.948 79.977 244.117 77.1787 244.117 74.2589H243Z" fill="url(#paint1_linear_291_3044)" fill-opacity="0.5" mask="url(#path-1-inside-1_291_3044)"/>
<path d="M233.194 0V-1.11691V0ZM243 9.80566H244.117V9.80564L243 9.80566ZM0 92.1943H-1.11691V92.1944L0 92.1943ZM2.91438 22.1746L2.12943 21.38L2.91438 22.1746ZM221.932 99.1698L221.147 98.3752L221.932 99.1698ZM240.086 81.2346L239.301 80.44L240.086 81.2346ZM233.194 0V1.11691C237.993 1.11691 241.883 5.00695 241.883 9.80569L243 9.80566L244.117 9.80564C244.117 3.77329 239.227 -1.11691 233.194 -1.11691V0ZM243 9.80566H241.883V74.2589H243H244.117V9.80566H243ZM240.086 81.2346L239.301 80.44L221.147 98.3752L221.932 99.1698L222.717 99.9643L240.871 82.0291L240.086 81.2346ZM215.04 102V100.883H9.80664V102V103.117H215.04V102ZM9.80664 102V100.883C5.0078 100.883 1.11702 96.9929 1.11691 92.1943L0 92.1943L-1.11691 92.1944C-1.11677 98.2269 3.77434 103.117 9.80664 103.117V102ZM0 92.1943H1.11691V29.1504H0H-1.11691V92.1943H0ZM2.91438 22.1746L3.69934 22.9691L23.2806 3.6246L22.4957 2.83003L21.7107 2.03547L2.12943 21.38L2.91438 22.1746ZM29.3872 0V1.11691H233.194V0V-1.11691H29.3872V0ZM0 29.1504H1.11691C1.11691 26.8276 2.04692 24.6016 3.69934 22.9691L2.91438 22.1746L2.12943 21.38C0.0522019 23.4321 -1.11691 26.2305 -1.11691 29.1504H0ZM221.932 99.1698L221.147 98.3752C219.521 99.982 217.327 100.883 215.04 100.883V102V103.117C217.914 103.117 220.673 101.984 222.717 99.9643L221.932 99.1698ZM22.4957 2.83003L23.2806 3.6246C24.907 2.0179 27.101 1.11691 29.3872 1.11691V0V-1.11691C26.5133 -1.11691 23.7552 0.0157195 21.7107 2.03547L22.4957 2.83003ZM243 74.2589H241.883C241.883 76.5816 240.953 78.8076 239.301 80.44L240.086 81.2346L240.871 82.0291C242.948 79.977 244.117 77.1787 244.117 74.2589H243Z" fill="url(#paint2_linear_291_3044)" fill-opacity="0.5" mask="url(#path-1-inside-1_291_3044)"/>
<defs>
<linearGradient id="paint0_linear_291_3044" x1="92.1338" y1="72.435" x2="115.912" y2="100.04" gradientUnits="userSpaceOnUse">
<stop stop-color="white" stop-opacity="0"/>
<stop offset="1" stop-color="#FF8E2A"/>
</linearGradient>
<linearGradient id="paint1_linear_291_3044" x1="81" y1="48" x2="78.1655" y2="-30.335" gradientUnits="userSpaceOnUse">
<stop stop-color="white" stop-opacity="0"/>
<stop offset="1" stop-color="white"/>
</linearGradient>
<linearGradient id="paint2_linear_291_3044" x1="29.5" y1="87" x2="-4.66031" y2="125.808" gradientUnits="userSpaceOnUse">
<stop stop-color="white" stop-opacity="0"/>
<stop offset="1" stop-color="white"/>
</linearGradient>
</defs>
</svg>
