<svg width="430" height="6" viewBox="0 0 430 6" fill="none" xmlns="http://www.w3.org/2000/svg">
<line opacity="0.23" x1="0.962439" y1="0.962442" x2="0.962438" y2="4.8122" stroke="black" stroke-width="1.92488" stroke-linecap="round"/>
<line opacity="0.23" x1="185.751" y1="0.962439" x2="185.751" y2="4.81219" stroke="black" stroke-width="1.92488" stroke-linecap="round"/>
<line opacity="0.23" x1="93.3565" y1="0.962439" x2="93.3565" y2="4.81219" stroke="black" stroke-width="1.92488" stroke-linecap="round"/>
<line opacity="0.23" x1="278.145" y1="0.962439" x2="278.145" y2="4.81219" stroke="black" stroke-width="1.92488" stroke-linecap="round"/>
<line opacity="0.23" x1="47.1595" y1="0.962439" x2="47.1595" y2="4.81219" stroke="black" stroke-width="1.92488" stroke-linecap="round"/>
<line opacity="0.23" x1="231.948" y1="0.962439" x2="231.948" y2="4.81219" stroke="black" stroke-width="1.92488" stroke-linecap="round"/>
<line opacity="0.23" x1="139.554" y1="0.962439" x2="139.554" y2="4.81219" stroke="black" stroke-width="1.92488" stroke-linecap="round"/>
<line opacity="0.23" x1="324.342" y1="0.962439" x2="324.342" y2="4.81219" stroke="black" stroke-width="1.92488" stroke-linecap="round"/>
<line opacity="0.23" x1="370.539" y1="0.962439" x2="370.539" y2="4.81219" stroke="black" stroke-width="1.92488" stroke-linecap="round"/>
<line opacity="0.23" x1="24.0609" y1="0.962439" x2="24.0609" y2="4.81219" stroke="black" stroke-width="1.92488" stroke-linecap="round"/>
<line opacity="0.23" x1="208.849" y1="0.962439" x2="208.849" y2="4.81219" stroke="black" stroke-width="1.92488" stroke-linecap="round"/>
<line opacity="0.23" x1="116.455" y1="0.962439" x2="116.455" y2="4.81219" stroke="black" stroke-width="1.92488" stroke-linecap="round"/>
<line opacity="0.23" x1="301.243" y1="0.962439" x2="301.243" y2="4.81219" stroke="black" stroke-width="1.92488" stroke-linecap="round"/>
<line opacity="0.23" x1="70.258" y1="0.962439" x2="70.258" y2="4.81219" stroke="black" stroke-width="1.92488" stroke-linecap="round"/>
<line opacity="0.23" x1="255.046" y1="0.962439" x2="255.046" y2="4.81219" stroke="black" stroke-width="1.92488" stroke-linecap="round"/>
<line opacity="0.23" x1="162.652" y1="0.962439" x2="162.652" y2="4.81219" stroke="black" stroke-width="1.92488" stroke-linecap="round"/>
<line opacity="0.23" x1="347.44" y1="0.962439" x2="347.44" y2="4.81219" stroke="black" stroke-width="1.92488" stroke-linecap="round"/>
<line opacity="0.23" x1="393.637" y1="0.962439" x2="393.637" y2="4.81219" stroke="black" stroke-width="1.92488" stroke-linecap="round"/>
<line opacity="0.23" x1="416.736" y1="0.962439" x2="416.736" y2="4.81219" stroke="black" stroke-width="1.92488" stroke-linecap="round"/>
<line opacity="0.23" x1="12.5117" y1="0.962439" x2="12.5117" y2="4.81219" stroke="black" stroke-width="1.92488" stroke-linecap="round"/>
<line opacity="0.23" x1="197.3" y1="0.962439" x2="197.3" y2="4.81219" stroke="black" stroke-width="1.92488" stroke-linecap="round"/>
<line opacity="0.23" x1="104.906" y1="0.962439" x2="104.906" y2="4.81219" stroke="black" stroke-width="1.92488" stroke-linecap="round"/>
<line opacity="0.23" x1="289.694" y1="0.962439" x2="289.694" y2="4.81219" stroke="black" stroke-width="1.92488" stroke-linecap="round"/>
<line opacity="0.23" x1="58.7088" y1="0.962439" x2="58.7088" y2="4.81219" stroke="black" stroke-width="1.92488" stroke-linecap="round"/>
<line opacity="0.23" x1="243.497" y1="0.962439" x2="243.497" y2="4.81219" stroke="black" stroke-width="1.92488" stroke-linecap="round"/>
<line opacity="0.23" x1="151.103" y1="0.962439" x2="151.103" y2="4.81219" stroke="black" stroke-width="1.92488" stroke-linecap="round"/>
<line opacity="0.23" x1="335.891" y1="0.962439" x2="335.891" y2="4.81219" stroke="black" stroke-width="1.92488" stroke-linecap="round"/>
<line opacity="0.23" x1="382.088" y1="0.962439" x2="382.088" y2="4.81219" stroke="black" stroke-width="1.92488" stroke-linecap="round"/>
<line opacity="0.23" x1="35.6102" y1="0.962439" x2="35.6102" y2="4.81219" stroke="black" stroke-width="1.92488" stroke-linecap="round"/>
<line opacity="0.23" x1="220.398" y1="0.962439" x2="220.398" y2="4.81219" stroke="black" stroke-width="1.92488" stroke-linecap="round"/>
<line opacity="0.23" x1="128.004" y1="0.962439" x2="128.004" y2="4.81219" stroke="black" stroke-width="1.92488" stroke-linecap="round"/>
<line opacity="0.23" x1="312.793" y1="0.962439" x2="312.793" y2="4.81219" stroke="black" stroke-width="1.92488" stroke-linecap="round"/>
<line opacity="0.23" x1="81.8073" y1="0.962439" x2="81.8073" y2="4.81219" stroke="black" stroke-width="1.92488" stroke-linecap="round"/>
<line opacity="0.23" x1="266.595" y1="0.962439" x2="266.595" y2="4.81219" stroke="black" stroke-width="1.92488" stroke-linecap="round"/>
<line opacity="0.23" x1="174.201" y1="0.962439" x2="174.201" y2="4.81219" stroke="black" stroke-width="1.92488" stroke-linecap="round"/>
<line opacity="0.23" x1="358.99" y1="0.962439" x2="358.99" y2="4.81219" stroke="black" stroke-width="1.92488" stroke-linecap="round"/>
<line opacity="0.23" x1="405.187" y1="0.962439" x2="405.187" y2="4.81219" stroke="black" stroke-width="1.92488" stroke-linecap="round"/>
<line opacity="0.23" x1="428.285" y1="0.962439" x2="428.285" y2="4.81219" stroke="black" stroke-width="1.92488" stroke-linecap="round"/>
</svg>
