<svg width="236" height="66" viewBox="0 0 236 66" fill="none" xmlns="http://www.w3.org/2000/svg">
<rect opacity="0.07" x="4" y="4" width="228" height="58" fill="#FFD9B8"/>
<rect width="4" height="12" fill="#FF8E2A"/>
<rect y="4" width="4" height="30" transform="rotate(-90 0 4)" fill="#FF8E2A"/>
<rect width="4" height="12" transform="matrix(-1 0 0 1 236 0)" fill="#FF8E2A"/>
<rect width="4" height="30" transform="matrix(4.37114e-08 -1 -1 -4.37114e-08 236 4)" fill="#FF8E2A"/>
<rect width="4" height="12" transform="matrix(1 0 0 -1 0 66)" fill="#FF8E2A"/>
<rect width="4" height="30" transform="matrix(-4.37114e-08 1 1 4.37114e-08 0 62)" fill="#FF8E2A"/>
<rect x="236" y="66" width="4" height="12" transform="rotate(180 236 66)" fill="#FF8E2A"/>
<rect x="236" y="62" width="4" height="30" transform="rotate(90 236 62)" fill="#FF8E2A"/>
<path d="M38.666 40.5538V24.9586C38.666 24.7002 38.8304 24.5123 39.1123 24.5123H45.759C46.0174 24.5123 46.3227 24.6297 46.5106 24.8176L48.5069 26.7905C48.6948 26.9784 48.8358 27.2837 48.8358 27.5656V30.7833C48.8358 31.0416 48.7183 31.347 48.5304 31.5348L46.4166 33.6721L48.6479 37.9937C48.7653 38.2286 48.8358 38.5809 48.8358 38.8392V40.5538C48.8358 40.8121 48.6714 41 48.413 41H47.0273C46.7454 41 46.581 40.8121 46.581 40.5538V38.7688L44.021 33.86H40.9207V40.5538C40.9207 40.8121 40.7563 41 40.4745 41H39.1123C38.8304 41 38.666 40.8121 38.666 40.5538ZM40.9207 31.6523H45.2423L46.5575 30.2901V28.0588L45.2188 26.7436H40.9207V31.6523ZM51.992 40.5538V24.9586C51.992 24.7002 52.1564 24.5123 52.4382 24.5123H61.7155C61.9973 24.5123 62.1617 24.7002 62.1617 24.9586V26.2973C62.1617 26.5557 61.9973 26.7201 61.7155 26.7201H54.2467V31.4879H59.8365C60.0949 31.4879 60.2828 31.6523 60.2828 31.9106V33.2494C60.2828 33.5077 60.0949 33.6956 59.8365 33.6956H54.2467V38.7922H61.7155C61.9973 38.7922 62.1617 38.9567 62.1617 39.215V40.5538C62.1617 40.8121 61.9973 41 61.7155 41H52.4382C52.1564 41 51.992 40.8121 51.992 40.5538ZM70.9548 33.1554V31.8167C70.9548 31.5348 71.1192 31.3704 71.3775 31.3704H75.0414C75.3233 31.3704 75.4877 31.5348 75.4877 31.8167V37.9232C75.4877 38.1816 75.3703 38.4869 75.1824 38.6748L73.186 40.6947C72.9981 40.8826 72.6928 41 72.4109 41H68.3947C68.1129 41 67.8075 40.8826 67.6196 40.6947L65.6233 38.6748C65.4354 38.4869 65.3179 38.1816 65.3179 37.9232V27.5891C65.3179 27.3307 65.4354 27.0254 65.6233 26.8375L67.6196 24.8176C67.8075 24.6297 68.1129 24.5123 68.3947 24.5123H72.4109C72.6928 24.5123 72.9981 24.6297 73.186 24.8176L75.1824 26.8375C75.3703 27.0254 75.4877 27.3307 75.4877 27.5891V29.3271C75.4877 29.5854 75.3233 29.7733 75.0414 29.7733H73.6792C73.3974 29.7733 73.233 29.5854 73.233 29.3271V28.0353L71.9412 26.7201H68.8879L67.5727 28.0353V37.477L68.8879 38.7922H71.9412L73.233 37.477V33.6017H71.3775C71.1192 33.6017 70.9548 33.4138 70.9548 33.1554ZM78.6439 26.2973V24.9586C78.6439 24.7002 78.8083 24.5123 79.0902 24.5123H87.4279C87.7098 24.5123 87.8742 24.7002 87.8742 24.9586V26.2973C87.8742 26.5557 87.7098 26.7201 87.4279 26.7201H84.3982V38.7922H87.4279C87.7098 38.7922 87.8742 38.9567 87.8742 39.215V40.5538C87.8742 40.8121 87.7098 41 87.4279 41H79.0902C78.8083 41 78.6439 40.8121 78.6439 40.5538V39.215C78.6439 38.9567 78.8083 38.7922 79.0902 38.7922H82.1434V26.7201H79.0902C78.8083 26.7201 78.6439 26.5557 78.6439 26.2973ZM94.1062 24.5358H98.1225C98.3808 24.5358 98.6862 24.6532 98.8741 24.8411L100.87 26.8375C101.058 27.0254 101.199 27.3307 101.199 27.6126V29.3271C101.176 29.6089 101.011 29.7733 100.73 29.7733H99.3673C99.0854 29.7733 98.921 29.6089 98.921 29.3271V28.1058L97.6527 26.7436H94.576L93.2842 28.1058L93.3077 30.5484L100.776 33.1319C101.035 33.2259 101.199 33.4608 101.199 33.7191V37.9232C101.199 38.1816 101.058 38.4869 100.87 38.6748L98.8741 40.6712C98.6862 40.8591 98.3808 40.9765 98.1225 40.9765H94.1062C93.8244 40.9765 93.5191 40.8591 93.3312 40.6712L91.3348 38.6748C91.1469 38.4869 91.0295 38.1816 91.0295 37.9232V36.1852C91.0295 35.9269 91.2174 35.739 91.4757 35.739H92.8614C93.1198 35.739 93.3077 35.9269 93.3077 36.1852V37.4065L94.5995 38.7688H97.6293L98.921 37.4065V34.9874L91.4522 32.4039C91.1939 32.3099 91.0295 32.075 91.0295 31.8167V27.6126C91.0295 27.3307 91.1469 27.0254 91.3348 26.8375L93.3312 24.8411C93.5191 24.6532 93.8244 24.5358 94.1062 24.5358ZM107.613 40.5538V26.7201H104.114C103.832 26.7201 103.667 26.5557 103.667 26.2738V24.9586C103.667 24.7002 103.832 24.5123 104.114 24.5123H113.391C113.673 24.5123 113.837 24.7002 113.837 24.9586V26.2738C113.837 26.5557 113.673 26.7201 113.391 26.7201H109.868V40.5538C109.868 40.8121 109.703 41 109.422 41H108.059C107.778 41 107.613 40.8121 107.613 40.5538ZM116.993 40.5538V24.9586C116.993 24.7002 117.158 24.5123 117.44 24.5123H124.086C124.345 24.5123 124.65 24.6297 124.838 24.8176L126.834 26.7905C127.022 26.9784 127.163 27.2837 127.163 27.5656V30.7833C127.163 31.0416 127.046 31.347 126.858 31.5348L124.744 33.6721L126.975 37.9937C127.093 38.2286 127.163 38.5809 127.163 38.8392V40.5538C127.163 40.8121 126.999 41 126.74 41H125.355C125.073 41 124.908 40.8121 124.908 40.5538V38.7688L122.348 33.86H119.248V40.5538C119.248 40.8121 119.084 41 118.802 41H117.44C117.158 41 116.993 40.8121 116.993 40.5538ZM119.248 31.6523H123.57L124.885 30.2901V28.0588L123.546 26.7436H119.248V31.6523ZM133.396 24.5123H137.412C137.694 24.5123 137.999 24.6297 138.187 24.8176L140.184 26.8375C140.372 27.0254 140.489 27.3307 140.489 27.5891V40.5538C140.489 40.8121 140.325 41 140.043 41H138.681C138.399 41 138.234 40.8121 138.234 40.5538V37.477H132.574V40.5538C132.574 40.8121 132.41 41 132.128 41H130.766C130.484 41 130.319 40.8121 130.319 40.5538V27.5891C130.319 27.3307 130.437 27.0254 130.625 26.8375L132.621 24.8176C132.809 24.6297 133.114 24.5123 133.396 24.5123ZM132.574 28.0353V35.2692H138.234V28.0353L136.919 26.7201H133.866L132.574 28.0353ZM147.064 40.5538V26.7201H143.564C143.282 26.7201 143.118 26.5557 143.118 26.2738V24.9586C143.118 24.7002 143.282 24.5123 143.564 24.5123H152.841C153.123 24.5123 153.287 24.7002 153.287 24.9586V26.2738C153.287 26.5557 153.123 26.7201 152.841 26.7201H149.318V40.5538C149.318 40.8121 149.154 41 148.872 41H147.51C147.228 41 147.064 40.8121 147.064 40.5538ZM156.444 26.2973V24.9586C156.444 24.7002 156.608 24.5123 156.89 24.5123H165.228C165.51 24.5123 165.674 24.7002 165.674 24.9586V26.2973C165.674 26.5557 165.51 26.7201 165.228 26.7201H162.198V38.7922H165.228C165.51 38.7922 165.674 38.9567 165.674 39.215V40.5538C165.674 40.8121 165.51 41 165.228 41H156.89C156.608 41 156.444 40.8121 156.444 40.5538V39.215C156.444 38.9567 156.608 38.7922 156.89 38.7922H159.943V26.7201H156.89C156.608 26.7201 156.444 26.5557 156.444 26.2973ZM171.906 24.5123H175.922C176.204 24.5123 176.509 24.6297 176.697 24.8176L178.694 26.8375C178.882 27.0254 178.999 27.3307 178.999 27.5891V37.9232C178.999 38.1816 178.882 38.4869 178.694 38.6748L176.697 40.6947C176.509 40.8826 176.204 41 175.922 41H171.906C171.624 41 171.319 40.8826 171.131 40.6947L169.135 38.6748C168.947 38.4869 168.829 38.1816 168.829 37.9232V27.5891C168.829 27.3307 168.947 27.0254 169.135 26.8375L171.131 24.8176C171.319 24.6297 171.624 24.5123 171.906 24.5123ZM171.084 37.477L172.399 38.7922H175.453L176.744 37.477V28.0588L175.453 26.7201H172.399L171.084 28.0588V37.477ZM182.155 40.5538V24.9586C182.155 24.7002 182.32 24.5123 182.601 24.5123H183.964C184.246 24.5123 184.41 24.7002 184.41 24.9586V25.3813L190.07 35.5981V24.9586C190.07 24.7002 190.235 24.5123 190.517 24.5123H191.879C192.161 24.5123 192.325 24.7002 192.325 24.9586V40.5538C192.325 40.8121 192.161 41 191.879 41H190.517C190.235 41 190.07 40.8121 190.07 40.5538V40.131L184.41 29.9377V40.5538C184.41 40.8121 184.246 41 183.964 41H182.601C182.32 41 182.155 40.8121 182.155 40.5538Z" fill="white"/>
</svg>
