<svg width="32" height="241" viewBox="0 0 32 241" fill="none" xmlns="http://www.w3.org/2000/svg">
<mask id="mask0_183_1819" style="mask-type:alpha" maskUnits="userSpaceOnUse" x="0" y="0" width="32" height="241">
<path fill-rule="evenodd" clip-rule="evenodd" d="M15.9443 0.00616149C15.9443 0.00727907 15.9448 0.00835088 15.9456 0.00914113L30.9992 15.0628C31.5619 15.6254 31.8779 16.3885 31.8779 17.1841V223.621C31.8779 224.416 31.5619 225.179 30.9993 225.742L15.9454 240.796C15.9447 240.797 15.9443 240.798 15.9443 240.799V240.802C15.9443 240.804 15.9418 240.805 15.9403 240.804L15.94 240.803C15.9392 240.803 15.9378 240.803 15.9371 240.804C15.9359 240.805 15.9336 240.804 15.9336 240.802V240.798C15.9336 240.797 15.9332 240.797 15.9326 240.796L0.87868 225.742C0.316071 225.179 0 224.416 0 223.621V17.1841C0 16.3885 0.316071 15.6254 0.87868 15.0628L15.9325 0.00901999C15.9332 0.00830774 15.9336 0.00734104 15.9336 0.00633377V0.0021749C15.9336 0.000326028 15.9358 -0.000599894 15.9371 0.000707458C15.9379 0.00146642 15.9391 0.00152142 15.9399 0.000834288L15.9402 0.000584727C15.9419 -0.000773372 15.9443 0.000385517 15.9443 0.00250694V0.00616149Z" fill="#FF8E2A"/>
</mask>
<g mask="url(#mask0_183_1819)">
<path d="M-61.3256 229.818L115.889 403.309L105.395 414.028L-71.8185 240.537L-61.3256 229.818ZM-69.2766 260.805L107.938 434.296L97.4438 445.015L-79.7705 271.523L-69.2766 260.805ZM-77.3608 291.756L99.8536 465.247L89.3597 475.966L-87.8537 302.475L-77.3608 291.756ZM-85.3128 322.743L91.9015 496.234L81.4086 506.953L-95.8057 333.462L-85.3128 322.743ZM-93.1308 353.764L84.0836 527.255L73.5906 537.974L-103.624 364.482L-93.1308 353.764ZM-101.215 384.716L75.9994 558.208L65.5065 568.925L-111.708 395.435L-101.215 384.716ZM-109.166 415.702L68.0484 589.193L57.5545 599.912L-119.66 426.421L-109.166 415.702Z" fill="#FF8E2A"/>
<path d="M-38.2675 -19.3695L138.947 154.121L128.453 164.84L-48.7604 -8.65063L-38.2675 -19.3695ZM-46.2185 11.6173L130.996 185.108L120.502 195.827L-56.7124 22.3352L-46.2185 11.6173ZM-54.3027 42.5689L122.912 216.06L112.418 226.779L-64.7956 53.2878L-54.3027 42.5689ZM-62.2547 73.5557L114.96 247.047L104.467 257.765L-72.7476 84.2745L-62.2547 73.5557ZM-70.0727 104.577L107.142 278.067L96.6488 288.786L-80.5656 115.294L-70.0727 104.577ZM-78.1568 135.528L99.0575 309.02L88.5646 319.738L-88.6497 146.247L-78.1568 135.528ZM-86.1079 166.515L91.1065 340.006L80.6126 350.725L-96.6018 177.234L-86.1079 166.515Z" fill="#FF8E2A"/>
<path d="M-15.2094 -268.556L162.005 -95.0656L151.511 -84.3467L-25.7023 -257.838L-15.2094 -268.556ZM-23.1604 -237.57L154.054 -64.0788L143.56 -53.36L-33.6543 -226.852L-23.1604 -237.57ZM-31.2446 -206.618L145.97 -33.1272L135.476 -22.4083L-41.7375 -195.899L-31.2446 -206.618ZM-39.1966 -175.631L138.018 -2.1404L127.525 8.57844L-49.6895 -164.912L-39.1966 -175.631ZM-47.0146 -144.61L130.2 28.8805L119.707 39.5993L-57.5075 -133.893L-47.0146 -144.61ZM-55.0987 -113.659L122.116 59.8331L111.623 70.551L-65.5916 -102.94L-55.0987 -113.659ZM-63.0498 -82.672L114.165 90.8189L103.671 101.538L-73.5437 -71.9532L-63.0498 -82.672Z" fill="#FF8E2A"/>
</g>
</svg>
