<svg width="525" height="456" viewBox="0 0 525 456" fill="none" xmlns="http://www.w3.org/2000/svg">
<mask id="path-1-inside-1_2102_26" fill="white">
<path d="M499.65 0C513.65 0 525 11.3496 525 25.3496V399.393C525 407.676 520.953 415.437 514.162 420.178L469.67 451.24C465.414 454.211 460.349 455.805 455.158 455.805H69.8424C64.6522 455.805 59.5872 454.212 55.3315 451.24L10.8383 420.178C4.04673 415.437 0 407.676 0 399.393V25.3496C0 11.3496 11.3496 0 25.3496 0H499.65Z"/>
</mask>
<path d="M499.65 0C513.65 0 525 11.3496 525 25.3496V399.393C525 407.676 520.953 415.437 514.162 420.178L469.67 451.24C465.414 454.211 460.349 455.805 455.158 455.805H69.8424C64.6522 455.805 59.5872 454.212 55.3315 451.24L10.8383 420.178C4.04673 415.437 0 407.676 0 399.393V25.3496C0 11.3496 11.3496 0 25.3496 0H499.65Z" fill="#898989" fill-opacity="0.05"/>
<path d="M10.8383 420.178L12.4912 417.811L10.8383 420.178ZM55.3315 451.24L56.9843 448.873L55.3315 451.24ZM469.67 451.24L471.322 453.608L469.67 451.24ZM514.162 420.178L512.509 417.811L514.162 420.178ZM499.65 0V2.88732C512.056 2.88732 522.113 12.9442 522.113 25.3496H525H527.887C527.887 9.755 515.245 -2.88732 499.65 -2.88732V0ZM525 25.3496H522.113V399.393H525H527.887V25.3496H525ZM514.162 420.178L512.509 417.811L468.017 448.873L469.67 451.24L471.322 453.608L515.815 422.545L514.162 420.178ZM455.158 455.805V452.917H69.8424V455.805V458.692H455.158V455.805ZM55.3315 451.24L56.9843 448.873L12.4912 417.811L10.8383 420.178L9.18553 422.545L53.6787 453.608L55.3315 451.24ZM0 399.393H2.88732V25.3496H0H-2.88732V399.393H0ZM0 25.3496H2.88732C2.88732 12.9442 12.9442 2.88732 25.3496 2.88732V0V-2.88732C9.755 -2.88732 -2.88732 9.755 -2.88732 25.3496H0ZM25.3496 0V2.88732H499.65V0V-2.88732H25.3496V0ZM10.8383 420.178L12.4912 417.811C6.47312 413.609 2.88732 406.733 2.88732 399.393H0H-2.88732C-2.88732 408.619 1.62034 417.264 9.18553 422.545L10.8383 420.178ZM69.8424 455.805V452.917C65.2434 452.917 60.7552 451.506 56.9843 448.873L55.3315 451.24L53.6787 453.608C58.4191 456.917 64.061 458.692 69.8424 458.692V455.805ZM469.67 451.24L468.017 448.873C464.246 451.506 459.758 452.917 455.158 452.917V455.805V458.692C460.94 458.692 466.582 456.917 471.322 453.608L469.67 451.24ZM525 399.393H522.113C522.113 406.733 518.527 413.609 512.509 417.811L514.162 420.178L515.815 422.545C523.38 417.264 527.887 408.619 527.887 399.393H525Z" fill="white" fill-opacity="0.02" mask="url(#path-1-inside-1_2102_26)"/>
<path d="M10.8383 420.178L12.4912 417.811L10.8383 420.178ZM55.3315 451.24L56.9843 448.873L55.3315 451.24ZM469.67 451.24L471.322 453.608L469.67 451.24ZM514.162 420.178L512.509 417.811L514.162 420.178ZM499.65 0V2.88732C512.056 2.88732 522.113 12.9442 522.113 25.3496H525H527.887C527.887 9.755 515.245 -2.88732 499.65 -2.88732V0ZM525 25.3496H522.113V399.393H525H527.887V25.3496H525ZM514.162 420.178L512.509 417.811L468.017 448.873L469.67 451.24L471.322 453.608L515.815 422.545L514.162 420.178ZM455.158 455.805V452.917H69.8424V455.805V458.692H455.158V455.805ZM55.3315 451.24L56.9843 448.873L12.4912 417.811L10.8383 420.178L9.18553 422.545L53.6787 453.608L55.3315 451.24ZM0 399.393H2.88732V25.3496H0H-2.88732V399.393H0ZM0 25.3496H2.88732C2.88732 12.9442 12.9442 2.88732 25.3496 2.88732V0V-2.88732C9.755 -2.88732 -2.88732 9.755 -2.88732 25.3496H0ZM25.3496 0V2.88732H499.65V0V-2.88732H25.3496V0ZM10.8383 420.178L12.4912 417.811C6.47312 413.609 2.88732 406.733 2.88732 399.393H0H-2.88732C-2.88732 408.619 1.62034 417.264 9.18553 422.545L10.8383 420.178ZM69.8424 455.805V452.917C65.2434 452.917 60.7552 451.506 56.9843 448.873L55.3315 451.24L53.6787 453.608C58.4191 456.917 64.061 458.692 69.8424 458.692V455.805ZM469.67 451.24L468.017 448.873C464.246 451.506 459.758 452.917 455.158 452.917V455.805V458.692C460.94 458.692 466.582 456.917 471.322 453.608L469.67 451.24ZM525 399.393H522.113C522.113 406.733 518.527 413.609 512.509 417.811L514.162 420.178L515.815 422.545C523.38 417.264 527.887 408.619 527.887 399.393H525Z" fill="url(#paint0_linear_2102_26)" fill-opacity="0.3" mask="url(#path-1-inside-1_2102_26)"/>
<path d="M10.8383 420.178L12.4912 417.811L10.8383 420.178ZM55.3315 451.24L56.9843 448.873L55.3315 451.24ZM469.67 451.24L471.322 453.608L469.67 451.24ZM514.162 420.178L512.509 417.811L514.162 420.178ZM499.65 0V2.88732C512.056 2.88732 522.113 12.9442 522.113 25.3496H525H527.887C527.887 9.755 515.245 -2.88732 499.65 -2.88732V0ZM525 25.3496H522.113V399.393H525H527.887V25.3496H525ZM514.162 420.178L512.509 417.811L468.017 448.873L469.67 451.24L471.322 453.608L515.815 422.545L514.162 420.178ZM455.158 455.805V452.917H69.8424V455.805V458.692H455.158V455.805ZM55.3315 451.24L56.9843 448.873L12.4912 417.811L10.8383 420.178L9.18553 422.545L53.6787 453.608L55.3315 451.24ZM0 399.393H2.88732V25.3496H0H-2.88732V399.393H0ZM0 25.3496H2.88732C2.88732 12.9442 12.9442 2.88732 25.3496 2.88732V0V-2.88732C9.755 -2.88732 -2.88732 9.755 -2.88732 25.3496H0ZM25.3496 0V2.88732H499.65V0V-2.88732H25.3496V0ZM10.8383 420.178L12.4912 417.811C6.47312 413.609 2.88732 406.733 2.88732 399.393H0H-2.88732C-2.88732 408.619 1.62034 417.264 9.18553 422.545L10.8383 420.178ZM69.8424 455.805V452.917C65.2434 452.917 60.7552 451.506 56.9843 448.873L55.3315 451.24L53.6787 453.608C58.4191 456.917 64.061 458.692 69.8424 458.692V455.805ZM469.67 451.24L468.017 448.873C464.246 451.506 459.758 452.917 455.158 452.917V455.805V458.692C460.94 458.692 466.582 456.917 471.322 453.608L469.67 451.24ZM525 399.393H522.113C522.113 406.733 518.527 413.609 512.509 417.811L514.162 420.178L515.815 422.545C523.38 417.264 527.887 408.619 527.887 399.393H525Z" fill="url(#paint1_linear_2102_26)" fill-opacity="0.4" mask="url(#path-1-inside-1_2102_26)"/>
<path d="M10.8383 420.178L12.4912 417.811L10.8383 420.178ZM55.3315 451.24L56.9843 448.873L55.3315 451.24ZM469.67 451.24L471.322 453.608L469.67 451.24ZM514.162 420.178L512.509 417.811L514.162 420.178ZM499.65 0V2.88732C512.056 2.88732 522.113 12.9442 522.113 25.3496H525H527.887C527.887 9.755 515.245 -2.88732 499.65 -2.88732V0ZM525 25.3496H522.113V399.393H525H527.887V25.3496H525ZM514.162 420.178L512.509 417.811L468.017 448.873L469.67 451.24L471.322 453.608L515.815 422.545L514.162 420.178ZM455.158 455.805V452.917H69.8424V455.805V458.692H455.158V455.805ZM55.3315 451.24L56.9843 448.873L12.4912 417.811L10.8383 420.178L9.18553 422.545L53.6787 453.608L55.3315 451.24ZM0 399.393H2.88732V25.3496H0H-2.88732V399.393H0ZM0 25.3496H2.88732C2.88732 12.9442 12.9442 2.88732 25.3496 2.88732V0V-2.88732C9.755 -2.88732 -2.88732 9.755 -2.88732 25.3496H0ZM25.3496 0V2.88732H499.65V0V-2.88732H25.3496V0ZM10.8383 420.178L12.4912 417.811C6.47312 413.609 2.88732 406.733 2.88732 399.393H0H-2.88732C-2.88732 408.619 1.62034 417.264 9.18553 422.545L10.8383 420.178ZM69.8424 455.805V452.917C65.2434 452.917 60.7552 451.506 56.9843 448.873L55.3315 451.24L53.6787 453.608C58.4191 456.917 64.061 458.692 69.8424 458.692V455.805ZM469.67 451.24L468.017 448.873C464.246 451.506 459.758 452.917 455.158 452.917V455.805V458.692C460.94 458.692 466.582 456.917 471.322 453.608L469.67 451.24ZM525 399.393H522.113C522.113 406.733 518.527 413.609 512.509 417.811L514.162 420.178L515.815 422.545C523.38 417.264 527.887 408.619 527.887 399.393H525Z" fill="url(#paint2_linear_2102_26)" fill-opacity="0.4" mask="url(#path-1-inside-1_2102_26)"/>
<defs>
<linearGradient id="paint0_linear_2102_26" x1="78.2901" y1="35.8677" x2="-191.781" y2="184.787" gradientUnits="userSpaceOnUse">
<stop stop-color="white" stop-opacity="0"/>
<stop offset="1" stop-color="#FF8E2A"/>
</linearGradient>
<linearGradient id="paint1_linear_2102_26" x1="490.116" y1="61.6608" x2="516.747" y2="-136.288" gradientUnits="userSpaceOnUse">
<stop stop-color="white" stop-opacity="0"/>
<stop offset="1" stop-color="white"/>
</linearGradient>
<linearGradient id="paint2_linear_2102_26" x1="498.778" y1="391.864" x2="549.502" y2="416.629" gradientUnits="userSpaceOnUse">
<stop stop-color="white" stop-opacity="0"/>
<stop offset="1" stop-color="white"/>
</linearGradient>
</defs>
</svg>
