<svg width="484" height="322" viewBox="0 0 484 322" fill="none" xmlns="http://www.w3.org/2000/svg">
<g style="mix-blend-mode:screen">
<path d="M33.4817 3.46117H62.3978C64.2579 3.46117 66.4561 4.30667 67.8089 5.65946L82.1824 20.0329C83.5352 21.3857 84.5498 23.584 84.5498 25.6132V37.9575C84.3807 39.9867 83.197 41.1704 81.1678 41.1704H71.36C69.3308 41.1704 68.1471 39.9867 68.1471 37.9575V29.1643L59.0158 19.3565H36.8637L27.5632 29.1643L27.7323 46.7507L81.506 65.3516C83.3661 66.028 84.5498 67.719 84.5498 69.5791V99.8479C84.5498 101.708 83.5352 103.906 82.1824 105.259L67.8089 119.633C66.4561 120.985 64.2579 121.831 62.3978 121.831H33.4817C31.4525 121.831 29.2542 120.985 27.9014 119.633L13.528 105.259C12.1752 103.906 11.3297 101.708 11.3297 99.8479V87.3346C11.3297 85.4745 12.6825 84.1217 14.5426 84.1217H24.5194C26.3795 84.1217 27.7323 85.4745 27.7323 87.3346V96.1278L37.0328 105.936H58.8467L68.1471 96.1278V78.7105L14.3735 60.1095C12.5134 59.4331 11.3297 57.7421 11.3297 55.882V25.6132C11.3297 23.584 12.1752 21.3857 13.528 20.0329L27.9014 5.65946C29.2542 4.30667 31.4525 3.46117 33.4817 3.46117ZM130.729 118.787V19.1874H105.533C103.503 19.1874 102.32 18.0037 102.32 15.9745V6.50496C102.32 4.64487 103.503 3.29207 105.533 3.29207H172.327C174.356 3.29207 175.54 4.64487 175.54 6.50496V15.9745C175.54 18.0037 174.356 19.1874 172.327 19.1874H146.962V118.787C146.962 120.647 145.778 122 143.749 122H133.941C131.912 122 130.729 120.647 130.729 118.787ZM216.618 3.29207H245.534C247.563 3.29207 249.761 4.13757 251.114 5.49037L265.488 20.0329C266.841 21.3857 267.686 23.584 267.686 25.4441V118.787C267.686 120.647 266.502 122 264.473 122H254.665C252.636 122 251.452 120.647 251.452 118.787V96.6351H210.699V118.787C210.699 120.647 209.516 122 207.487 122H197.679C195.65 122 194.466 120.647 194.466 118.787V25.4441C194.466 23.584 195.311 21.3857 196.664 20.0329L211.038 5.49037C212.39 4.13757 214.589 3.29207 216.618 3.29207ZM210.699 28.657V80.7397H251.452V28.657L241.983 19.1874H220L210.699 28.657ZM290.41 118.787V6.50496C290.41 4.64487 291.594 3.29207 293.623 3.29207H341.478C343.338 3.29207 345.537 4.13757 346.889 5.49037L361.263 19.6947C362.616 21.0475 363.63 23.2458 363.63 25.275V48.4417C363.63 50.3018 362.785 52.5001 361.432 53.8529L346.213 69.2409L362.277 100.355C363.123 102.046 363.63 104.583 363.63 106.443V118.787C363.63 120.647 362.447 122 360.586 122H350.61C348.58 122 347.397 120.647 347.397 118.787V105.936L328.965 70.5937H306.644V118.787C306.644 120.647 305.46 122 303.431 122H293.623C291.594 122 290.41 120.647 290.41 118.787ZM306.644 54.6984H337.758L347.228 44.8906V28.8261L337.589 19.3565H306.644V54.6984ZM386.354 118.787V6.50496C386.354 4.47576 387.538 3.29207 389.398 3.29207H399.544C401.404 3.29207 402.588 4.47576 402.588 6.50496V54.6984H432.18L443.172 42.6923V6.50496C443.172 4.47576 444.355 3.29207 446.216 3.29207H456.362C458.222 3.29207 459.405 4.47576 459.405 6.50496L459.574 46.0743C459.574 48.1035 458.898 50.3018 457.545 51.6546L447.399 62.646L457.376 73.2993C458.729 74.8212 459.405 77.0195 459.405 78.8796L459.574 118.787C459.574 120.647 458.391 122 456.531 122H446.216C444.355 122 443.172 120.647 443.172 118.787L443.003 82.7689L431.842 70.5937H402.588V118.787C402.588 120.647 401.404 122 399.544 122H389.398C387.538 122 386.354 120.647 386.354 118.787ZM11.3297 276.787V164.505C11.3297 162.645 12.5134 161.292 14.5426 161.292H24.3503C26.3795 161.292 27.5632 162.645 27.5632 164.505V212.698H68.3162V164.505C68.3162 162.645 69.4999 161.292 71.5291 161.292H81.3369C83.3661 161.292 84.5498 162.645 84.5498 164.505V276.787C84.5498 278.647 83.3661 280 81.3369 280H71.5291C69.4999 280 68.3162 278.647 68.3162 276.787V228.594H27.5632V276.787C27.5632 278.647 26.3795 280 24.3503 280H14.5426C12.5134 280 11.3297 278.647 11.3297 276.787ZM129.426 161.292H158.342C160.371 161.292 162.569 162.138 163.922 163.49L178.296 178.033C179.649 179.386 180.494 181.584 180.494 183.444V276.787C180.494 278.647 179.31 280 177.281 280H167.473C165.444 280 164.26 278.647 164.26 276.787V254.635H123.507V276.787C123.507 278.647 122.324 280 120.295 280H110.487C108.458 280 107.274 278.647 107.274 276.787V183.444C107.274 181.584 108.119 179.386 109.472 178.033L123.846 163.49C125.198 162.138 127.397 161.292 129.426 161.292ZM123.507 186.657V238.74H164.26V186.657L154.791 177.187H132.808L123.507 186.657ZM225.37 161.292H254.286C256.315 161.292 258.514 162.138 259.866 163.49L274.24 178.033C275.593 179.386 276.438 181.584 276.438 183.444V195.957C276.438 197.818 275.255 199.17 273.225 199.17H263.418C261.388 199.17 260.205 197.818 260.205 195.957V187.164L250.904 177.864H228.921L219.452 187.164V254.297L228.921 263.597H250.904L260.205 254.297V245.335C260.205 243.474 261.388 242.122 263.418 242.122H273.225C275.255 242.122 276.438 243.474 276.438 245.335V257.848C276.438 259.708 275.593 261.906 274.24 263.259L259.866 277.802C258.514 279.155 256.315 280 254.286 280H225.37C223.341 280 221.143 279.155 219.79 277.802L205.416 263.259C204.064 261.906 203.218 259.708 203.218 257.848V183.444C203.218 181.584 204.064 179.386 205.416 178.033L219.79 163.49C221.143 162.138 223.341 161.292 225.37 161.292ZM299.162 276.787V164.505C299.162 162.476 300.346 161.292 302.206 161.292H312.352C314.212 161.292 315.396 162.476 315.396 164.505V212.698H344.988L355.98 200.692V164.505C355.98 162.476 357.163 161.292 359.024 161.292H369.17C371.03 161.292 372.213 162.476 372.213 164.505L372.382 204.074C372.382 206.103 371.706 208.302 370.353 209.655L360.207 220.646L370.184 231.299C371.537 232.821 372.213 235.02 372.213 236.88L372.382 276.787C372.382 278.647 371.199 280 369.339 280H359.024C357.163 280 355.98 278.647 355.98 276.787L355.811 240.769L344.65 228.594H315.396V276.787C315.396 278.647 314.212 280 312.352 280H302.206C300.346 280 299.162 278.647 299.162 276.787ZM417.259 161.461H446.175C448.035 161.461 450.233 162.307 451.586 163.659L465.959 178.033C467.312 179.386 468.327 181.584 468.327 183.613V195.957C468.158 197.987 466.974 199.17 464.945 199.17H455.137C453.108 199.17 451.924 197.987 451.924 195.957V187.164L442.793 177.357H420.641L411.34 187.164L411.509 204.751L465.283 223.352C467.143 224.028 468.327 225.719 468.327 227.579V257.848C468.327 259.708 467.312 261.906 465.959 263.259L451.586 277.633C450.233 278.985 448.035 279.831 446.175 279.831H417.259C415.229 279.831 413.031 278.985 411.678 277.633L397.305 263.259C395.952 261.906 395.107 259.708 395.107 257.848V245.335C395.107 243.474 396.459 242.122 398.319 242.122H408.296C410.156 242.122 411.509 243.474 411.509 245.335V254.128L420.81 263.936H442.624L451.924 254.128V236.71L398.15 218.11C396.29 217.433 395.107 215.742 395.107 213.882V183.613C395.107 181.584 395.952 179.386 397.305 178.033L411.678 163.659C413.031 162.307 415.229 161.461 417.259 161.461Z" fill="#FF8E2A"/>
</g>
<path d="M36.7725 6.75182H65.6885C67.5486 6.75182 69.7469 7.59731 71.0997 8.95011L85.4732 23.3236C86.826 24.6764 87.8406 26.8747 87.8406 28.9039V41.2481C87.6715 43.2773 86.4878 44.461 84.4586 44.461H74.6508C72.6216 44.461 71.4379 43.2773 71.4379 41.2481V32.455L62.3065 22.6472H40.1545L30.854 32.455L31.0231 50.0413L84.7968 68.6423C86.6569 69.3187 87.8406 71.0097 87.8406 72.8698V103.139C87.8406 104.999 86.826 107.197 85.4732 108.55L71.0997 122.923C69.7469 124.276 67.5486 125.122 65.6885 125.122H36.7725C34.7433 125.122 32.545 124.276 31.1922 122.923L16.8187 108.55C15.4659 107.197 14.6204 104.999 14.6204 103.139V90.6252C14.6204 88.7651 15.9732 87.4123 17.8333 87.4123H27.8102C29.6703 87.4123 31.0231 88.7651 31.0231 90.6252V99.4184L40.3236 109.226H62.1374L71.4379 99.4184V82.0011L17.6642 63.4002C15.8041 62.7238 14.6204 61.0328 14.6204 59.1727V28.9039C14.6204 26.8747 15.4659 24.6764 16.8187 23.3236L31.1922 8.95011C32.545 7.59731 34.7433 6.75182 36.7725 6.75182ZM134.019 122.078V22.4781H108.823C106.794 22.4781 105.611 21.2944 105.611 19.2652V9.79561C105.611 7.93552 106.794 6.58272 108.823 6.58272H175.618C177.647 6.58272 178.831 7.93552 178.831 9.79561V19.2652C178.831 21.2944 177.647 22.4781 175.618 22.4781H150.253V122.078C150.253 123.938 149.069 125.291 147.04 125.291H137.232C135.203 125.291 134.019 123.938 134.019 122.078ZM219.909 6.58272H248.825C250.854 6.58272 253.052 7.42822 254.405 8.78102L268.778 23.3236C270.131 24.6764 270.977 26.8747 270.977 28.7348V122.078C270.977 123.938 269.793 125.291 267.764 125.291H257.956C255.927 125.291 254.743 123.938 254.743 122.078V99.9257H213.99V122.078C213.99 123.938 212.807 125.291 210.777 125.291H200.97C198.94 125.291 197.757 123.938 197.757 122.078V28.7348C197.757 26.8747 198.602 24.6764 199.955 23.3236L214.328 8.78102C215.681 7.42822 217.879 6.58272 219.909 6.58272ZM213.99 31.9477V84.0303H254.743V31.9477L245.274 22.4781H223.291L213.99 31.9477ZM293.701 122.078V9.79561C293.701 7.93552 294.885 6.58272 296.914 6.58272H344.769C346.629 6.58272 348.827 7.42822 350.18 8.78102L364.554 22.9854C365.906 24.3382 366.921 26.5365 366.921 28.5657V51.7323C366.921 53.5924 366.075 55.7907 364.723 57.1435L349.504 72.5316L365.568 103.646C366.414 105.337 366.921 107.873 366.921 109.733V122.078C366.921 123.938 365.737 125.291 363.877 125.291H353.9C351.871 125.291 350.687 123.938 350.687 122.078V109.226L332.256 73.8844H309.934V122.078C309.934 123.938 308.751 125.291 306.722 125.291H296.914C294.885 125.291 293.701 123.938 293.701 122.078ZM309.934 57.989H341.049L350.518 48.1812V32.1168L340.88 22.6472H309.934V57.989ZM389.645 122.078V9.79561C389.645 7.76641 390.829 6.58272 392.689 6.58272H402.835C404.695 6.58272 405.879 7.76641 405.879 9.79561V57.989H435.471L446.463 45.9829V9.79561C446.463 7.76641 447.646 6.58272 449.506 6.58272H459.652C461.512 6.58272 462.696 7.76641 462.696 9.79561L462.865 49.3649C462.865 51.3941 462.189 53.5924 460.836 54.9452L450.69 65.9367L460.667 76.59C462.02 78.1119 462.696 80.3102 462.696 82.1702L462.865 122.078C462.865 123.938 461.682 125.291 459.821 125.291H449.506C447.646 125.291 446.463 123.938 446.463 122.078L446.293 86.0595L435.133 73.8844H405.879V122.078C405.879 123.938 404.695 125.291 402.835 125.291H392.689C390.829 125.291 389.645 123.938 389.645 122.078ZM14.6204 280.078V167.796C14.6204 165.936 15.8041 164.583 17.8333 164.583H27.6411C29.6703 164.583 30.854 165.936 30.854 167.796V215.989H71.607V167.796C71.607 165.936 72.7907 164.583 74.8199 164.583H84.6277C86.6569 164.583 87.8406 165.936 87.8406 167.796V280.078C87.8406 281.938 86.6569 283.291 84.6277 283.291H74.8199C72.7907 283.291 71.607 281.938 71.607 280.078V231.884H30.854V280.078C30.854 281.938 29.6703 283.291 27.6411 283.291H17.8333C15.8041 283.291 14.6204 281.938 14.6204 280.078ZM132.717 164.583H161.633C163.662 164.583 165.86 165.428 167.213 166.781L181.586 181.324C182.939 182.676 183.785 184.875 183.785 186.735V280.078C183.785 281.938 182.601 283.291 180.572 283.291H170.764C168.735 283.291 167.551 281.938 167.551 280.078V257.926H126.798V280.078C126.798 281.938 125.615 283.291 123.585 283.291H113.778C111.748 283.291 110.565 281.938 110.565 280.078V186.735C110.565 184.875 111.41 182.676 112.763 181.324L127.136 166.781C128.489 165.428 130.688 164.583 132.717 164.583ZM126.798 189.948V242.03H167.551V189.948L158.082 180.478H136.099L126.798 189.948ZM228.661 164.583H257.577C259.606 164.583 261.804 165.428 263.157 166.781L277.531 181.324C278.884 182.676 279.729 184.875 279.729 186.735V199.248C279.729 201.108 278.545 202.461 276.516 202.461H266.708C264.679 202.461 263.495 201.108 263.495 199.248V190.455L254.195 181.154H232.212L222.742 190.455V257.588L232.212 266.888H254.195L263.495 257.588V248.625C263.495 246.765 264.679 245.412 266.708 245.412H276.516C278.545 245.412 279.729 246.765 279.729 248.625V261.139C279.729 262.999 278.884 265.197 277.531 266.55L263.157 281.092C261.804 282.445 259.606 283.291 257.577 283.291H228.661C226.632 283.291 224.433 282.445 223.081 281.092L208.707 266.55C207.354 265.197 206.509 262.999 206.509 261.139V186.735C206.509 184.875 207.354 182.676 208.707 181.324L223.081 166.781C224.433 165.428 226.632 164.583 228.661 164.583ZM302.453 280.078V167.796C302.453 165.766 303.637 164.583 305.497 164.583H315.643C317.503 164.583 318.687 165.766 318.687 167.796V215.989H348.279L359.271 203.983V167.796C359.271 165.766 360.454 164.583 362.314 164.583H372.46C374.32 164.583 375.504 165.766 375.504 167.796L375.673 207.365C375.673 209.394 374.997 211.592 373.644 212.945L363.498 223.937L373.475 234.59C374.828 236.112 375.504 238.31 375.504 240.17L375.673 280.078C375.673 281.938 374.49 283.291 372.629 283.291H362.314C360.454 283.291 359.271 281.938 359.271 280.078L359.101 244.06L347.941 231.884H318.687V280.078C318.687 281.938 317.503 283.291 315.643 283.291H305.497C303.637 283.291 302.453 281.938 302.453 280.078ZM420.549 164.752H449.465C451.325 164.752 453.524 165.597 454.877 166.95L469.25 181.324C470.603 182.676 471.617 184.875 471.617 186.904V199.248C471.448 201.277 470.265 202.461 468.235 202.461H458.428C456.398 202.461 455.215 201.277 455.215 199.248V190.455L446.083 180.647H423.931L414.631 190.455L414.8 208.041L468.574 226.642C470.434 227.319 471.617 229.01 471.617 230.87V261.139C471.617 262.999 470.603 265.197 469.25 266.55L454.877 280.923C453.524 282.276 451.325 283.122 449.465 283.122H420.549C418.52 283.122 416.322 282.276 414.969 280.923L400.596 266.55C399.243 265.197 398.397 262.999 398.397 261.139V248.625C398.397 246.765 399.75 245.412 401.61 245.412H411.587C413.447 245.412 414.8 246.765 414.8 248.625V257.418L424.1 267.226H445.914L455.215 257.418V240.001L401.441 221.4C399.581 220.724 398.397 219.033 398.397 217.173V186.904C398.397 184.875 399.243 182.676 400.596 181.324L414.969 166.95C416.322 165.597 418.52 164.752 420.549 164.752Z" fill="white"/>
</svg>
