<svg width="759" height="16" viewBox="0 0 759 16" fill="none" xmlns="http://www.w3.org/2000/svg">
<mask id="mask0_151_383" style="mask-type:alpha" maskUnits="userSpaceOnUse" x="0" y="0" width="759" height="16">
<rect width="759" height="16" fill="#D9D9D9"/>
</mask>
<g mask="url(#mask0_151_383)">
<path fill-rule="evenodd" clip-rule="evenodd" d="M282.01 -102.136L107.143 73.7207L96.5059 63.1436L271.373 -112.712L282.01 -102.136ZM251.086 -110.328L76.2188 65.5283L65.582 54.9512L240.45 -120.905L251.086 -110.328ZM220.198 -118.653L45.3311 57.2031L34.6943 46.626L209.562 -129.229L220.198 -118.653ZM189.274 -126.847L14.4072 49.0098L3.77051 38.4336L178.638 -137.423L189.274 -126.847ZM158.315 -134.906L-16.5518 40.9502L-27.1885 30.374L147.68 -145.482L158.315 -134.906ZM127.428 -143.231L-47.4404 32.625L-58.0762 22.0488L116.791 -153.808L127.428 -143.231ZM96.5039 -151.424L-78.3633 24.4326L-89 13.8555L85.8672 -162L96.5039 -151.424Z" fill="#FF8E2A"/>
<path fill-rule="evenodd" clip-rule="evenodd" d="M531.01 -77.1357L356.143 98.7207L345.506 88.1436L520.373 -87.7119L531.01 -77.1357ZM500.086 -85.3281L325.219 90.5283L314.582 79.9512L489.45 -95.9053L500.086 -85.3281ZM469.198 -93.6533L294.331 82.2031L283.694 71.626L458.562 -104.229L469.198 -93.6533ZM438.274 -101.847L263.407 74.0098L252.771 63.4336L427.638 -112.423L438.274 -101.847ZM407.315 -109.906L232.448 65.9502L221.812 55.374L396.68 -120.482L407.315 -109.906ZM376.428 -118.231L201.56 57.625L190.924 47.0488L365.791 -128.808L376.428 -118.231ZM345.504 -126.424L170.637 49.4326L160 38.8555L334.867 -137L345.504 -126.424Z" fill="#FF8E2A"/>
<path fill-rule="evenodd" clip-rule="evenodd" d="M780.01 -52.1357L605.143 123.721L594.506 113.144L769.373 -62.7119L780.01 -52.1357ZM749.086 -60.3281L574.219 115.528L563.582 104.951L738.45 -70.9053L749.086 -60.3281ZM718.198 -68.6533L543.331 107.203L532.694 96.626L707.562 -79.2295L718.198 -68.6533ZM687.274 -76.8467L512.407 99.0098L501.771 88.4336L676.638 -87.4229L687.274 -76.8467ZM656.315 -84.9062L481.448 90.9502L470.812 80.374L645.68 -95.4824L656.315 -84.9062ZM625.428 -93.2314L450.56 82.625L439.924 72.0488L614.791 -103.808L625.428 -93.2314ZM594.504 -101.424L419.637 74.4326L409 63.8555L583.867 -112L594.504 -101.424Z" fill="#FF8E2A"/>
</g>
</svg>

