<svg width="95" height="95" viewBox="0 0 95 95" fill="none" xmlns="http://www.w3.org/2000/svg">
<mask id="path-1-inside-1_2020_536" fill="white">
<path d="M84.7568 0C90.1723 1.54912e-05 94.5623 4.39023 94.5625 9.80566V70.0733C94.5625 72.6946 93.513 75.2068 91.6482 77.049L76.7836 91.7343C74.9482 93.5476 72.4721 94.5645 69.892 94.5645H9.80664C4.39114 94.5645 0.000239143 90.1742 0 84.7588V24.5478C0 21.9265 1.04954 19.4143 2.91433 17.572L17.8365 2.83009C19.6719 1.01684 22.148 0 24.7281 0H84.7568Z"/>
</mask>
<path d="M84.7568 0C90.1723 1.54912e-05 94.5623 4.39023 94.5625 9.80566V70.0733C94.5625 72.6946 93.513 75.2068 91.6482 77.049L76.7836 91.7343C74.9482 93.5476 72.4721 94.5645 69.892 94.5645H9.80664C4.39114 94.5645 0.000239143 90.1742 0 84.7588V24.5478C0 21.9265 1.04954 19.4143 2.91433 17.572L17.8365 2.83009C19.6719 1.01684 22.148 0 24.7281 0H84.7568Z" fill="#898989" fill-opacity="0.05"/>
<path d="M84.7568 0C90.1723 1.54912e-05 94.5623 4.39023 94.5625 9.80566V70.0733C94.5625 72.6946 93.513 75.2068 91.6482 77.049L76.7836 91.7343C74.9482 93.5476 72.4721 94.5645 69.892 94.5645H9.80664C4.39114 94.5645 0.000239143 90.1742 0 84.7588V24.5478C0 21.9265 1.04954 19.4143 2.91433 17.572L17.8365 2.83009C19.6719 1.01684 22.148 0 24.7281 0H84.7568Z" fill="black" fill-opacity="0.2"/>
<path d="M84.7568 0C90.1723 1.54912e-05 94.5623 4.39023 94.5625 9.80566V70.0733C94.5625 72.6946 93.513 75.2068 91.6482 77.049L76.7836 91.7343C74.9482 93.5476 72.4721 94.5645 69.892 94.5645H9.80664C4.39114 94.5645 0.000239143 90.1742 0 84.7588V24.5478C0 21.9265 1.04954 19.4143 2.91433 17.572L17.8365 2.83009C19.6719 1.01684 22.148 0 24.7281 0H84.7568Z" fill="#FF8E2A"/>
<path d="M84.7568 0V-1.11691V0ZM94.5625 9.80566H95.6794V9.80561L94.5625 9.80566ZM0 84.7588H-1.11691V84.7588L0 84.7588ZM76.7836 91.7343L77.5686 92.5289L76.7836 91.7343ZM84.7568 0V1.11691C89.5554 1.11692 93.4454 5.00705 93.4456 9.80571L94.5625 9.80566L95.6794 9.80561C95.6791 3.77342 90.7892 -1.11689 84.7568 -1.11691V0ZM94.5625 9.80566H93.4456V70.0733H94.5625H95.6794V9.80566H94.5625ZM91.6482 77.049L90.8633 76.2545L75.9987 90.9398L76.7836 91.7343L77.5686 92.5289L92.4332 77.8436L91.6482 77.049ZM69.892 94.5645V93.4475H9.80664V94.5645V95.6814H69.892V94.5645ZM9.80664 94.5645V93.4475C5.00789 93.4475 1.11712 89.5573 1.11691 84.7587L0 84.7588L-1.11691 84.7588C-1.11664 90.7912 3.77438 95.6814 9.80664 95.6814V94.5645ZM0 84.7588H1.11691V24.5478H0H-1.11691V84.7588H0ZM2.91433 17.572L3.69929 18.3666L18.6214 3.62465L17.8365 2.83009L17.0515 2.03553L2.12937 16.7775L2.91433 17.572ZM24.7281 0V1.11691H84.7568V0V-1.11691H24.7281V0ZM0 24.5478H1.11691C1.11691 22.2251 2.04691 19.999 3.69929 18.3666L2.91433 17.572L2.12937 16.7775C0.0521794 18.8296 -1.11691 21.6279 -1.11691 24.5478H0ZM76.7836 91.7343L75.9987 90.9398C74.3723 92.5465 72.1782 93.4475 69.892 93.4475V94.5645V95.6814C72.766 95.6814 75.5241 94.5487 77.5686 92.5289L76.7836 91.7343ZM17.8365 2.83009L18.6214 3.62465C20.2478 2.01792 22.4419 1.11691 24.7281 1.11691V0V-1.11691C21.8541 -1.11691 19.096 0.0157474 17.0515 2.03553L17.8365 2.83009ZM94.5625 70.0733H93.4456C93.4456 72.396 92.5156 74.6221 90.8633 76.2545L91.6482 77.049L92.4332 77.8436C94.5103 75.7915 95.6794 72.9932 95.6794 70.0733H94.5625Z" fill="white" fill-opacity="0.02" mask="url(#path-1-inside-1_2020_536)"/>
<path d="M84.7568 0V-1.11691V0ZM94.5625 9.80566H95.6794V9.80561L94.5625 9.80566ZM0 84.7588H-1.11691V84.7588L0 84.7588ZM76.7836 91.7343L77.5686 92.5289L76.7836 91.7343ZM84.7568 0V1.11691C89.5554 1.11692 93.4454 5.00705 93.4456 9.80571L94.5625 9.80566L95.6794 9.80561C95.6791 3.77342 90.7892 -1.11689 84.7568 -1.11691V0ZM94.5625 9.80566H93.4456V70.0733H94.5625H95.6794V9.80566H94.5625ZM91.6482 77.049L90.8633 76.2545L75.9987 90.9398L76.7836 91.7343L77.5686 92.5289L92.4332 77.8436L91.6482 77.049ZM69.892 94.5645V93.4475H9.80664V94.5645V95.6814H69.892V94.5645ZM9.80664 94.5645V93.4475C5.00789 93.4475 1.11712 89.5573 1.11691 84.7587L0 84.7588L-1.11691 84.7588C-1.11664 90.7912 3.77438 95.6814 9.80664 95.6814V94.5645ZM0 84.7588H1.11691V24.5478H0H-1.11691V84.7588H0ZM2.91433 17.572L3.69929 18.3666L18.6214 3.62465L17.8365 2.83009L17.0515 2.03553L2.12937 16.7775L2.91433 17.572ZM24.7281 0V1.11691H84.7568V0V-1.11691H24.7281V0ZM0 24.5478H1.11691C1.11691 22.2251 2.04691 19.999 3.69929 18.3666L2.91433 17.572L2.12937 16.7775C0.0521794 18.8296 -1.11691 21.6279 -1.11691 24.5478H0ZM76.7836 91.7343L75.9987 90.9398C74.3723 92.5465 72.1782 93.4475 69.892 93.4475V94.5645V95.6814C72.766 95.6814 75.5241 94.5487 77.5686 92.5289L76.7836 91.7343ZM17.8365 2.83009L18.6214 3.62465C20.2478 2.01792 22.4419 1.11691 24.7281 1.11691V0V-1.11691C21.8541 -1.11691 19.096 0.0157474 17.0515 2.03553L17.8365 2.83009ZM94.5625 70.0733H93.4456C93.4456 72.396 92.5156 74.6221 90.8633 76.2545L91.6482 77.049L92.4332 77.8436C94.5103 75.7915 95.6794 72.9932 95.6794 70.0733H94.5625Z" fill="url(#paint0_linear_2020_536)" fill-opacity="0.3" mask="url(#path-1-inside-1_2020_536)"/>
<path d="M84.7568 0V-1.11691V0ZM94.5625 9.80566H95.6794V9.80561L94.5625 9.80566ZM0 84.7588H-1.11691V84.7588L0 84.7588ZM76.7836 91.7343L77.5686 92.5289L76.7836 91.7343ZM84.7568 0V1.11691C89.5554 1.11692 93.4454 5.00705 93.4456 9.80571L94.5625 9.80566L95.6794 9.80561C95.6791 3.77342 90.7892 -1.11689 84.7568 -1.11691V0ZM94.5625 9.80566H93.4456V70.0733H94.5625H95.6794V9.80566H94.5625ZM91.6482 77.049L90.8633 76.2545L75.9987 90.9398L76.7836 91.7343L77.5686 92.5289L92.4332 77.8436L91.6482 77.049ZM69.892 94.5645V93.4475H9.80664V94.5645V95.6814H69.892V94.5645ZM9.80664 94.5645V93.4475C5.00789 93.4475 1.11712 89.5573 1.11691 84.7587L0 84.7588L-1.11691 84.7588C-1.11664 90.7912 3.77438 95.6814 9.80664 95.6814V94.5645ZM0 84.7588H1.11691V24.5478H0H-1.11691V84.7588H0ZM2.91433 17.572L3.69929 18.3666L18.6214 3.62465L17.8365 2.83009L17.0515 2.03553L2.12937 16.7775L2.91433 17.572ZM24.7281 0V1.11691H84.7568V0V-1.11691H24.7281V0ZM0 24.5478H1.11691C1.11691 22.2251 2.04691 19.999 3.69929 18.3666L2.91433 17.572L2.12937 16.7775C0.0521794 18.8296 -1.11691 21.6279 -1.11691 24.5478H0ZM76.7836 91.7343L75.9987 90.9398C74.3723 92.5465 72.1782 93.4475 69.892 93.4475V94.5645V95.6814C72.766 95.6814 75.5241 94.5487 77.5686 92.5289L76.7836 91.7343ZM17.8365 2.83009L18.6214 3.62465C20.2478 2.01792 22.4419 1.11691 24.7281 1.11691V0V-1.11691C21.8541 -1.11691 19.096 0.0157474 17.0515 2.03553L17.8365 2.83009ZM94.5625 70.0733H93.4456C93.4456 72.396 92.5156 74.6221 90.8633 76.2545L91.6482 77.049L92.4332 77.8436C94.5103 75.7915 95.6794 72.9932 95.6794 70.0733H94.5625Z" fill="url(#paint1_linear_2020_536)" fill-opacity="0.4" mask="url(#path-1-inside-1_2020_536)"/>
<path d="M84.7568 0V-1.11691V0ZM94.5625 9.80566H95.6794V9.80561L94.5625 9.80566ZM0 84.7588H-1.11691V84.7588L0 84.7588ZM76.7836 91.7343L77.5686 92.5289L76.7836 91.7343ZM84.7568 0V1.11691C89.5554 1.11692 93.4454 5.00705 93.4456 9.80571L94.5625 9.80566L95.6794 9.80561C95.6791 3.77342 90.7892 -1.11689 84.7568 -1.11691V0ZM94.5625 9.80566H93.4456V70.0733H94.5625H95.6794V9.80566H94.5625ZM91.6482 77.049L90.8633 76.2545L75.9987 90.9398L76.7836 91.7343L77.5686 92.5289L92.4332 77.8436L91.6482 77.049ZM69.892 94.5645V93.4475H9.80664V94.5645V95.6814H69.892V94.5645ZM9.80664 94.5645V93.4475C5.00789 93.4475 1.11712 89.5573 1.11691 84.7587L0 84.7588L-1.11691 84.7588C-1.11664 90.7912 3.77438 95.6814 9.80664 95.6814V94.5645ZM0 84.7588H1.11691V24.5478H0H-1.11691V84.7588H0ZM2.91433 17.572L3.69929 18.3666L18.6214 3.62465L17.8365 2.83009L17.0515 2.03553L2.12937 16.7775L2.91433 17.572ZM24.7281 0V1.11691H84.7568V0V-1.11691H24.7281V0ZM0 24.5478H1.11691C1.11691 22.2251 2.04691 19.999 3.69929 18.3666L2.91433 17.572L2.12937 16.7775C0.0521794 18.8296 -1.11691 21.6279 -1.11691 24.5478H0ZM76.7836 91.7343L75.9987 90.9398C74.3723 92.5465 72.1782 93.4475 69.892 93.4475V94.5645V95.6814C72.766 95.6814 75.5241 94.5487 77.5686 92.5289L76.7836 91.7343ZM17.8365 2.83009L18.6214 3.62465C20.2478 2.01792 22.4419 1.11691 24.7281 1.11691V0V-1.11691C21.8541 -1.11691 19.096 0.0157474 17.0515 2.03553L17.8365 2.83009ZM94.5625 70.0733H93.4456C93.4456 72.396 92.5156 74.6221 90.8633 76.2545L91.6482 77.049L92.4332 77.8436C94.5103 75.7915 95.6794 72.9932 95.6794 70.0733H94.5625Z" fill="url(#paint2_linear_2020_536)" fill-opacity="0.4" mask="url(#path-1-inside-1_2020_536)"/>
<path d="M47.5059 29.4609C47.676 29.3627 47.8865 29.3627 48.0566 29.4609L63.5098 38.3828C63.6799 38.4811 63.7852 38.6629 63.7852 38.8594V56.7031C63.7852 56.8996 63.6799 57.0814 63.5098 57.1797L48.0566 66.1016C47.8865 66.1998 47.676 66.1998 47.5059 66.1016L32.0527 57.1797C31.8826 57.0814 31.7773 56.8996 31.7773 56.7031V38.8594C31.7773 38.6629 31.8826 38.4811 32.0527 38.3828L47.5059 29.4609Z" stroke="#1D1813" stroke-width="3.5"/>
<path d="M48.7812 32.3271L50.7496 36.2669C50.7704 36.3086 50.7812 36.3545 50.7812 36.401V41.1179C50.7812 41.247 50.6987 41.3616 50.5762 41.4025L46.4863 42.7668C46.3638 42.8077 46.2812 42.9223 46.2812 43.0514V49.2161C46.2812 49.2956 46.3128 49.3719 46.369 49.4281L48.1934 51.2538C48.2496 51.3102 48.326 51.3418 48.4056 51.3418H53.1569C53.2365 51.3418 53.3129 51.3734 53.3691 51.4297L55.1935 53.2555C55.2497 53.3117 55.2812 53.388 55.2812 53.4675V57.7027C55.2812 57.7938 55.2399 57.8799 55.1687 57.9369L52.8938 59.7583C52.8226 59.8152 52.7812 59.9014 52.7812 59.9925V64.8522" stroke="#1D1813" stroke-width="3.5"/>
<path d="M61.7812 39.833L56.3912 44.2465C56.3216 44.3034 56.2812 44.3886 56.2812 44.4786V46.6908C56.2812 46.7839 56.3245 46.8717 56.3982 46.9285L62.6643 51.7522C62.738 51.809 62.7812 51.8968 62.7812 51.9899V57.2757C62.7812 57.3223 62.7704 57.3682 62.7496 57.4098L61.2812 60.3488" stroke="#1D1813" stroke-width="3.5"/>
<path d="M31.7812 45.8375H35.1569C35.2365 45.8375 35.3129 45.8692 35.3691 45.9255L41.6935 52.2547C41.7497 52.3109 41.7812 52.3872 41.7812 52.4667V56.6798C41.7812 56.7832 41.8345 56.8793 41.9222 56.9341L45.6403 59.2598C45.728 59.3146 45.7812 59.4107 45.7812 59.5141V66.3533" stroke="#1D1813" stroke-width="3.5"/>
<defs>
<linearGradient id="paint0_linear_2020_536" x1="74.9777" y1="90.0131" x2="87.6099" y2="104.679" gradientUnits="userSpaceOnUse">
<stop stop-color="white" stop-opacity="0"/>
<stop offset="1" stop-color="#FF8E2A"/>
</linearGradient>
<linearGradient id="paint1_linear_2020_536" x1="18.0026" y1="18.5961" x2="-17.0904" y2="-10.4273" gradientUnits="userSpaceOnUse">
<stop stop-color="white" stop-opacity="0"/>
<stop offset="1" stop-color="white"/>
</linearGradient>
<linearGradient id="paint2_linear_2020_536" x1="73.9885" y1="20.1788" x2="89.7751" y2="-19.8052" gradientUnits="userSpaceOnUse">
<stop stop-color="white" stop-opacity="0"/>
<stop offset="1" stop-color="white"/>
</linearGradient>
</defs>
</svg>
