<svg width="759" height="266" viewBox="0 0 759 266" fill="none" xmlns="http://www.w3.org/2000/svg">
<mask id="path-1-inside-1_2019_471" fill="white">
<path d="M749.194 0C754.61 0 759 4.39007 759 9.80566V215.97C759 218.591 757.95 221.103 756.086 222.946L715.37 263.17C713.534 264.983 711.058 266 708.478 266H9.80664C4.39111 266 0.000193824 261.61 0 256.194V49.4297C0 46.8084 1.04956 44.2961 2.91437 42.4539L43.023 2.83005C44.8584 1.01682 47.3345 0 49.9145 0H749.194Z"/>
</mask>
<path d="M749.194 0C754.61 0 759 4.39007 759 9.80566V215.97C759 218.591 757.95 221.103 756.086 222.946L715.37 263.17C713.534 264.983 711.058 266 708.478 266H9.80664C4.39111 266 0.000193824 261.61 0 256.194V49.4297C0 46.8084 1.04956 44.2961 2.91437 42.4539L43.023 2.83005C44.8584 1.01682 47.3345 0 49.9145 0H749.194Z" fill="#898989" fill-opacity="0.05"/>
<path d="M759 9.80566L760.117 9.80566L760.117 9.80565L759 9.80566ZM0 256.194L-1.11691 256.194L-1.11691 256.194L0 256.194ZM715.37 263.17L714.585 262.375L715.37 263.17ZM43.023 2.83005L43.808 3.62461L43.023 2.83005ZM756.086 222.946L755.301 222.151L756.086 222.946ZM749.194 0V1.11691C753.993 1.11691 757.883 5.00691 757.883 9.80568L759 9.80566L760.117 9.80565C760.117 3.77323 755.227 -1.11691 749.194 -1.11691V0ZM759 9.80566H757.883V215.97H759H760.117V9.80566H759ZM756.086 222.946L755.301 222.151L714.585 262.375L715.37 263.17L716.155 263.964L756.871 223.74L756.086 222.946ZM708.478 266V264.883H9.80664V266V267.117H708.478V266ZM9.80664 266V264.883C5.00786 264.883 1.11708 260.993 1.11691 256.194L0 256.194L-1.11691 256.194C-1.11669 262.227 3.77437 267.117 9.80664 267.117V266ZM0 256.194H1.11691V49.4297H0H-1.11691V256.194H0ZM2.91437 42.4539L3.69933 43.2484L43.808 3.62461L43.023 2.83005L42.2381 2.03549L2.12942 41.6593L2.91437 42.4539ZM49.9145 0V1.11691H749.194V0V-1.11691H49.9145V0ZM0 49.4297H1.11691C1.11691 47.1069 2.04692 44.8809 3.69933 43.2484L2.91437 42.4539L2.12942 41.6593C0.0521971 43.7114 -1.11691 46.5098 -1.11691 49.4297H0ZM715.37 263.17L714.585 262.375C712.958 263.982 710.764 264.883 708.478 264.883V266V267.117C711.352 267.117 714.11 265.984 716.155 263.964L715.37 263.17ZM43.023 2.83005L43.808 3.62461C45.4343 2.01791 47.6284 1.11691 49.9145 1.11691V0V-1.11691C47.0406 -1.11691 44.2825 0.0157252 42.2381 2.03549L43.023 2.83005ZM759 215.97H757.883C757.883 218.292 756.953 220.519 755.301 222.151L756.086 222.946L756.871 223.74C758.948 221.688 760.117 218.89 760.117 215.97H759Z" fill="white" fill-opacity="0.02" mask="url(#path-1-inside-1_2019_471)"/>
<path d="M759 9.80566L760.117 9.80566L760.117 9.80565L759 9.80566ZM0 256.194L-1.11691 256.194L-1.11691 256.194L0 256.194ZM715.37 263.17L714.585 262.375L715.37 263.17ZM43.023 2.83005L43.808 3.62461L43.023 2.83005ZM756.086 222.946L755.301 222.151L756.086 222.946ZM749.194 0V1.11691C753.993 1.11691 757.883 5.00691 757.883 9.80568L759 9.80566L760.117 9.80565C760.117 3.77323 755.227 -1.11691 749.194 -1.11691V0ZM759 9.80566H757.883V215.97H759H760.117V9.80566H759ZM756.086 222.946L755.301 222.151L714.585 262.375L715.37 263.17L716.155 263.964L756.871 223.74L756.086 222.946ZM708.478 266V264.883H9.80664V266V267.117H708.478V266ZM9.80664 266V264.883C5.00786 264.883 1.11708 260.993 1.11691 256.194L0 256.194L-1.11691 256.194C-1.11669 262.227 3.77437 267.117 9.80664 267.117V266ZM0 256.194H1.11691V49.4297H0H-1.11691V256.194H0ZM2.91437 42.4539L3.69933 43.2484L43.808 3.62461L43.023 2.83005L42.2381 2.03549L2.12942 41.6593L2.91437 42.4539ZM49.9145 0V1.11691H749.194V0V-1.11691H49.9145V0ZM0 49.4297H1.11691C1.11691 47.1069 2.04692 44.8809 3.69933 43.2484L2.91437 42.4539L2.12942 41.6593C0.0521971 43.7114 -1.11691 46.5098 -1.11691 49.4297H0ZM715.37 263.17L714.585 262.375C712.958 263.982 710.764 264.883 708.478 264.883V266V267.117C711.352 267.117 714.11 265.984 716.155 263.964L715.37 263.17ZM43.023 2.83005L43.808 3.62461C45.4343 2.01791 47.6284 1.11691 49.9145 1.11691V0V-1.11691C47.0406 -1.11691 44.2825 0.0157252 42.2381 2.03549L43.023 2.83005ZM759 215.97H757.883C757.883 218.292 756.953 220.519 755.301 222.151L756.086 222.946L756.871 223.74C758.948 221.688 760.117 218.89 760.117 215.97H759Z" fill="url(#paint0_linear_2019_471)" fill-opacity="0.3" mask="url(#path-1-inside-1_2019_471)"/>
<path d="M759 9.80566L760.117 9.80566L760.117 9.80565L759 9.80566ZM0 256.194L-1.11691 256.194L-1.11691 256.194L0 256.194ZM715.37 263.17L714.585 262.375L715.37 263.17ZM43.023 2.83005L43.808 3.62461L43.023 2.83005ZM756.086 222.946L755.301 222.151L756.086 222.946ZM749.194 0V1.11691C753.993 1.11691 757.883 5.00691 757.883 9.80568L759 9.80566L760.117 9.80565C760.117 3.77323 755.227 -1.11691 749.194 -1.11691V0ZM759 9.80566H757.883V215.97H759H760.117V9.80566H759ZM756.086 222.946L755.301 222.151L714.585 262.375L715.37 263.17L716.155 263.964L756.871 223.74L756.086 222.946ZM708.478 266V264.883H9.80664V266V267.117H708.478V266ZM9.80664 266V264.883C5.00786 264.883 1.11708 260.993 1.11691 256.194L0 256.194L-1.11691 256.194C-1.11669 262.227 3.77437 267.117 9.80664 267.117V266ZM0 256.194H1.11691V49.4297H0H-1.11691V256.194H0ZM2.91437 42.4539L3.69933 43.2484L43.808 3.62461L43.023 2.83005L42.2381 2.03549L2.12942 41.6593L2.91437 42.4539ZM49.9145 0V1.11691H749.194V0V-1.11691H49.9145V0ZM0 49.4297H1.11691C1.11691 47.1069 2.04692 44.8809 3.69933 43.2484L2.91437 42.4539L2.12942 41.6593C0.0521971 43.7114 -1.11691 46.5098 -1.11691 49.4297H0ZM715.37 263.17L714.585 262.375C712.958 263.982 710.764 264.883 708.478 264.883V266V267.117C711.352 267.117 714.11 265.984 716.155 263.964L715.37 263.17ZM43.023 2.83005L43.808 3.62461C45.4343 2.01791 47.6284 1.11691 49.9145 1.11691V0V-1.11691C47.0406 -1.11691 44.2825 0.0157252 42.2381 2.03549L43.023 2.83005ZM759 215.97H757.883C757.883 218.292 756.953 220.519 755.301 222.151L756.086 222.946L756.871 223.74C758.948 221.688 760.117 218.89 760.117 215.97H759Z" fill="url(#paint1_linear_2019_471)" fill-opacity="0.4" mask="url(#path-1-inside-1_2019_471)"/>
<path d="M759 9.80566L760.117 9.80566L760.117 9.80565L759 9.80566ZM0 256.194L-1.11691 256.194L-1.11691 256.194L0 256.194ZM715.37 263.17L714.585 262.375L715.37 263.17ZM43.023 2.83005L43.808 3.62461L43.023 2.83005ZM756.086 222.946L755.301 222.151L756.086 222.946ZM749.194 0V1.11691C753.993 1.11691 757.883 5.00691 757.883 9.80568L759 9.80566L760.117 9.80565C760.117 3.77323 755.227 -1.11691 749.194 -1.11691V0ZM759 9.80566H757.883V215.97H759H760.117V9.80566H759ZM756.086 222.946L755.301 222.151L714.585 262.375L715.37 263.17L716.155 263.964L756.871 223.74L756.086 222.946ZM708.478 266V264.883H9.80664V266V267.117H708.478V266ZM9.80664 266V264.883C5.00786 264.883 1.11708 260.993 1.11691 256.194L0 256.194L-1.11691 256.194C-1.11669 262.227 3.77437 267.117 9.80664 267.117V266ZM0 256.194H1.11691V49.4297H0H-1.11691V256.194H0ZM2.91437 42.4539L3.69933 43.2484L43.808 3.62461L43.023 2.83005L42.2381 2.03549L2.12942 41.6593L2.91437 42.4539ZM49.9145 0V1.11691H749.194V0V-1.11691H49.9145V0ZM0 49.4297H1.11691C1.11691 47.1069 2.04692 44.8809 3.69933 43.2484L2.91437 42.4539L2.12942 41.6593C0.0521971 43.7114 -1.11691 46.5098 -1.11691 49.4297H0ZM715.37 263.17L714.585 262.375C712.958 263.982 710.764 264.883 708.478 264.883V266V267.117C711.352 267.117 714.11 265.984 716.155 263.964L715.37 263.17ZM43.023 2.83005L43.808 3.62461C45.4343 2.01791 47.6284 1.11691 49.9145 1.11691V0V-1.11691C47.0406 -1.11691 44.2825 0.0157252 42.2381 2.03549L43.023 2.83005ZM759 215.97H757.883C757.883 218.292 756.953 220.519 755.301 222.151L756.086 222.946L756.871 223.74C758.948 221.688 760.117 218.89 760.117 215.97H759Z" fill="url(#paint2_linear_2019_471)" fill-opacity="0.4" mask="url(#path-1-inside-1_2019_471)"/>
<mask id="mask0_2019_471" style="mask-type:alpha" maskUnits="userSpaceOnUse" x="0" y="249" width="759" height="17">
<rect y="250" width="759" height="16" fill="#D9D9D9"/>
</mask>
<g mask="url(#mask0_2019_471)">
<path d="M282.01 147.864L107.143 323.721L96.5059 313.143L271.373 137.288L282.01 147.864ZM251.086 139.672L76.2188 315.528L65.582 304.951L240.45 129.095L251.086 139.672ZM220.198 131.347L45.3311 307.203L34.6943 296.626L209.562 120.77L220.198 131.347ZM189.274 123.153L14.4072 299.01L3.77051 288.433L178.638 112.577L189.274 123.153ZM158.315 115.094L-16.5518 290.95L-27.1885 280.374L147.68 104.517L158.315 115.094ZM127.428 106.768L-47.4404 282.625L-58.0762 272.049L116.791 96.1923L127.428 106.768ZM96.5039 98.576L-78.3633 274.432L-89 263.855L85.8672 87.9999L96.5039 98.576Z" fill="#FF8E2A"/>
<path d="M531.01 172.864L356.143 348.721L345.506 338.143L520.373 162.288L531.01 172.864ZM500.086 164.672L325.219 340.528L314.582 329.951L489.45 154.095L500.086 164.672ZM469.198 156.347L294.331 332.203L283.694 321.626L458.562 145.77L469.198 156.347ZM438.274 148.153L263.407 324.01L252.771 313.433L427.638 137.577L438.274 148.153ZM407.315 140.094L232.448 315.95L221.812 305.374L396.68 129.517L407.315 140.094ZM376.428 131.768L201.56 307.625L190.924 297.049L365.791 121.192L376.428 131.768ZM345.504 123.576L170.637 299.432L160 288.855L334.867 113L345.504 123.576Z" fill="#FF8E2A"/>
<path d="M780.01 197.864L605.143 373.721L594.506 363.143L769.373 187.288L780.01 197.864ZM749.086 189.672L574.219 365.528L563.582 354.951L738.45 179.095L749.086 189.672ZM718.198 181.347L543.331 357.203L532.694 346.626L707.562 170.77L718.198 181.347ZM687.274 173.153L512.407 349.01L501.771 338.433L676.638 162.577L687.274 173.153ZM656.315 165.094L481.448 340.95L470.812 330.374L645.68 154.517L656.315 165.094ZM625.428 156.768L450.56 332.625L439.924 322.049L614.791 146.192L625.428 156.768ZM594.504 148.576L419.637 324.432L409 313.855L583.867 138L594.504 148.576Z" fill="#FF8E2A"/>
</g>
<defs>
<linearGradient id="paint0_linear_2019_471" x1="91.9753" y1="110.785" x2="107.471" y2="128.775" gradientUnits="userSpaceOnUse">
<stop stop-color="white" stop-opacity="0"/>
<stop offset="1" stop-color="#FF8E2A"/>
</linearGradient>
<linearGradient id="paint1_linear_2019_471" x1="22.0838" y1="23.178" x2="-20.9647" y2="-12.425" gradientUnits="userSpaceOnUse">
<stop stop-color="white" stop-opacity="0"/>
<stop offset="1" stop-color="white"/>
</linearGradient>
<linearGradient id="paint2_linear_2019_471" x1="90.7619" y1="25.1194" x2="110.127" y2="-23.9289" gradientUnits="userSpaceOnUse">
<stop stop-color="white" stop-opacity="0"/>
<stop offset="1" stop-color="white"/>
</linearGradient>
</defs>
</svg>

