<svg width="95" height="95" viewBox="0 0 95 95" fill="none" xmlns="http://www.w3.org/2000/svg">
<mask id="path-1-inside-1_151_215" fill="white">
<path d="M84.7568 0C90.1723 1.54912e-05 94.5623 4.39023 94.5625 9.80566V70.0733C94.5625 72.6946 93.513 75.2068 91.6482 77.049L76.7836 91.7343C74.9482 93.5476 72.4721 94.5645 69.892 94.5645H9.80664C4.39114 94.5645 0.000239143 90.1742 0 84.7588V24.5478C0 21.9265 1.04954 19.4143 2.91433 17.572L17.8365 2.83009C19.6719 1.01684 22.148 0 24.7281 0H84.7568Z"/>
</mask>
<path d="M84.7568 0C90.1723 1.54912e-05 94.5623 4.39023 94.5625 9.80566V70.0733C94.5625 72.6946 93.513 75.2068 91.6482 77.049L76.7836 91.7343C74.9482 93.5476 72.4721 94.5645 69.892 94.5645H9.80664C4.39114 94.5645 0.000239143 90.1742 0 84.7588V24.5478C0 21.9265 1.04954 19.4143 2.91433 17.572L17.8365 2.83009C19.6719 1.01684 22.148 0 24.7281 0H84.7568Z" fill="#898989" fill-opacity="0.05"/>
<path d="M84.7568 0C90.1723 1.54912e-05 94.5623 4.39023 94.5625 9.80566V70.0733C94.5625 72.6946 93.513 75.2068 91.6482 77.049L76.7836 91.7343C74.9482 93.5476 72.4721 94.5645 69.892 94.5645H9.80664C4.39114 94.5645 0.000239143 90.1742 0 84.7588V24.5478C0 21.9265 1.04954 19.4143 2.91433 17.572L17.8365 2.83009C19.6719 1.01684 22.148 0 24.7281 0H84.7568Z" fill="black" fill-opacity="0.2"/>
<path d="M84.7568 0C90.1723 1.54912e-05 94.5623 4.39023 94.5625 9.80566V70.0733C94.5625 72.6946 93.513 75.2068 91.6482 77.049L76.7836 91.7343C74.9482 93.5476 72.4721 94.5645 69.892 94.5645H9.80664C4.39114 94.5645 0.000239143 90.1742 0 84.7588V24.5478C0 21.9265 1.04954 19.4143 2.91433 17.572L17.8365 2.83009C19.6719 1.01684 22.148 0 24.7281 0H84.7568Z" fill="#FF8E2A"/>
<path d="M84.7568 0V-1.11691V0ZM94.5625 9.80566H95.6794V9.80561L94.5625 9.80566ZM0 84.7588H-1.11691V84.7588L0 84.7588ZM76.7836 91.7343L77.5686 92.5289L76.7836 91.7343ZM84.7568 0V1.11691C89.5554 1.11692 93.4454 5.00705 93.4456 9.80571L94.5625 9.80566L95.6794 9.80561C95.6791 3.77342 90.7892 -1.11689 84.7568 -1.11691V0ZM94.5625 9.80566H93.4456V70.0733H94.5625H95.6794V9.80566H94.5625ZM91.6482 77.049L90.8633 76.2545L75.9987 90.9398L76.7836 91.7343L77.5686 92.5289L92.4332 77.8436L91.6482 77.049ZM69.892 94.5645V93.4475H9.80664V94.5645V95.6814H69.892V94.5645ZM9.80664 94.5645V93.4475C5.00789 93.4475 1.11712 89.5573 1.11691 84.7587L0 84.7588L-1.11691 84.7588C-1.11664 90.7912 3.77438 95.6814 9.80664 95.6814V94.5645ZM0 84.7588H1.11691V24.5478H0H-1.11691V84.7588H0ZM2.91433 17.572L3.69929 18.3666L18.6214 3.62465L17.8365 2.83009L17.0515 2.03553L2.12937 16.7775L2.91433 17.572ZM24.7281 0V1.11691H84.7568V0V-1.11691H24.7281V0ZM0 24.5478H1.11691C1.11691 22.2251 2.04691 19.999 3.69929 18.3666L2.91433 17.572L2.12937 16.7775C0.0521794 18.8296 -1.11691 21.6279 -1.11691 24.5478H0ZM76.7836 91.7343L75.9987 90.9398C74.3723 92.5465 72.1782 93.4475 69.892 93.4475V94.5645V95.6814C72.766 95.6814 75.5241 94.5487 77.5686 92.5289L76.7836 91.7343ZM17.8365 2.83009L18.6214 3.62465C20.2478 2.01792 22.4419 1.11691 24.7281 1.11691V0V-1.11691C21.8541 -1.11691 19.096 0.0157474 17.0515 2.03553L17.8365 2.83009ZM94.5625 70.0733H93.4456C93.4456 72.396 92.5156 74.6221 90.8633 76.2545L91.6482 77.049L92.4332 77.8436C94.5103 75.7915 95.6794 72.9932 95.6794 70.0733H94.5625Z" fill="white" fill-opacity="0.02" mask="url(#path-1-inside-1_151_215)"/>
<path d="M84.7568 0V-1.11691V0ZM94.5625 9.80566H95.6794V9.80561L94.5625 9.80566ZM0 84.7588H-1.11691V84.7588L0 84.7588ZM76.7836 91.7343L77.5686 92.5289L76.7836 91.7343ZM84.7568 0V1.11691C89.5554 1.11692 93.4454 5.00705 93.4456 9.80571L94.5625 9.80566L95.6794 9.80561C95.6791 3.77342 90.7892 -1.11689 84.7568 -1.11691V0ZM94.5625 9.80566H93.4456V70.0733H94.5625H95.6794V9.80566H94.5625ZM91.6482 77.049L90.8633 76.2545L75.9987 90.9398L76.7836 91.7343L77.5686 92.5289L92.4332 77.8436L91.6482 77.049ZM69.892 94.5645V93.4475H9.80664V94.5645V95.6814H69.892V94.5645ZM9.80664 94.5645V93.4475C5.00789 93.4475 1.11712 89.5573 1.11691 84.7587L0 84.7588L-1.11691 84.7588C-1.11664 90.7912 3.77438 95.6814 9.80664 95.6814V94.5645ZM0 84.7588H1.11691V24.5478H0H-1.11691V84.7588H0ZM2.91433 17.572L3.69929 18.3666L18.6214 3.62465L17.8365 2.83009L17.0515 2.03553L2.12937 16.7775L2.91433 17.572ZM24.7281 0V1.11691H84.7568V0V-1.11691H24.7281V0ZM0 24.5478H1.11691C1.11691 22.2251 2.04691 19.999 3.69929 18.3666L2.91433 17.572L2.12937 16.7775C0.0521794 18.8296 -1.11691 21.6279 -1.11691 24.5478H0ZM76.7836 91.7343L75.9987 90.9398C74.3723 92.5465 72.1782 93.4475 69.892 93.4475V94.5645V95.6814C72.766 95.6814 75.5241 94.5487 77.5686 92.5289L76.7836 91.7343ZM17.8365 2.83009L18.6214 3.62465C20.2478 2.01792 22.4419 1.11691 24.7281 1.11691V0V-1.11691C21.8541 -1.11691 19.096 0.0157474 17.0515 2.03553L17.8365 2.83009ZM94.5625 70.0733H93.4456C93.4456 72.396 92.5156 74.6221 90.8633 76.2545L91.6482 77.049L92.4332 77.8436C94.5103 75.7915 95.6794 72.9932 95.6794 70.0733H94.5625Z" fill="url(#paint0_linear_151_215)" fill-opacity="0.3" mask="url(#path-1-inside-1_151_215)"/>
<path d="M84.7568 0V-1.11691V0ZM94.5625 9.80566H95.6794V9.80561L94.5625 9.80566ZM0 84.7588H-1.11691V84.7588L0 84.7588ZM76.7836 91.7343L77.5686 92.5289L76.7836 91.7343ZM84.7568 0V1.11691C89.5554 1.11692 93.4454 5.00705 93.4456 9.80571L94.5625 9.80566L95.6794 9.80561C95.6791 3.77342 90.7892 -1.11689 84.7568 -1.11691V0ZM94.5625 9.80566H93.4456V70.0733H94.5625H95.6794V9.80566H94.5625ZM91.6482 77.049L90.8633 76.2545L75.9987 90.9398L76.7836 91.7343L77.5686 92.5289L92.4332 77.8436L91.6482 77.049ZM69.892 94.5645V93.4475H9.80664V94.5645V95.6814H69.892V94.5645ZM9.80664 94.5645V93.4475C5.00789 93.4475 1.11712 89.5573 1.11691 84.7587L0 84.7588L-1.11691 84.7588C-1.11664 90.7912 3.77438 95.6814 9.80664 95.6814V94.5645ZM0 84.7588H1.11691V24.5478H0H-1.11691V84.7588H0ZM2.91433 17.572L3.69929 18.3666L18.6214 3.62465L17.8365 2.83009L17.0515 2.03553L2.12937 16.7775L2.91433 17.572ZM24.7281 0V1.11691H84.7568V0V-1.11691H24.7281V0ZM0 24.5478H1.11691C1.11691 22.2251 2.04691 19.999 3.69929 18.3666L2.91433 17.572L2.12937 16.7775C0.0521794 18.8296 -1.11691 21.6279 -1.11691 24.5478H0ZM76.7836 91.7343L75.9987 90.9398C74.3723 92.5465 72.1782 93.4475 69.892 93.4475V94.5645V95.6814C72.766 95.6814 75.5241 94.5487 77.5686 92.5289L76.7836 91.7343ZM17.8365 2.83009L18.6214 3.62465C20.2478 2.01792 22.4419 1.11691 24.7281 1.11691V0V-1.11691C21.8541 -1.11691 19.096 0.0157474 17.0515 2.03553L17.8365 2.83009ZM94.5625 70.0733H93.4456C93.4456 72.396 92.5156 74.6221 90.8633 76.2545L91.6482 77.049L92.4332 77.8436C94.5103 75.7915 95.6794 72.9932 95.6794 70.0733H94.5625Z" fill="url(#paint1_linear_151_215)" fill-opacity="0.4" mask="url(#path-1-inside-1_151_215)"/>
<defs>
<linearGradient id="paint0_linear_151_215" x1="74.9777" y1="90.0131" x2="87.6099" y2="104.679" gradientUnits="userSpaceOnUse">
<stop stop-color="white" stop-opacity="0"/>
<stop offset="1" stop-color="#FF8E2A"/>
</linearGradient>
<linearGradient id="paint1_linear_151_215" x1="18.0026" y1="18.5961" x2="-17.0904" y2="-10.4273" gradientUnits="userSpaceOnUse">
<stop stop-color="white" stop-opacity="0"/>
<stop offset="1" stop-color="white"/>
</linearGradient>
<linearGradient id="paint2_linear_151_215" x1="73.9885" y1="20.1788" x2="89.7751" y2="-19.8052" gradientUnits="userSpaceOnUse">
<stop stop-color="white" stop-opacity="0"/>
<stop offset="1" stop-color="white"/>
</linearGradient>
</defs>
</svg>

