<svg width="95" height="95" viewBox="0 0 95 95" fill="none" xmlns="http://www.w3.org/2000/svg">
<mask id="path-1-inside-1_2020_535" fill="white">
<path d="M84.7568 0C90.1723 1.54912e-05 94.5623 4.39023 94.5625 9.80566V70.0733C94.5625 72.6946 93.513 75.2068 91.6482 77.049L76.7836 91.7343C74.9482 93.5476 72.4721 94.5645 69.892 94.5645H9.80664C4.39114 94.5645 0.000239143 90.1742 0 84.7588V24.5478C0 21.9265 1.04954 19.4143 2.91433 17.572L17.8365 2.83009C19.6719 1.01684 22.148 0 24.7281 0H84.7568Z"/>
</mask>
<path d="M84.7568 0C90.1723 1.54912e-05 94.5623 4.39023 94.5625 9.80566V70.0733C94.5625 72.6946 93.513 75.2068 91.6482 77.049L76.7836 91.7343C74.9482 93.5476 72.4721 94.5645 69.892 94.5645H9.80664C4.39114 94.5645 0.000239143 90.1742 0 84.7588V24.5478C0 21.9265 1.04954 19.4143 2.91433 17.572L17.8365 2.83009C19.6719 1.01684 22.148 0 24.7281 0H84.7568Z" fill="#898989" fill-opacity="0.05"/>
<path d="M84.7568 0C90.1723 1.54912e-05 94.5623 4.39023 94.5625 9.80566V70.0733C94.5625 72.6946 93.513 75.2068 91.6482 77.049L76.7836 91.7343C74.9482 93.5476 72.4721 94.5645 69.892 94.5645H9.80664C4.39114 94.5645 0.000239143 90.1742 0 84.7588V24.5478C0 21.9265 1.04954 19.4143 2.91433 17.572L17.8365 2.83009C19.6719 1.01684 22.148 0 24.7281 0H84.7568Z" fill="black" fill-opacity="0.2"/>
<path d="M84.7568 0C90.1723 1.54912e-05 94.5623 4.39023 94.5625 9.80566V70.0733C94.5625 72.6946 93.513 75.2068 91.6482 77.049L76.7836 91.7343C74.9482 93.5476 72.4721 94.5645 69.892 94.5645H9.80664C4.39114 94.5645 0.000239143 90.1742 0 84.7588V24.5478C0 21.9265 1.04954 19.4143 2.91433 17.572L17.8365 2.83009C19.6719 1.01684 22.148 0 24.7281 0H84.7568Z" fill="#FF8E2A"/>
<path d="M84.7568 0V-1.11691V0ZM94.5625 9.80566H95.6794V9.80561L94.5625 9.80566ZM0 84.7588H-1.11691V84.7588L0 84.7588ZM76.7836 91.7343L77.5686 92.5289L76.7836 91.7343ZM84.7568 0V1.11691C89.5554 1.11692 93.4454 5.00705 93.4456 9.80571L94.5625 9.80566L95.6794 9.80561C95.6791 3.77342 90.7892 -1.11689 84.7568 -1.11691V0ZM94.5625 9.80566H93.4456V70.0733H94.5625H95.6794V9.80566H94.5625ZM91.6482 77.049L90.8633 76.2545L75.9987 90.9398L76.7836 91.7343L77.5686 92.5289L92.4332 77.8436L91.6482 77.049ZM69.892 94.5645V93.4475H9.80664V94.5645V95.6814H69.892V94.5645ZM9.80664 94.5645V93.4475C5.00789 93.4475 1.11712 89.5573 1.11691 84.7587L0 84.7588L-1.11691 84.7588C-1.11664 90.7912 3.77438 95.6814 9.80664 95.6814V94.5645ZM0 84.7588H1.11691V24.5478H0H-1.11691V84.7588H0ZM2.91433 17.572L3.69929 18.3666L18.6214 3.62465L17.8365 2.83009L17.0515 2.03553L2.12937 16.7775L2.91433 17.572ZM24.7281 0V1.11691H84.7568V0V-1.11691H24.7281V0ZM0 24.5478H1.11691C1.11691 22.2251 2.04691 19.999 3.69929 18.3666L2.91433 17.572L2.12937 16.7775C0.0521794 18.8296 -1.11691 21.6279 -1.11691 24.5478H0ZM76.7836 91.7343L75.9987 90.9398C74.3723 92.5465 72.1782 93.4475 69.892 93.4475V94.5645V95.6814C72.766 95.6814 75.5241 94.5487 77.5686 92.5289L76.7836 91.7343ZM17.8365 2.83009L18.6214 3.62465C20.2478 2.01792 22.4419 1.11691 24.7281 1.11691V0V-1.11691C21.8541 -1.11691 19.096 0.0157474 17.0515 2.03553L17.8365 2.83009ZM94.5625 70.0733H93.4456C93.4456 72.396 92.5156 74.6221 90.8633 76.2545L91.6482 77.049L92.4332 77.8436C94.5103 75.7915 95.6794 72.9932 95.6794 70.0733H94.5625Z" fill="white" fill-opacity="0.02" mask="url(#path-1-inside-1_2020_535)"/>
<path d="M84.7568 0V-1.11691V0ZM94.5625 9.80566H95.6794V9.80561L94.5625 9.80566ZM0 84.7588H-1.11691V84.7588L0 84.7588ZM76.7836 91.7343L77.5686 92.5289L76.7836 91.7343ZM84.7568 0V1.11691C89.5554 1.11692 93.4454 5.00705 93.4456 9.80571L94.5625 9.80566L95.6794 9.80561C95.6791 3.77342 90.7892 -1.11689 84.7568 -1.11691V0ZM94.5625 9.80566H93.4456V70.0733H94.5625H95.6794V9.80566H94.5625ZM91.6482 77.049L90.8633 76.2545L75.9987 90.9398L76.7836 91.7343L77.5686 92.5289L92.4332 77.8436L91.6482 77.049ZM69.892 94.5645V93.4475H9.80664V94.5645V95.6814H69.892V94.5645ZM9.80664 94.5645V93.4475C5.00789 93.4475 1.11712 89.5573 1.11691 84.7587L0 84.7588L-1.11691 84.7588C-1.11664 90.7912 3.77438 95.6814 9.80664 95.6814V94.5645ZM0 84.7588H1.11691V24.5478H0H-1.11691V84.7588H0ZM2.91433 17.572L3.69929 18.3666L18.6214 3.62465L17.8365 2.83009L17.0515 2.03553L2.12937 16.7775L2.91433 17.572ZM24.7281 0V1.11691H84.7568V0V-1.11691H24.7281V0ZM0 24.5478H1.11691C1.11691 22.2251 2.04691 19.999 3.69929 18.3666L2.91433 17.572L2.12937 16.7775C0.0521794 18.8296 -1.11691 21.6279 -1.11691 24.5478H0ZM76.7836 91.7343L75.9987 90.9398C74.3723 92.5465 72.1782 93.4475 69.892 93.4475V94.5645V95.6814C72.766 95.6814 75.5241 94.5487 77.5686 92.5289L76.7836 91.7343ZM17.8365 2.83009L18.6214 3.62465C20.2478 2.01792 22.4419 1.11691 24.7281 1.11691V0V-1.11691C21.8541 -1.11691 19.096 0.0157474 17.0515 2.03553L17.8365 2.83009ZM94.5625 70.0733H93.4456C93.4456 72.396 92.5156 74.6221 90.8633 76.2545L91.6482 77.049L92.4332 77.8436C94.5103 75.7915 95.6794 72.9932 95.6794 70.0733H94.5625Z" fill="url(#paint0_linear_2020_535)" fill-opacity="0.3" mask="url(#path-1-inside-1_2020_535)"/>
<path d="M84.7568 0V-1.11691V0ZM94.5625 9.80566H95.6794V9.80561L94.5625 9.80566ZM0 84.7588H-1.11691V84.7588L0 84.7588ZM76.7836 91.7343L77.5686 92.5289L76.7836 91.7343ZM84.7568 0V1.11691C89.5554 1.11692 93.4454 5.00705 93.4456 9.80571L94.5625 9.80566L95.6794 9.80561C95.6791 3.77342 90.7892 -1.11689 84.7568 -1.11691V0ZM94.5625 9.80566H93.4456V70.0733H94.5625H95.6794V9.80566H94.5625ZM91.6482 77.049L90.8633 76.2545L75.9987 90.9398L76.7836 91.7343L77.5686 92.5289L92.4332 77.8436L91.6482 77.049ZM69.892 94.5645V93.4475H9.80664V94.5645V95.6814H69.892V94.5645ZM9.80664 94.5645V93.4475C5.00789 93.4475 1.11712 89.5573 1.11691 84.7587L0 84.7588L-1.11691 84.7588C-1.11664 90.7912 3.77438 95.6814 9.80664 95.6814V94.5645ZM0 84.7588H1.11691V24.5478H0H-1.11691V84.7588H0ZM2.91433 17.572L3.69929 18.3666L18.6214 3.62465L17.8365 2.83009L17.0515 2.03553L2.12937 16.7775L2.91433 17.572ZM24.7281 0V1.11691H84.7568V0V-1.11691H24.7281V0ZM0 24.5478H1.11691C1.11691 22.2251 2.04691 19.999 3.69929 18.3666L2.91433 17.572L2.12937 16.7775C0.0521794 18.8296 -1.11691 21.6279 -1.11691 24.5478H0ZM76.7836 91.7343L75.9987 90.9398C74.3723 92.5465 72.1782 93.4475 69.892 93.4475V94.5645V95.6814C72.766 95.6814 75.5241 94.5487 77.5686 92.5289L76.7836 91.7343ZM17.8365 2.83009L18.6214 3.62465C20.2478 2.01792 22.4419 1.11691 24.7281 1.11691V0V-1.11691C21.8541 -1.11691 19.096 0.0157474 17.0515 2.03553L17.8365 2.83009ZM94.5625 70.0733H93.4456C93.4456 72.396 92.5156 74.6221 90.8633 76.2545L91.6482 77.049L92.4332 77.8436C94.5103 75.7915 95.6794 72.9932 95.6794 70.0733H94.5625Z" fill="url(#paint1_linear_2020_535)" fill-opacity="0.4" mask="url(#path-1-inside-1_2020_535)"/>
<path d="M84.7568 0V-1.11691V0ZM94.5625 9.80566H95.6794V9.80561L94.5625 9.80566ZM0 84.7588H-1.11691V84.7588L0 84.7588ZM76.7836 91.7343L77.5686 92.5289L76.7836 91.7343ZM84.7568 0V1.11691C89.5554 1.11692 93.4454 5.00705 93.4456 9.80571L94.5625 9.80566L95.6794 9.80561C95.6791 3.77342 90.7892 -1.11689 84.7568 -1.11691V0ZM94.5625 9.80566H93.4456V70.0733H94.5625H95.6794V9.80566H94.5625ZM91.6482 77.049L90.8633 76.2545L75.9987 90.9398L76.7836 91.7343L77.5686 92.5289L92.4332 77.8436L91.6482 77.049ZM69.892 94.5645V93.4475H9.80664V94.5645V95.6814H69.892V94.5645ZM9.80664 94.5645V93.4475C5.00789 93.4475 1.11712 89.5573 1.11691 84.7587L0 84.7588L-1.11691 84.7588C-1.11664 90.7912 3.77438 95.6814 9.80664 95.6814V94.5645ZM0 84.7588H1.11691V24.5478H0H-1.11691V84.7588H0ZM2.91433 17.572L3.69929 18.3666L18.6214 3.62465L17.8365 2.83009L17.0515 2.03553L2.12937 16.7775L2.91433 17.572ZM24.7281 0V1.11691H84.7568V0V-1.11691H24.7281V0ZM0 24.5478H1.11691C1.11691 22.2251 2.04691 19.999 3.69929 18.3666L2.91433 17.572L2.12937 16.7775C0.0521794 18.8296 -1.11691 21.6279 -1.11691 24.5478H0ZM76.7836 91.7343L75.9987 90.9398C74.3723 92.5465 72.1782 93.4475 69.892 93.4475V94.5645V95.6814C72.766 95.6814 75.5241 94.5487 77.5686 92.5289L76.7836 91.7343ZM17.8365 2.83009L18.6214 3.62465C20.2478 2.01792 22.4419 1.11691 24.7281 1.11691V0V-1.11691C21.8541 -1.11691 19.096 0.0157474 17.0515 2.03553L17.8365 2.83009ZM94.5625 70.0733H93.4456C93.4456 72.396 92.5156 74.6221 90.8633 76.2545L91.6482 77.049L92.4332 77.8436C94.5103 75.7915 95.6794 72.9932 95.6794 70.0733H94.5625Z" fill="url(#paint2_linear_2020_535)" fill-opacity="0.4" mask="url(#path-1-inside-1_2020_535)"/>
<path d="M45.1655 61.7541C43.3492 61.6915 41.6269 61.5193 39.9985 61.2374C38.4014 60.9556 37.0548 60.5641 35.9587 60.0631V55.4597C37.0861 55.9921 38.4953 56.4775 40.1863 56.9159C41.9087 57.323 43.5684 57.5422 45.1655 57.5735V48.7895C43.5371 48.2884 42.1279 47.756 40.9379 47.1924C39.7792 46.6287 38.8241 46.018 38.0725 45.3604C37.3523 44.6715 36.8043 43.8886 36.4285 43.0117C36.084 42.1349 35.9118 41.1328 35.9118 40.0054C35.9118 38.471 36.2876 37.1557 37.0391 36.0597C37.822 34.9323 38.9024 34.0398 40.2803 33.3822C41.6895 32.7245 43.3179 32.3331 45.1655 32.2078V28.2621H48.2188V32.1609C49.9099 32.1922 51.46 32.3801 52.8692 32.7245C54.2784 33.0377 55.6093 33.4605 56.8619 33.9928L55.3118 38.0325C54.2471 37.5941 53.0884 37.234 51.8358 36.9522C50.6145 36.639 49.4088 36.4354 48.2188 36.3415V44.9846C50.1604 45.6109 51.8358 46.2686 53.245 46.9575C54.6855 47.6464 55.7972 48.5076 56.5801 49.541C57.363 50.5431 57.7544 51.8741 57.7544 53.5338C57.7544 55.7572 56.9246 57.5735 55.2648 58.9827C53.6364 60.3919 51.2877 61.2531 48.2188 61.5662V66.6394H45.1655V61.7541ZM48.2188 57.3856C49.8472 57.1977 51.0216 56.8063 51.7418 56.2113C52.4934 55.585 52.8692 54.7864 52.8692 53.8156C52.8692 53.158 52.7126 52.5943 52.3994 52.1246C52.1176 51.6548 51.6322 51.2477 50.9433 50.9033C50.2856 50.5588 49.3775 50.2143 48.2188 49.8699V57.3856ZM45.1655 36.4354C44.1948 36.4981 43.3805 36.686 42.7229 36.9991C42.0966 37.281 41.6112 37.6568 41.2667 38.1265C40.9536 38.5962 40.797 39.1442 40.797 39.7706C40.797 40.4595 40.9379 41.0702 41.2198 41.6025C41.5016 42.1036 41.9557 42.542 42.582 42.9178C43.2083 43.2623 44.0695 43.5911 45.1655 43.9042V36.4354Z" fill="#1D1813"/>
<defs>
<linearGradient id="paint0_linear_2020_535" x1="74.9777" y1="90.0131" x2="87.6099" y2="104.679" gradientUnits="userSpaceOnUse">
<stop stop-color="white" stop-opacity="0"/>
<stop offset="1" stop-color="#FF8E2A"/>
</linearGradient>
<linearGradient id="paint1_linear_2020_535" x1="18.0026" y1="18.5961" x2="-17.0904" y2="-10.4273" gradientUnits="userSpaceOnUse">
<stop stop-color="white" stop-opacity="0"/>
<stop offset="1" stop-color="white"/>
</linearGradient>
<linearGradient id="paint2_linear_2020_535" x1="73.9885" y1="20.1788" x2="89.7751" y2="-19.8052" gradientUnits="userSpaceOnUse">
<stop stop-color="white" stop-opacity="0"/>
<stop offset="1" stop-color="white"/>
</linearGradient>
</defs>
</svg>
