<svg width="759" height="266" viewBox="0 0 759 266" fill="none" xmlns="http://www.w3.org/2000/svg">
<mask id="path-1-inside-1_151_342" fill="white">
<path d="M749.194 0C754.61 0 759 4.39007 759 9.80566V215.97C759 218.591 757.95 221.103 756.086 222.946L715.37 263.17C713.534 264.983 711.058 266 708.478 266H9.80664C4.39111 266 0.000193824 261.61 0 256.194V49.4297C0 46.8084 1.04956 44.2961 2.91437 42.4539L43.023 2.83005C44.8584 1.01682 47.3345 0 49.9145 0H749.194Z"/>
</mask>
<path d="M749.194 0C754.61 0 759 4.39007 759 9.80566V215.97C759 218.591 757.95 221.103 756.086 222.946L715.37 263.17C713.534 264.983 711.058 266 708.478 266H9.80664C4.39111 266 0.000193824 261.61 0 256.194V49.4297C0 46.8084 1.04956 44.2961 2.91437 42.4539L43.023 2.83005C44.8584 1.01682 47.3345 0 49.9145 0H749.194Z" fill="#898989" fill-opacity="0.05"/>
<path d="M759 9.80566H760.117V9.80565L759 9.80566ZM0 256.194H-1.11691V256.194L0 256.194ZM715.37 263.17L714.585 262.375L715.37 263.17ZM43.023 2.83005L43.808 3.62461L43.023 2.83005ZM756.086 222.946L755.301 222.151L756.086 222.946ZM749.194 0V1.11691C753.993 1.11691 757.883 5.00691 757.883 9.80568L759 9.80566L760.117 9.80565C760.117 3.77323 755.227 -1.11691 749.194 -1.11691V0ZM759 9.80566H757.883V215.97H759H760.117V9.80566H759ZM756.086 222.946L755.301 222.151L714.585 262.375L715.37 263.17L716.155 263.964L756.871 223.74L756.086 222.946ZM708.478 266V264.883H9.80664V266V267.117H708.478V266ZM9.80664 266V264.883C5.00786 264.883 1.11708 260.993 1.11691 256.194L0 256.194L-1.11691 256.194C-1.11669 262.227 3.77437 267.117 9.80664 267.117V266ZM0 256.194H1.11691V49.4297H0H-1.11691V256.194H0ZM2.91437 42.4539L3.69933 43.2484L43.808 3.62461L43.023 2.83005L42.2381 2.03549L2.12942 41.6593L2.91437 42.4539ZM49.9145 0V1.11691H749.194V0V-1.11691H49.9145V0ZM0 49.4297H1.11691C1.11691 47.1069 2.04692 44.8809 3.69933 43.2484L2.91437 42.4539L2.12942 41.6593C0.0521971 43.7114 -1.11691 46.5098 -1.11691 49.4297H0ZM715.37 263.17L714.585 262.375C712.958 263.982 710.764 264.883 708.478 264.883V266V267.117C711.352 267.117 714.11 265.984 716.155 263.964L715.37 263.17ZM43.023 2.83005L43.808 3.62461C45.4343 2.01791 47.6284 1.11691 49.9145 1.11691V0V-1.11691C47.0406 -1.11691 44.2825 0.0157252 42.2381 2.03549L43.023 2.83005ZM759 215.97H757.883C757.883 218.292 756.953 220.519 755.301 222.151L756.086 222.946L756.871 223.74C758.948 221.688 760.117 218.89 760.117 215.97H759Z" fill="white" fill-opacity="0.02" mask="url(#path-1-inside-1_151_342)"/>
<path d="M759 9.80566H760.117V9.80565L759 9.80566ZM0 256.194H-1.11691V256.194L0 256.194ZM715.37 263.17L714.585 262.375L715.37 263.17ZM43.023 2.83005L43.808 3.62461L43.023 2.83005ZM756.086 222.946L755.301 222.151L756.086 222.946ZM749.194 0V1.11691C753.993 1.11691 757.883 5.00691 757.883 9.80568L759 9.80566L760.117 9.80565C760.117 3.77323 755.227 -1.11691 749.194 -1.11691V0ZM759 9.80566H757.883V215.97H759H760.117V9.80566H759ZM756.086 222.946L755.301 222.151L714.585 262.375L715.37 263.17L716.155 263.964L756.871 223.74L756.086 222.946ZM708.478 266V264.883H9.80664V266V267.117H708.478V266ZM9.80664 266V264.883C5.00786 264.883 1.11708 260.993 1.11691 256.194L0 256.194L-1.11691 256.194C-1.11669 262.227 3.77437 267.117 9.80664 267.117V266ZM0 256.194H1.11691V49.4297H0H-1.11691V256.194H0ZM2.91437 42.4539L3.69933 43.2484L43.808 3.62461L43.023 2.83005L42.2381 2.03549L2.12942 41.6593L2.91437 42.4539ZM49.9145 0V1.11691H749.194V0V-1.11691H49.9145V0ZM0 49.4297H1.11691C1.11691 47.1069 2.04692 44.8809 3.69933 43.2484L2.91437 42.4539L2.12942 41.6593C0.0521971 43.7114 -1.11691 46.5098 -1.11691 49.4297H0ZM715.37 263.17L714.585 262.375C712.958 263.982 710.764 264.883 708.478 264.883V266V267.117C711.352 267.117 714.11 265.984 716.155 263.964L715.37 263.17ZM43.023 2.83005L43.808 3.62461C45.4343 2.01791 47.6284 1.11691 49.9145 1.11691V0V-1.11691C47.0406 -1.11691 44.2825 0.0157252 42.2381 2.03549L43.023 2.83005ZM759 215.97H757.883C757.883 218.292 756.953 220.519 755.301 222.151L756.086 222.946L756.871 223.74C758.948 221.688 760.117 218.89 760.117 215.97H759Z" fill="url(#paint0_linear_151_342)" fill-opacity="0.3" mask="url(#path-1-inside-1_151_342)"/>
<path d="M759 9.80566H760.117V9.80565L759 9.80566ZM0 256.194H-1.11691V256.194L0 256.194ZM715.37 263.17L714.585 262.375L715.37 263.17ZM43.023 2.83005L43.808 3.62461L43.023 2.83005ZM756.086 222.946L755.301 222.151L756.086 222.946ZM749.194 0V1.11691C753.993 1.11691 757.883 5.00691 757.883 9.80568L759 9.80566L760.117 9.80565C760.117 3.77323 755.227 -1.11691 749.194 -1.11691V0ZM759 9.80566H757.883V215.97H759H760.117V9.80566H759ZM756.086 222.946L755.301 222.151L714.585 262.375L715.37 263.17L716.155 263.964L756.871 223.74L756.086 222.946ZM708.478 266V264.883H9.80664V266V267.117H708.478V266ZM9.80664 266V264.883C5.00786 264.883 1.11708 260.993 1.11691 256.194L0 256.194L-1.11691 256.194C-1.11669 262.227 3.77437 267.117 9.80664 267.117V266ZM0 256.194H1.11691V49.4297H0H-1.11691V256.194H0ZM2.91437 42.4539L3.69933 43.2484L43.808 3.62461L43.023 2.83005L42.2381 2.03549L2.12942 41.6593L2.91437 42.4539ZM49.9145 0V1.11691H749.194V0V-1.11691H49.9145V0ZM0 49.4297H1.11691C1.11691 47.1069 2.04692 44.8809 3.69933 43.2484L2.91437 42.4539L2.12942 41.6593C0.0521971 43.7114 -1.11691 46.5098 -1.11691 49.4297H0ZM715.37 263.17L714.585 262.375C712.958 263.982 710.764 264.883 708.478 264.883V266V267.117C711.352 267.117 714.11 265.984 716.155 263.964L715.37 263.17ZM43.023 2.83005L43.808 3.62461C45.4343 2.01791 47.6284 1.11691 49.9145 1.11691V0V-1.11691C47.0406 -1.11691 44.2825 0.0157252 42.2381 2.03549L43.023 2.83005ZM759 215.97H757.883C757.883 218.292 756.953 220.519 755.301 222.151L756.086 222.946L756.871 223.74C758.948 221.688 760.117 218.89 760.117 215.97H759Z" fill="url(#paint1_linear_151_342)" fill-opacity="0.4" mask="url(#path-1-inside-1_151_342)"/>
<path d="M759 9.80566H760.117V9.80565L759 9.80566ZM0 256.194H-1.11691V256.194L0 256.194ZM715.37 263.17L714.585 262.375L715.37 263.17ZM43.023 2.83005L43.808 3.62461L43.023 2.83005ZM756.086 222.946L755.301 222.151L756.086 222.946ZM749.194 0V1.11691C753.993 1.11691 757.883 5.00691 757.883 9.80568L759 9.80566L760.117 9.80565C760.117 3.77323 755.227 -1.11691 749.194 -1.11691V0ZM759 9.80566H757.883V215.97H759H760.117V9.80566H759ZM756.086 222.946L755.301 222.151L714.585 262.375L715.37 263.17L716.155 263.964L756.871 223.74L756.086 222.946ZM708.478 266V264.883H9.80664V266V267.117H708.478V266ZM9.80664 266V264.883C5.00786 264.883 1.11708 260.993 1.11691 256.194L0 256.194L-1.11691 256.194C-1.11669 262.227 3.77437 267.117 9.80664 267.117V266ZM0 256.194H1.11691V49.4297H0H-1.11691V256.194H0ZM2.91437 42.4539L3.69933 43.2484L43.808 3.62461L43.023 2.83005L42.2381 2.03549L2.12942 41.6593L2.91437 42.4539ZM49.9145 0V1.11691H749.194V0V-1.11691H49.9145V0ZM0 49.4297H1.11691C1.11691 47.1069 2.04692 44.8809 3.69933 43.2484L2.91437 42.4539L2.12942 41.6593C0.0521971 43.7114 -1.11691 46.5098 -1.11691 49.4297H0ZM715.37 263.17L714.585 262.375C712.958 263.982 710.764 264.883 708.478 264.883V266V267.117C711.352 267.117 714.11 265.984 716.155 263.964L715.37 263.17ZM43.023 2.83005L43.808 3.62461C45.4343 2.01791 47.6284 1.11691 49.9145 1.11691V0V-1.11691C47.0406 -1.11691 44.2825 0.0157252 42.2381 2.03549L43.023 2.83005ZM759 215.97H757.883C757.883 218.292 756.953 220.519 755.301 222.151L756.086 222.946L756.871 223.74C758.948 221.688 760.117 218.89 760.117 215.97H759Z" fill="url(#paint2_linear_151_342)" fill-opacity="0.4" mask="url(#path-1-inside-1_151_342)"/>
<defs>
<linearGradient id="paint0_linear_151_342" x1="91.9753" y1="110.785" x2="107.471" y2="128.775" gradientUnits="userSpaceOnUse">
<stop stop-color="white" stop-opacity="0"/>
<stop offset="1" stop-color="#FF8E2A"/>
</linearGradient>
<linearGradient id="paint1_linear_151_342" x1="22.0838" y1="23.178" x2="-20.9647" y2="-12.425" gradientUnits="userSpaceOnUse">
<stop stop-color="white" stop-opacity="0"/>
<stop offset="1" stop-color="white"/>
</linearGradient>
<linearGradient id="paint2_linear_151_342" x1="90.7619" y1="25.1194" x2="110.127" y2="-23.9289" gradientUnits="userSpaceOnUse">
<stop stop-color="white" stop-opacity="0"/>
<stop offset="1" stop-color="white"/>
</linearGradient>
</defs>
</svg>

